<svg width="29" height="30" viewBox="0 0 29 30" fill="none" xmlns="http://www.w3.org/2000/svg">
<g clip-path="url(#clip0_720_10373)">
<path d="M28.4329 25.6471L21.0421 18.2563C20.7899 18.0031 20.471 17.8436 20.1331 17.7659C21.4115 15.9605 22.17 13.7623 22.17 11.3858C22.17 5.2733 17.1981 0.300781 11.085 0.300781C4.97252 0.300711 0 5.27274 0 11.3857C0 17.4977 4.97252 22.4702 11.085 22.4702C13.6222 22.4702 15.9546 21.6013 17.8241 20.16C17.911 20.4641 18.0659 20.7528 18.3049 20.9923L25.6968 28.3837C26.0626 28.7495 26.548 28.9502 27.0654 28.9502C27.5828 28.9502 28.0682 28.749 28.4335 28.3837C28.7993 28.0178 29.0006 27.5318 29 27.0139C28.9994 26.4972 28.7982 26.0118 28.4329 25.6471ZM1.1428 11.3852C1.1428 5.90325 5.60254 1.44351 11.0845 1.44351C16.5658 1.44351 21.0256 5.90325 21.0256 11.3852C21.0256 14.0143 19.9913 16.4017 18.3192 18.182C18.3111 18.1889 18.3031 18.1917 18.2945 18.198C18.2831 18.2101 18.2803 18.2255 18.2688 18.2364C16.4577 20.1349 13.9097 21.3252 11.0855 21.3252C5.6031 21.3263 1.1428 16.866 1.1428 11.3852ZM27.6245 27.5748C27.3256 27.8743 26.8042 27.8738 26.5052 27.5748L19.1133 20.184C18.8051 19.8754 18.8051 19.3728 19.1133 19.0641C19.2631 18.9143 19.462 18.832 19.6735 18.832C19.8851 18.832 20.0834 18.9149 20.2332 19.0641L27.6251 26.4566C27.7743 26.6059 27.8561 26.8036 27.8561 27.0152C27.8566 27.2261 27.7743 27.4256 27.6245 27.5748Z" fill="#F5F5F5" fill-opacity="0.9"/>
</g>
<defs>
<clipPath id="clip0_720_10373">
<rect width="29" height="29" fill="white" transform="translate(0 0.125488)"/>
</clipPath>
</defs>
</svg>
