<svg width="39" height="40" viewBox="0 0 39 40" fill="none" xmlns="http://www.w3.org/2000/svg">
<path d="M33.5156 5.00049C32.4907 5.00169 31.5006 5.37185 30.7262 6.04324C29.9519 6.71463 29.4452 7.64237 29.2988 8.65674H21.9375V9.87549H29.25V33.6411C29.25 33.8027 29.3142 33.9577 29.4285 34.072C29.5428 34.1863 29.6978 34.2505 29.8594 34.2505C30.021 34.2505 30.176 34.1863 30.2903 34.072C30.4045 33.9577 30.4688 33.8027 30.4688 33.6411C30.4688 32.833 30.7898 32.058 31.3612 31.4866C31.9326 30.9152 32.7075 30.5942 33.5156 30.5942C34.3237 30.5942 35.0987 30.9152 35.6701 31.4866C36.2415 32.058 36.5625 32.833 36.5625 33.6411V33.7691C36.5609 34.5427 36.2528 35.2842 35.7058 35.8313C35.1587 36.3783 34.4172 36.6864 33.6436 36.688H2.4375V24.0843C3.8227 26.7715 5.919 29.0269 8.49789 30.6046C11.0768 32.1824 14.0393 33.0219 17.0625 33.0317C17.2241 33.0317 17.3791 32.9675 17.4934 32.8533C17.6077 32.739 17.6719 32.584 17.6719 32.4224C17.6719 32.2607 17.6077 32.1057 17.4934 31.9915C17.3791 31.8772 17.2241 31.813 17.0625 31.813C14.7757 31.8086 12.5195 31.286 10.4636 30.2847L10.842 28.8734C11.2188 28.85 11.5785 28.7076 11.8691 28.4666C12.1598 28.2257 12.3664 27.8987 12.4593 27.5327L14.4653 20.0521C14.9208 20.1363 15.3812 20.1915 15.8438 20.2172V20.8442C15.8438 21.0059 15.908 21.1609 16.0222 21.2751C16.1365 21.3894 16.2915 21.4536 16.4531 21.4536C16.6147 21.4536 16.7697 21.3894 16.884 21.2751C16.9983 21.1609 17.0625 21.0059 17.0625 20.8442V20.2172C17.525 20.1919 17.9854 20.1371 18.4409 20.0533L20.4464 27.5309C20.5389 27.8971 20.7455 28.2244 21.0364 28.4654C21.3272 28.7064 21.6872 28.8486 22.0643 28.8715L22.5676 30.7508C22.6021 30.8806 22.6785 30.9954 22.785 31.0773C22.8914 31.1591 23.022 31.2036 23.1562 31.2036C23.2095 31.2035 23.2626 31.1966 23.3141 31.1829C23.3914 31.1622 23.4639 31.1264 23.5273 31.0777C23.5908 31.029 23.6441 30.9682 23.6841 30.8989C23.7241 30.8296 23.7501 30.7531 23.7605 30.6737C23.7709 30.5943 23.7656 30.5137 23.7449 30.4364L23.2422 28.5614C23.5514 28.3476 23.7873 28.0439 23.9181 27.6915C24.049 27.3391 24.0682 26.955 23.9734 26.5913L19.9747 11.6689C20.6095 10.7419 20.8518 9.60134 20.6487 8.4963C20.4456 7.39126 19.8136 6.41144 18.8906 5.77074V3.78174C18.8906 3.13527 18.6338 2.51529 18.1767 2.05817C17.7196 1.60105 17.0996 1.34424 16.4531 1.34424C15.8067 1.34424 15.1867 1.60105 14.7296 2.05817C14.2724 2.51529 14.0156 3.13527 14.0156 3.78174V5.77074C13.0927 6.41144 12.4606 7.39126 12.2575 8.4963C12.0544 9.60134 12.2967 10.7419 12.9315 11.6689L8.92917 26.5937C8.83468 26.9573 8.85453 27.3413 8.98603 27.6933C9.11753 28.0452 9.35428 28.3481 9.66408 28.5608L9.35939 29.6942C6.00421 27.7311 3.52752 24.5585 2.4375 20.8272V9.87549H10.9688V8.65674H1.21875V37.9067H33.6436C34.7409 37.9051 35.7928 37.4683 36.5684 36.6922C37.3441 35.9161 37.7803 34.8639 37.7812 33.7666V9.26611C37.78 8.1352 37.3301 7.05097 36.5305 6.25129C35.7308 5.45161 34.6465 5.00178 33.5156 5.00049ZM17.0625 18.9796V18.4067C17.0625 18.2451 16.9983 18.0901 16.884 17.9758C16.7697 17.8616 16.6147 17.7974 16.4531 17.7974C16.2915 17.7974 16.1365 17.8616 16.0222 17.9758C15.908 18.0901 15.8438 18.2451 15.8438 18.4067V18.9796C15.4894 18.9583 15.1364 18.9176 14.7865 18.8577L16.2173 13.5208C16.2959 13.525 16.3733 13.533 16.4531 13.533C16.533 13.533 16.6103 13.525 16.689 13.5208L18.1198 18.8577C17.7698 18.9176 17.4169 18.9583 17.0625 18.9796ZM22.7985 26.9045C22.8391 27.06 22.8172 27.2251 22.7374 27.3647C22.6577 27.5042 22.5265 27.6069 22.372 27.651H22.3683C22.2129 27.6921 22.0476 27.6702 21.9082 27.59C21.8393 27.55 21.7791 27.4966 21.731 27.433C21.683 27.3693 21.6482 27.2968 21.6285 27.2195L17.8858 13.2788C18.2798 13.1377 18.6509 12.9391 18.9869 12.6896L22.7985 26.9045ZM15.2344 3.78174C15.2344 3.45851 15.3628 3.14851 15.5913 2.91995C15.8199 2.69139 16.1299 2.56299 16.4531 2.56299C16.7764 2.56299 17.0864 2.69139 17.3149 2.91995C17.5435 3.14851 17.6719 3.45851 17.6719 3.78174V5.1833C16.8771 4.94361 16.0292 4.94361 15.2344 5.1833V3.78174ZM16.4531 6.21924C17.0557 6.21924 17.6448 6.39793 18.1459 6.73273C18.6469 7.06752 19.0375 7.54338 19.2681 8.10012C19.4987 8.65687 19.559 9.26949 19.4415 9.86053C19.3239 10.4516 19.0337 10.9945 18.6076 11.4206C18.1815 11.8467 17.6386 12.1369 17.0475 12.2544C16.4565 12.372 15.8439 12.3117 15.2871 12.0811C14.7304 11.8504 14.2545 11.4599 13.9197 10.9589C13.5849 10.4578 13.4062 9.86873 13.4062 9.26611C13.4072 8.45833 13.7285 7.68391 14.2997 7.11272C14.8709 6.54153 15.6453 6.22021 16.4531 6.21924ZM10.1071 26.9069L13.9193 12.6896C14.2554 12.9391 14.6264 13.1377 15.0205 13.2788L11.2814 27.2226C11.2396 27.3768 11.1389 27.5084 11.0009 27.5891C10.863 27.6698 10.6989 27.6931 10.544 27.654H10.5385C10.383 27.611 10.2505 27.5086 10.1698 27.3688C10.0891 27.229 10.0666 27.0631 10.1071 26.9069ZM36.5625 30.6582C36.1657 30.2522 35.6918 29.9296 35.1686 29.7093C34.6453 29.489 34.0833 29.3756 33.5156 29.3756C32.9479 29.3756 32.3859 29.489 31.8627 29.7093C31.3395 29.9296 30.8655 30.2522 30.4688 30.6582V9.26611C30.4688 8.45803 30.7898 7.68305 31.3612 7.11165C31.9326 6.54025 32.7075 6.21924 33.5156 6.21924C34.3237 6.21924 35.0987 6.54025 35.6701 7.11165C36.2415 7.68305 36.5625 8.45803 36.5625 9.26611V30.6582Z" fill="#F5F5F5" fill-opacity="0.9"/>
<path d="M16.4531 11.0942C16.8147 11.0942 17.1681 10.987 17.4688 10.7861C17.7694 10.5853 18.0037 10.2998 18.1421 9.96571C18.2805 9.63166 18.3167 9.26409 18.2461 8.90946C18.1756 8.55484 18.0015 8.2291 17.7458 7.97343C17.4901 7.71777 17.1644 7.54365 16.8098 7.47312C16.4552 7.40258 16.0876 7.43878 15.7535 7.57715C15.4195 7.71551 15.134 7.94983 14.9331 8.25046C14.7322 8.5511 14.625 8.90455 14.625 9.26611C14.625 9.75096 14.8176 10.216 15.1604 10.5588C15.5033 10.9016 15.9683 11.0942 16.4531 11.0942ZM16.4531 8.65674C16.5736 8.65674 16.6915 8.69248 16.7917 8.75944C16.8919 8.8264 16.97 8.92157 17.0161 9.03292C17.0622 9.14426 17.0743 9.26679 17.0508 9.385C17.0273 9.5032 16.9692 9.61178 16.884 9.69701C16.7988 9.78223 16.6902 9.84027 16.572 9.86378C16.4538 9.88729 16.3313 9.87523 16.2199 9.8291C16.1086 9.78298 16.0134 9.70488 15.9464 9.60466C15.8795 9.50445 15.8437 9.38664 15.8437 9.26611C15.8437 9.1045 15.908 8.9495 16.0222 8.83522C16.1365 8.72094 16.2915 8.65674 16.4531 8.65674Z" fill="#F5F5F5" fill-opacity="0.9"/>
</svg>
