<svg width="42" height="42" viewBox="0 0 42 42" fill="none" xmlns="http://www.w3.org/2000/svg">
<path d="M40.9315 14.2649L21.244 6.57738C21.0876 6.51652 20.9132 6.51652 20.7567 6.57738L1.06922 14.2649C0.947335 14.3124 0.842833 14.3945 0.769216 14.5005C0.6956 14.6066 0.65625 14.7317 0.65625 14.8599C0.65625 14.988 0.6956 15.1131 0.769216 15.2192C0.842833 15.3253 0.947335 15.4073 1.06922 15.4548L7.87536 18.1126V31.5161C7.87537 31.6422 7.91353 31.7655 7.98504 31.8705C8.05654 31.9754 8.15822 32.0575 8.27731 32.1063C12.4945 33.84 16.7757 34.7192 21.0004 34.7192C25.225 34.7192 29.5062 33.84 33.7234 32.1063C33.8425 32.0575 33.9442 31.9754 34.0157 31.8705C34.0872 31.7655 34.1253 31.6422 34.1254 31.5161V18.1126L37.4066 16.8314V21.9876C36.788 22.1435 36.2489 22.5144 35.8903 23.0306C35.5317 23.5468 35.3783 24.1729 35.4588 24.7916C35.5393 25.4104 35.8482 25.9792 36.3276 26.3915C36.807 26.8038 37.424 27.0312 38.0629 27.0312C38.7018 27.0312 39.3187 26.8038 39.7981 26.3915C40.2775 25.9792 40.5864 25.4104 40.6669 24.7916C40.7474 24.1729 40.594 23.5468 40.2354 23.0306C39.8769 22.5144 39.3377 22.1435 38.7191 21.9876V16.3189L40.9315 15.4548C41.0534 15.4073 41.1579 15.3253 41.2315 15.2192C41.3051 15.1131 41.3445 14.988 41.3445 14.8599C41.3445 14.7317 41.3051 14.6066 41.2315 14.5005C41.1579 14.3945 41.0534 14.3124 40.9315 14.2649ZM32.8129 31.0877C28.8877 32.6476 24.9157 33.438 21.0004 33.438C17.085 33.438 13.1131 32.6476 9.18786 31.0877V18.6251L20.7567 23.1423C20.9132 23.2032 21.0876 23.2032 21.244 23.1423L32.8129 18.6251V31.0877ZM39.3754 24.4692C39.3754 24.7226 39.2984 24.9704 39.1542 25.1811C39.0099 25.3918 38.805 25.556 38.5651 25.653C38.3253 25.7499 38.0614 25.7753 37.8068 25.7259C37.5522 25.6764 37.3183 25.5544 37.1348 25.3752C36.9512 25.196 36.8262 24.9677 36.7756 24.7192C36.7249 24.4707 36.7509 24.213 36.8503 23.9789C36.9496 23.7448 37.1178 23.5447 37.3337 23.4039C37.5495 23.2631 37.8033 23.188 38.0629 23.188C38.4108 23.1884 38.7444 23.3236 38.9904 23.5637C39.2365 23.8039 39.3749 24.1296 39.3754 24.4692ZM21.0004 21.8571L3.07981 14.8599L21.0004 7.86263L38.9209 14.8599L21.0004 21.8571Z" fill="#F5F5F5" fill-opacity="0.9"/>
</svg>
