<svg width="37" height="38" viewBox="0 0 37 38" fill="none" xmlns="http://www.w3.org/2000/svg">
<g clip-path="url(#clip0_720_10352)">
<path d="M23.6912 21.9228L23.4807 22.1333C23.1698 22.444 22.9989 22.8584 22.9989 23.2999C22.9989 23.7413 23.1698 24.1557 23.4807 24.4664L25.1071 26.0928C25.4287 26.4144 25.8512 26.5754 26.2737 26.5754C26.6963 26.5754 27.1188 26.4146 27.4404 26.0929L35.3219 18.2112C35.9648 17.568 35.9648 16.5214 35.3219 15.8783L33.6953 14.2518C33.3847 13.9411 32.9703 13.7699 32.5286 13.7699C32.0868 13.7699 31.6728 13.9409 31.3622 14.2517L31.1517 14.4622C26.2943 11.0044 25.523 10.2331 22.0648 5.37573L22.2753 5.16522C22.5862 4.85448 22.7571 4.44011 22.7571 3.99857C22.7571 3.55702 22.5862 3.14258 22.2753 2.83191L20.649 1.20557C20.3381 0.89483 19.924 0.723633 19.4823 0.723633C19.0407 0.723633 18.6266 0.89483 18.3157 1.20557L10.4345 9.08686C10.1236 9.3976 9.95268 9.81197 9.95268 10.2535C9.95268 10.6951 10.1236 11.1095 10.4345 11.4202L12.0608 13.0468C12.3824 13.3682 12.8049 13.529 13.2275 13.529C13.65 13.529 14.0725 13.3682 14.3941 13.0466L14.6046 12.8361C15.9207 13.7731 16.9393 14.5142 17.7897 15.191L0.627815 31.549C0.247625 31.9115 0.0317678 32.3721 0.00315061 32.8814C-0.026117 33.4076 0.148983 33.8762 0.509371 34.2365L2.29094 36.0178C2.62524 36.3526 3.05298 36.5274 3.53412 36.5274C3.57127 36.5274 3.60834 36.5264 3.64613 36.5243C4.15524 36.4957 4.61587 36.2797 4.97849 35.8993L21.3361 18.7376C22.0129 19.588 22.7542 20.6065 23.6912 21.9228ZM32.5286 14.77C32.7031 14.77 32.8662 14.837 32.9882 14.9589L34.6148 16.5854C34.8681 16.8387 34.8681 17.2509 34.6148 17.5044L26.7333 25.3857C26.4804 25.639 26.0676 25.6393 25.814 25.3857L24.1877 23.7594C23.9344 23.5059 23.9344 23.0937 24.1877 22.8403L32.0693 14.9588C32.191 14.837 32.3541 14.77 32.5286 14.77ZM12.7678 12.3397L11.1415 10.7132C11.0197 10.5913 10.9523 10.428 10.9523 10.2536C10.9523 10.0791 11.0197 9.91604 11.1415 9.79413L19.0227 1.91269C19.1493 1.78608 19.316 1.72256 19.4823 1.72256C19.6486 1.72256 19.8153 1.78601 19.9419 1.91269L21.5682 3.53903C21.69 3.66094 21.7573 3.82419 21.7573 3.99864C21.7573 4.17309 21.69 4.33619 21.5682 4.4581L14.2092 11.8173C14.2088 11.8177 14.2084 11.8182 14.208 11.8186L13.6871 12.3395C13.4338 12.593 13.0211 12.5929 12.7678 12.3397ZM21.3478 6.09282C24.7509 10.8652 25.6621 11.7763 30.4346 15.1794L24.4082 21.2058C21.0048 16.4332 20.0936 15.5221 15.3216 12.1192L21.3478 6.09282ZM4.25447 35.2094C4.06535 35.408 3.8479 35.5114 3.59042 35.526C3.34594 35.539 3.15812 35.471 2.99798 35.311L1.21642 33.5296C1.05628 33.3694 0.988203 33.1812 1.00193 32.9371C1.01624 32.6793 1.11944 32.462 1.31802 32.2731L18.5663 15.8325C19.3568 16.5111 20.0162 17.1704 20.6948 17.961L4.25447 35.2094ZM36.9797 35.8866L36.1015 32.8947C35.8918 32.1804 35.2506 31.7002 34.5058 31.7002H21.9485C21.2037 31.7002 20.5624 32.1804 20.3528 32.8947L19.4745 35.8866C19.4302 36.0376 19.4596 36.2009 19.554 36.327C19.6483 36.4532 19.7968 36.5274 19.9544 36.5274H36.5C36.6575 36.5274 36.8059 36.4532 36.9004 36.327C36.9947 36.2009 37.024 36.0376 36.9797 35.8866ZM20.6223 35.5273L21.3124 33.1761C21.397 32.887 21.6467 32.7002 21.9485 32.7002H34.5058C34.8076 32.7002 35.0573 32.887 35.1419 33.1762L35.832 35.5273H20.6223Z" fill="#F5F5F5" fill-opacity="0.9"/>
</g>
<defs>
<clipPath id="clip0_720_10352">
<rect width="37" height="37" fill="white" transform="translate(0 0.125488)"/>
</clipPath>
</defs>
</svg>
