<svg width="38" height="39" viewBox="0 0 38 39" fill="none" xmlns="http://www.w3.org/2000/svg">
<path d="M14.4708 37.0984H2.06838C1.99534 37.0985 1.92313 37.0829 1.85658 37.0528C1.79002 37.0227 1.73066 36.9787 1.68244 36.9239C1.63423 36.869 1.59828 36.8045 1.57698 36.7346C1.55569 36.6647 1.54956 36.5911 1.55898 36.5187L4.56509 13.3674C4.58117 13.2438 4.64167 13.1303 4.7353 13.048C4.82894 12.9657 4.94932 12.9202 5.07398 12.9202H11.4647C11.5894 12.9201 11.7099 12.9655 11.8036 13.0478C11.8974 13.1301 11.958 13.2437 11.9741 13.3674L14.9802 36.5187C14.9896 36.5911 14.9835 36.6647 14.9622 36.7346C14.9409 36.8045 14.9049 36.869 14.8567 36.9239C14.8085 36.9787 14.7491 37.0227 14.6826 37.0528C14.616 37.0829 14.5438 37.0985 14.4708 37.0984ZM2.65276 36.0714H13.8864L11.0138 13.9472H5.52536L2.65276 36.0714Z" fill="#F5F5F5" fill-opacity="0.9"/>
<path d="M11.957 17.6974H4.58187C4.44568 17.6974 4.31507 17.6433 4.21876 17.547C4.12246 17.4507 4.06836 17.3201 4.06836 17.1839C4.06836 17.0477 4.12246 16.9171 4.21876 16.8208C4.31507 16.7245 4.44568 16.6704 4.58187 16.6704H11.957C12.0931 16.6704 12.2238 16.7245 12.3201 16.8208C12.4164 16.9171 12.4705 17.0477 12.4705 17.1839C12.4705 17.3201 12.4164 17.4507 12.3201 17.547C12.2238 17.6433 12.0931 17.6974 11.957 17.6974Z" fill="#F5F5F5" fill-opacity="0.9"/>
<path d="M12.3013 20.3964H4.23812C4.10193 20.3964 3.97132 20.3423 3.87501 20.246C3.77871 20.1497 3.72461 20.0191 3.72461 19.8829C3.72461 19.7467 3.77871 19.6161 3.87501 19.5198C3.97132 19.4235 4.10193 19.3694 4.23812 19.3694H12.3003C12.4365 19.3694 12.5671 19.4235 12.6634 19.5198C12.7597 19.6161 12.8138 19.7467 12.8138 19.8829C12.8138 20.0191 12.7597 20.1497 12.6634 20.246C12.5671 20.3423 12.4365 20.3964 12.3003 20.3964H12.3013Z" fill="#F5F5F5" fill-opacity="0.9"/>
<path d="M11.4809 14.0266C11.3593 14.027 11.2416 13.9842 11.1486 13.9059C11.0556 13.8276 10.9934 13.7189 10.9731 13.599C10.9528 13.4792 10.9756 13.356 11.0376 13.2514C11.0995 13.1468 11.1966 13.0676 11.3114 13.0279C11.7615 12.8779 12.1643 12.6126 12.4797 12.2582C12.795 11.9039 13.0119 11.4731 13.1087 11.0087C13.124 10.9288 13.1581 10.8536 13.2082 10.7894C13.2583 10.7252 13.3229 10.6738 13.3967 10.6395C13.4705 10.6052 13.5515 10.5889 13.6328 10.592C13.7142 10.5952 13.7936 10.6176 13.8646 10.6575C14.1054 10.7963 14.3722 10.8841 14.6483 10.9154C14.9245 10.9466 15.2042 10.9207 15.4699 10.8392C15.7356 10.7577 15.9817 10.6224 16.1928 10.4416C16.404 10.2609 16.5757 10.0386 16.6972 9.78861C16.7345 9.71726 16.7882 9.6557 16.8537 9.60891C16.9193 9.56212 16.995 9.53141 17.0746 9.51926C17.1542 9.50711 17.2356 9.51387 17.3121 9.53898C17.3887 9.5641 17.4582 9.60687 17.5152 9.66383C17.7412 9.89494 18.0108 10.079 18.3083 10.2053C18.6059 10.3316 18.9256 10.3977 19.2488 10.3997C19.935 10.3809 20.5857 10.0909 21.0586 9.59333C21.5314 9.09574 21.7879 8.43107 21.7717 7.74483C21.7694 7.52364 21.7408 7.3035 21.6865 7.08907C21.6666 7.00517 21.6682 6.91762 21.6911 6.8345C21.714 6.75137 21.7575 6.67535 21.8175 6.61345C21.8775 6.55154 21.9521 6.50574 22.0345 6.48028C22.1169 6.45481 22.2043 6.45049 22.2888 6.46772H22.2939C22.7225 6.45907 23.1306 6.28244 23.4302 5.97588C23.7299 5.66931 23.8971 5.25734 23.896 4.82866C23.8948 4.39999 23.7254 3.98891 23.4241 3.68395C23.1228 3.37899 22.7138 3.20455 22.2852 3.19818C21.9817 3.19892 21.6846 3.28601 21.4287 3.44929C21.3708 3.48593 21.3061 3.51061 21.2385 3.52187C21.1709 3.53313 21.1017 3.53074 21.0351 3.51486C20.9684 3.49897 20.9056 3.4699 20.8503 3.42936C20.7951 3.38882 20.7485 3.33763 20.7134 3.2788C20.5355 2.96006 20.2792 2.692 19.9687 2.5C19.6582 2.30801 19.3039 2.19845 18.9393 2.18168C18.5746 2.16492 18.2118 2.24151 17.885 2.40421C17.5582 2.5669 17.2784 2.81032 17.072 3.1114C17.0318 3.16691 16.9809 3.21381 16.9223 3.24933C16.8637 3.28485 16.7985 3.30828 16.7307 3.31824C16.6629 3.32819 16.5938 3.32447 16.5274 3.30729C16.4611 3.29011 16.3988 3.25982 16.3444 3.21821C15.9209 2.88828 15.4002 2.70773 14.8634 2.70469C14.3095 2.71271 13.7738 2.90326 13.3393 3.24679C12.9048 3.59032 12.5958 4.06763 12.4602 4.60469C12.4393 4.67882 12.4021 4.74731 12.3511 4.80509C12.3002 4.86287 12.237 4.90847 12.1661 4.9385C12.0952 4.96853 12.0184 4.98223 11.9415 4.97858C11.8646 4.97493 11.7895 4.95403 11.7217 4.91742C11.2904 4.67821 10.8058 4.55142 10.3126 4.54872C9.58261 4.52429 8.8726 4.78991 8.33786 5.28751C7.80311 5.78511 7.48715 6.47419 7.45905 7.2041C7.46434 7.69847 7.6143 8.18047 7.8904 8.59059C7.94244 8.66966 7.97161 8.76157 7.97469 8.85618C7.97778 8.95079 7.95465 9.04441 7.90786 9.12669L7.82878 9.27151C7.78415 9.35007 7.71958 9.41546 7.64158 9.46108C7.56359 9.5067 7.47495 9.53094 7.38459 9.53134C6.97865 9.53365 6.58388 9.66453 6.25696 9.90518C5.93004 10.1458 5.68778 10.4839 5.56497 10.8708C5.44215 11.2577 5.4451 11.6736 5.57339 12.0588C5.70167 12.4439 5.9487 12.7785 6.279 13.0145C6.39006 13.0929 6.46549 13.2122 6.48877 13.3461C6.51204 13.48 6.48125 13.6177 6.40315 13.729C6.32504 13.8403 6.206 13.9161 6.07213 13.9397C5.93825 13.9633 5.80046 13.9329 5.68897 13.8551C5.22585 13.527 4.8673 13.0722 4.65639 12.5453C4.44548 12.0184 4.39118 11.4418 4.50001 10.8847C4.60885 10.3277 4.87619 9.81394 5.26992 9.40516C5.66366 8.99638 6.16704 8.70996 6.71959 8.58032C6.5297 8.14627 6.43095 7.67786 6.42946 7.2041C6.45756 6.20179 6.88173 5.25147 7.60908 4.56127C8.33644 3.87107 9.30767 3.49725 10.3101 3.52169C10.7752 3.52365 11.2363 3.60815 11.6719 3.77126C11.9437 3.15095 12.3896 2.62287 12.9557 2.25113C13.5218 1.8794 14.1836 1.68 14.8608 1.67715C15.4558 1.67791 16.0401 1.8348 16.5554 2.13213C16.8486 1.82348 17.2013 1.57751 17.5922 1.4091C17.9831 1.2407 18.4041 1.15335 18.8298 1.15234C19.3083 1.15309 19.7805 1.26181 20.2112 1.4704C20.6419 1.67898 21.02 1.98206 21.3172 2.35705C21.6243 2.23424 21.952 2.17114 22.2826 2.17115C22.9452 2.17164 23.5839 2.41908 24.0738 2.86514C24.5638 3.31121 24.8699 3.92388 24.9324 4.58353C24.9949 5.24318 24.8093 5.90243 24.4118 6.43258C24.0143 6.96272 23.4335 7.32568 22.7828 7.45059C22.7915 7.5497 22.7962 7.64726 22.7962 7.74483C22.8123 8.70342 22.4476 9.62929 21.7822 10.3195C21.1167 11.0096 20.2048 11.4078 19.2462 11.4267C18.5347 11.4261 17.841 11.2039 17.2615 10.791C16.8773 11.2786 16.3536 11.6375 15.7601 11.8198C15.1667 12.0021 14.5318 11.9991 13.9401 11.8113C13.739 12.3195 13.4302 12.7781 13.035 13.1555C12.6397 13.5328 12.1673 13.8201 11.6504 13.9974C11.5959 14.0166 11.5386 14.0265 11.4809 14.0266Z" fill="#F5F5F5" fill-opacity="0.9"/>
<path d="M28.1679 37.0985H18.501C18.428 37.0985 18.3557 37.0829 18.2892 37.0528C18.2226 37.0227 18.1633 36.9788 18.1151 36.9239C18.0668 36.869 18.0309 36.8045 18.0096 36.7346C17.9883 36.6648 17.9822 36.5912 17.9916 36.5187L20.3353 18.4744C20.3513 18.3507 20.4119 18.2372 20.5055 18.1549C20.5991 18.0726 20.7195 18.0272 20.8442 18.0271H25.8252C25.95 18.0271 26.0705 18.0724 26.1642 18.1547C26.258 18.237 26.3185 18.3507 26.3346 18.4744L28.6773 36.5187C28.6867 36.5912 28.6806 36.6648 28.6593 36.7346C28.638 36.8045 28.602 36.869 28.5538 36.9239C28.5056 36.9788 28.4462 37.0227 28.3797 37.0528C28.3131 37.0829 28.2409 37.0985 28.1679 37.0985ZM19.0854 36.0714H27.583L25.3749 19.0541H21.295L19.0854 36.0714Z" fill="#F5F5F5" fill-opacity="0.9"/>
<path d="M26.2081 21.977H20.4598C20.3236 21.977 20.193 21.9229 20.0967 21.8266C20.0004 21.7303 19.9463 21.5997 19.9463 21.4635C19.9463 21.3273 20.0004 21.1967 20.0967 21.1004C20.193 21.0041 20.3236 20.95 20.4598 20.95H26.2081C26.3443 20.95 26.4749 21.0041 26.5712 21.1004C26.6675 21.1967 26.7216 21.3273 26.7216 21.4635C26.7216 21.5997 26.6675 21.7303 26.5712 21.8266C26.4749 21.9229 26.3443 21.977 26.2081 21.977Z" fill="#F5F5F5" fill-opacity="0.9"/>
<path d="M26.4766 24.0803H20.1922C20.056 24.0803 19.9254 24.0262 19.8291 23.9299C19.7328 23.8335 19.6787 23.7029 19.6787 23.5667C19.6787 23.4305 19.7328 23.2999 19.8291 23.2036C19.9254 23.1073 20.056 23.0532 20.1922 23.0532H26.4766C26.6128 23.0532 26.7434 23.1073 26.8397 23.2036C26.936 23.2999 26.9901 23.4305 26.9901 23.5667C26.9901 23.7029 26.936 23.8335 26.8397 23.9299C26.7434 24.0262 26.6128 24.0803 26.4766 24.0803Z" fill="#F5F5F5" fill-opacity="0.9"/>
<path d="M25.8373 19.1163C25.716 19.1163 25.5986 19.0733 25.5059 18.9951C25.4133 18.9168 25.3513 18.8083 25.331 18.6887C25.3107 18.5691 25.3334 18.4462 25.395 18.3417C25.4567 18.2373 25.5533 18.158 25.6678 18.118C25.9996 18.0071 26.2965 17.8113 26.529 17.55C26.7615 17.2887 26.9216 16.9711 26.9932 16.6288C27.0084 16.5488 27.0425 16.4735 27.0925 16.4093C27.1426 16.345 27.2072 16.2936 27.281 16.2592C27.3549 16.2248 27.4358 16.2085 27.5172 16.2116C27.5986 16.2147 27.6781 16.2372 27.7491 16.277C27.9235 16.3785 28.1171 16.4428 28.3176 16.4658C28.5181 16.4889 28.7211 16.4702 28.9141 16.411C29.107 16.3518 29.2855 16.2533 29.4386 16.1217C29.5916 15.9901 29.7157 15.8283 29.8032 15.6464C29.8405 15.5751 29.8941 15.5136 29.9596 15.4668C30.0251 15.4201 30.1007 15.3893 30.1802 15.3771C30.2598 15.3649 30.3411 15.3716 30.4176 15.3966C30.4941 15.4217 30.5637 15.4643 30.6207 15.5211C30.7861 15.6906 30.9833 15.8257 31.2011 15.9186C31.4188 16.0116 31.6528 16.0606 31.8896 16.0629C32.3943 16.0483 32.8727 15.8342 33.2199 15.4676C33.5672 15.101 33.755 14.6117 33.7423 14.1069C33.7406 13.9432 33.7192 13.7803 33.6786 13.6217C33.6588 13.5378 33.6604 13.4502 33.6833 13.3671C33.7062 13.284 33.7497 13.2079 33.8097 13.146C33.8697 13.0841 33.9443 13.0383 34.0267 13.0129C34.1091 12.9874 34.1965 12.9831 34.281 13.0003C34.5892 12.997 34.8835 12.8713 35.099 12.651C35.3146 12.4308 35.4338 12.1338 35.4305 11.8256C35.4272 11.5174 35.3015 11.2232 35.0812 11.0076C34.8609 10.792 34.564 10.6728 34.2558 10.6761C34.0409 10.6768 33.8305 10.7386 33.6494 10.8543C33.5915 10.8911 33.5268 10.9159 33.4592 10.9272C33.3915 10.9385 33.3223 10.9362 33.2556 10.9204C33.1889 10.9045 33.126 10.8755 33.0707 10.835C33.0154 10.7944 32.9687 10.7432 32.9335 10.6844C32.7952 10.443 32.5962 10.242 32.3562 10.1013C32.1163 9.96061 31.8437 9.88509 31.5655 9.88225C31.3134 9.88489 31.0655 9.94796 30.8428 10.0662C30.62 10.1844 30.4289 10.3543 30.2854 10.5616C30.2452 10.6172 30.1943 10.6641 30.1357 10.6997C30.0771 10.7353 30.012 10.7587 29.9442 10.7687C29.8763 10.7788 29.8072 10.7751 29.7408 10.7579C29.6745 10.7408 29.6122 10.7105 29.5577 10.669C29.2477 10.426 28.866 10.2925 28.4721 10.2895C28.0651 10.2959 27.6715 10.4366 27.3526 10.6896C27.0336 10.9426 26.8071 11.2939 26.7082 11.6888C26.6873 11.7629 26.65 11.8313 26.5991 11.889C26.5481 11.9468 26.4849 11.9923 26.414 12.0223C26.3431 12.0522 26.2664 12.0659 26.1895 12.0622C26.1126 12.0585 26.0375 12.0376 25.9698 12.001C25.6498 11.8238 25.2905 11.7299 24.9248 11.7278C24.3859 11.7088 23.8614 11.9038 23.466 12.2704C23.0705 12.6369 22.8362 13.145 22.8142 13.6838C22.8184 14.0466 22.9287 14.4003 23.1316 14.7011C23.1836 14.7801 23.2128 14.872 23.2159 14.9667C23.219 15.0613 23.1958 15.1549 23.1491 15.2372L23.0874 15.3507C23.0425 15.4286 22.9778 15.4933 22.8999 15.5384C22.8221 15.5834 22.7337 15.6072 22.6438 15.6074C22.3512 15.609 22.0666 15.7033 21.8309 15.8767C21.5953 16.0502 21.4207 16.2939 21.3323 16.5729C21.2439 16.8518 21.2463 17.1516 21.339 17.4291C21.4317 17.7067 21.61 17.9477 21.8483 18.1175C21.9035 18.1562 21.9505 18.2055 21.9867 18.2625C22.0229 18.3194 22.0474 18.3829 22.0591 18.4494C22.0707 18.5158 22.0691 18.5839 22.0544 18.6497C22.0397 18.7156 22.0121 18.7779 21.9734 18.833C21.9346 18.8882 21.8853 18.9353 21.8284 18.9714C21.7714 19.0076 21.7079 19.0322 21.6415 19.0438C21.575 19.0554 21.5069 19.0538 21.4411 19.0391C21.3753 19.0244 21.313 18.9969 21.2578 18.9581C20.888 18.6963 20.5995 18.3356 20.4254 17.9173C20.2512 17.499 20.1985 17.0401 20.2732 16.5933C20.348 16.1464 20.5471 15.7296 20.8479 15.3908C21.1486 15.0519 21.5388 14.8047 21.9736 14.6774C21.8512 14.3595 21.788 14.0219 21.7872 13.6812C21.8091 12.8701 22.1517 12.1007 22.7398 11.5415C23.3278 10.9824 24.1136 10.6792 24.9248 10.6982C25.266 10.6994 25.6048 10.7556 25.9282 10.8646C26.1587 10.3852 26.5196 9.98041 26.9695 9.6966C27.4194 9.41279 27.9402 9.26144 28.4721 9.25987C28.9259 9.26023 29.3726 9.37278 29.7724 9.5875C30.251 9.11787 30.8949 8.85492 31.5655 8.85522C31.9415 8.85564 32.3128 8.93795 32.6537 9.09643C32.9946 9.2549 33.2968 9.48574 33.5395 9.77287C33.7703 9.69081 34.0134 9.64895 34.2584 9.64912C34.7947 9.64885 35.3124 9.84544 35.7133 10.2016C36.1142 10.5577 36.3705 11.0487 36.4335 11.5812C36.4964 12.1138 36.3617 12.651 36.0548 13.0908C35.748 13.5306 35.2904 13.8425 34.7688 13.9673C34.7688 14.014 34.7719 14.0602 34.7719 14.1069C34.7844 14.8845 34.488 15.6352 33.9476 16.1945C33.4072 16.7537 32.6671 17.0757 31.8896 17.0899C31.3473 17.0896 30.8169 16.9305 30.3639 16.6324C30.0574 16.9902 29.6557 17.2537 29.2053 17.3923C28.755 17.5308 28.2746 17.5387 27.82 17.415C27.6498 17.8039 27.4008 18.1533 27.0887 18.4411C26.7766 18.7289 26.4082 18.9488 26.0068 19.087C25.9523 19.1061 25.895 19.116 25.8373 19.1163Z" fill="#F5F5F5" fill-opacity="0.9"/>
</svg>
