<svg width="36" height="37" viewBox="0 0 36 37" fill="none" xmlns="http://www.w3.org/2000/svg">
<g clip-path="url(#clip0_720_10354)">
<path d="M18 5.18799C18.1492 5.18799 18.2923 5.12873 18.3977 5.02324C18.5032 4.91775 18.5625 4.77467 18.5625 4.62549V0.687988C18.5625 0.538804 18.5032 0.39573 18.3977 0.290241C18.2923 0.184752 18.1492 0.125488 18 0.125488C17.8508 0.125488 17.7077 0.184752 17.6023 0.290241C17.4968 0.39573 17.4375 0.538804 17.4375 0.687988V4.62549C17.4375 4.77467 17.4968 4.91775 17.6023 5.02324C17.7077 5.12873 17.8508 5.18799 18 5.18799Z" fill="#F5F5F5" fill-opacity="0.9"/>
<path d="M12.8547 5.6324C12.8942 5.7409 12.9662 5.83463 13.0608 5.90086C13.1554 5.96709 13.268 6.00262 13.3835 6.00264C13.4491 6.00263 13.5142 5.991 13.5758 5.96827C13.6452 5.94306 13.709 5.90441 13.7635 5.85452C13.818 5.80462 13.8621 5.74447 13.8934 5.67751C13.9246 5.61054 13.9423 5.53808 13.9455 5.46426C13.9487 5.39044 13.9372 5.31672 13.9119 5.24731L13.2382 3.39725C13.1854 3.25941 13.0806 3.14784 12.9463 3.08659C12.812 3.02535 12.659 3.01935 12.5203 3.06988C12.3816 3.12041 12.2684 3.22342 12.205 3.3567C12.1415 3.48999 12.1331 3.64285 12.1813 3.78234L12.8547 5.6324Z" fill="#F5F5F5" fill-opacity="0.9"/>
<path d="M4.32235 10.8784L6.0274 11.8628C6.15662 11.9374 6.31018 11.9576 6.4543 11.919C6.59842 11.8803 6.72129 11.786 6.79589 11.6568C6.87048 11.5276 6.89068 11.374 6.85205 11.2299C6.81342 11.0858 6.71912 10.9629 6.5899 10.8883L4.88485 9.90396C4.82087 9.86703 4.75023 9.84306 4.67698 9.83342C4.60374 9.82378 4.52931 9.82867 4.45795 9.8478C4.38658 9.86692 4.31969 9.89992 4.26108 9.9449C4.20247 9.98988 4.1533 10.046 4.11636 10.1099C4.07943 10.1739 4.05546 10.2446 4.04582 10.3178C4.03619 10.3911 4.04107 10.4655 4.0602 10.5369C4.07933 10.6082 4.11232 10.6751 4.1573 10.7337C4.20228 10.7923 4.25837 10.8415 4.32235 10.8784Z" fill="#F5F5F5" fill-opacity="0.9"/>
<path d="M2.76599 21.3742C2.79895 21.3742 2.83184 21.3713 2.86431 21.3657L4.80286 21.0237C4.94981 20.9977 5.08043 20.9145 5.166 20.7922C5.25157 20.67 5.28507 20.5188 5.25913 20.3718C5.2332 20.2249 5.14995 20.0942 5.0277 20.0087C4.90546 19.9231 4.75422 19.8896 4.60728 19.9155L2.66873 20.2575C2.53014 20.2819 2.40572 20.3573 2.32001 20.4689C2.2343 20.5805 2.19353 20.7201 2.20574 20.8603C2.21795 21.0005 2.28225 21.131 2.38597 21.2261C2.48969 21.3212 2.62528 21.374 2.76599 21.374V21.3742Z" fill="#F5F5F5" fill-opacity="0.9"/>
<path d="M8.89164 28.1055L7.62601 29.6134C7.57708 29.6698 7.53986 29.7353 7.51651 29.8062C7.49316 29.8771 7.48416 29.952 7.49002 30.0264C7.49588 30.1008 7.5165 30.1733 7.55066 30.2396C7.58483 30.306 7.63186 30.3649 7.68902 30.4129C7.74617 30.4609 7.81231 30.4971 7.88358 30.5192C7.95485 30.5414 8.02982 30.5492 8.10413 30.5421C8.17843 30.5351 8.25059 30.5133 8.31638 30.478C8.38218 30.4428 8.4403 30.3948 8.48737 30.3368L9.75299 28.829C9.80193 28.7726 9.83915 28.707 9.8625 28.6362C9.88584 28.5653 9.89485 28.4904 9.88899 28.416C9.88312 28.3416 9.86251 28.2691 9.82834 28.2027C9.79418 28.1364 9.74715 28.0775 9.68999 28.0295C9.63283 27.9815 9.56669 27.9453 9.49542 27.9231C9.42415 27.9009 9.34918 27.8932 9.27488 27.9002C9.20057 27.9073 9.12842 27.9291 9.06262 27.9644C8.99683 27.9996 8.9387 28.0476 8.89164 28.1055Z" fill="#F5F5F5" fill-opacity="0.9"/>
<path d="M8.89164 8.14555C8.9387 8.20348 8.99683 8.25147 9.06262 8.28671C9.12842 8.32195 9.20057 8.34375 9.27488 8.35083C9.34918 8.35791 9.42415 8.35013 9.49542 8.32794C9.56669 8.30575 9.63283 8.26961 9.68999 8.2216C9.74715 8.1736 9.79418 8.1147 9.82834 8.04833C9.86251 7.98197 9.88312 7.90947 9.88899 7.83506C9.89485 7.76065 9.88584 7.68581 9.8625 7.61492C9.83915 7.54402 9.80193 7.47848 9.75299 7.42211L7.22174 4.40582C7.17468 4.34788 7.11655 4.2999 7.05076 4.26465C6.98496 4.22941 6.91281 4.20761 6.8385 4.20053C6.7642 4.19345 6.68923 4.20124 6.61796 4.22342C6.54669 4.24561 6.48055 4.28176 6.42339 4.32976C6.36624 4.37777 6.3192 4.43667 6.28504 4.50303C6.25087 4.5694 6.23026 4.6419 6.22439 4.71631C6.21853 4.79072 6.22754 4.86555 6.25088 4.93645C6.27423 5.00734 6.31146 5.07288 6.36039 5.12925L8.89164 8.14555Z" fill="#F5F5F5" fill-opacity="0.9"/>
<path d="M4.70543 16.3439C4.84609 16.3438 4.9816 16.2909 5.08524 16.1959C5.18889 16.1008 5.25315 15.9703 5.26536 15.8302C5.27757 15.6901 5.23683 15.5504 5.15119 15.4389C5.06554 15.3273 4.9412 15.2518 4.80268 15.2274L0.925035 14.5435C0.778088 14.5175 0.62686 14.5511 0.504619 14.6366C0.382378 14.7222 0.299138 14.8528 0.27321 14.9998C0.247281 15.1467 0.280789 15.2979 0.366362 15.4202C0.451935 15.5424 0.582563 15.6257 0.72951 15.6516L4.60688 16.3354C4.63942 16.341 4.67239 16.3439 4.70543 16.3439Z" fill="#F5F5F5" fill-opacity="0.9"/>
<path d="M6.02743 24.3883L2.61727 26.3571C2.48805 26.4317 2.39375 26.5546 2.35512 26.6987C2.31649 26.8428 2.33669 26.9964 2.41129 27.1256C2.48588 27.2548 2.60875 27.3491 2.75287 27.3877C2.89699 27.4264 3.05055 27.4062 3.17977 27.3316L6.58993 25.3628C6.65392 25.3259 6.71 25.2767 6.75498 25.2181C6.79996 25.1595 6.83296 25.0926 6.85208 25.0212C6.87121 24.9499 6.8761 24.8754 6.86646 24.8022C6.85682 24.7289 6.83285 24.6583 6.79592 24.5943C6.75898 24.5303 6.70981 24.4743 6.6512 24.4293C6.59259 24.3843 6.5257 24.3513 6.45434 24.3322C6.38298 24.313 6.30855 24.3082 6.2353 24.3178C6.16205 24.3274 6.09142 24.3514 6.02743 24.3883Z" fill="#F5F5F5" fill-opacity="0.9"/>
<path d="M22.4244 5.96804C22.486 5.99077 22.5511 6.00241 22.6167 6.00241C22.7322 6.0024 22.8448 5.96687 22.9394 5.90063C23.034 5.8344 23.1059 5.74068 23.1454 5.63218L23.8186 3.78234C23.8669 3.64285 23.8584 3.48999 23.7949 3.3567C23.7315 3.22342 23.6183 3.12041 23.4796 3.06988C23.3409 3.01935 23.1879 3.02535 23.0536 3.08659C22.9193 3.14784 22.8145 3.25941 22.7617 3.39725L22.0883 5.24709C22.0629 5.31649 22.0515 5.39021 22.0547 5.46403C22.0579 5.53785 22.0756 5.61032 22.1068 5.67728C22.1381 5.74425 22.1822 5.8044 22.2367 5.85429C22.2912 5.90418 22.355 5.94284 22.4244 5.96804Z" fill="#F5F5F5" fill-opacity="0.9"/>
<path d="M29.2038 11.6568C29.2784 11.786 29.4013 11.8802 29.5454 11.9189C29.6895 11.9575 29.843 11.9373 29.9723 11.8628L31.6773 10.8784C31.7413 10.8415 31.7974 10.7923 31.8424 10.7337C31.8874 10.6751 31.9204 10.6082 31.9395 10.5369C31.9586 10.4655 31.9635 10.3911 31.9539 10.3178C31.9442 10.2446 31.9203 10.1739 31.8833 10.1099C31.8464 10.046 31.7972 9.98988 31.7386 9.9449C31.68 9.89992 31.6131 9.86692 31.5417 9.8478C31.4704 9.82867 31.396 9.82378 31.3227 9.83342C31.2495 9.84306 31.1788 9.86703 31.1148 9.90396L29.4098 10.8883C29.3458 10.9253 29.2897 10.9744 29.2447 11.033C29.1997 11.0916 29.1667 11.1585 29.1476 11.2299C29.1285 11.3013 29.1236 11.3757 29.1332 11.449C29.1429 11.5222 29.1669 11.5928 29.2038 11.6568Z" fill="#F5F5F5" fill-opacity="0.9"/>
<path d="M33.3312 20.2577L31.3928 19.9158C31.2459 19.8899 31.0947 19.9234 30.9724 20.0089C30.8502 20.0945 30.7669 20.2251 30.741 20.3721C30.7151 20.519 30.7486 20.6702 30.8341 20.7925C30.9197 20.9147 31.0503 20.998 31.1973 21.0239L33.1358 21.3659C33.1683 21.3716 33.2012 21.3744 33.2341 21.3744C33.3748 21.3744 33.5104 21.3216 33.6141 21.2265C33.7179 21.1314 33.7822 21.0009 33.7944 20.8607C33.8066 20.7205 33.7658 20.5809 33.6801 20.4693C33.5944 20.3577 33.47 20.2823 33.3314 20.2579L33.3312 20.2577Z" fill="#F5F5F5" fill-opacity="0.9"/>
<path d="M27.1085 28.1055C27.0614 28.0476 27.0033 27.9996 26.9375 27.9644C26.8717 27.9291 26.7995 27.9073 26.7252 27.9002C26.6509 27.8932 26.5759 27.9009 26.5047 27.9231C26.4334 27.9453 26.3673 27.9815 26.3101 28.0295C26.253 28.0775 26.2059 28.1364 26.1718 28.2027C26.1376 28.2691 26.117 28.3416 26.1111 28.416C26.1052 28.4904 26.1143 28.5653 26.1376 28.6362C26.1609 28.7071 26.1982 28.7726 26.2471 28.829L27.5127 30.3369C27.6095 30.4483 27.7462 30.5173 27.8933 30.5289C28.0404 30.5405 28.1862 30.4938 28.2993 30.3988C28.4123 30.3039 28.4835 30.1684 28.4975 30.0214C28.5115 29.8745 28.4672 29.728 28.3741 29.6134L27.1085 28.1055Z" fill="#F5F5F5" fill-opacity="0.9"/>
<path d="M26.6771 8.3463C26.7593 8.34649 26.8405 8.32861 26.915 8.29391C26.9895 8.25922 27.0555 8.20857 27.1083 8.14554L29.6395 5.12925C29.6885 5.07288 29.7257 5.00734 29.7491 4.93645C29.7724 4.86555 29.7814 4.79072 29.7755 4.71631C29.7697 4.64189 29.7491 4.5694 29.7149 4.50303C29.6807 4.43667 29.6337 4.37777 29.5765 4.32976C29.5194 4.28176 29.4532 4.24561 29.382 4.22342C29.3107 4.20124 29.2357 4.19345 29.1614 4.20053C29.0871 4.20761 29.015 4.22941 28.9492 4.26465C28.8834 4.2999 28.8253 4.34788 28.7782 4.40582L26.2469 7.42211C26.1781 7.50408 26.1341 7.60399 26.1201 7.7101C26.1061 7.81621 26.1226 7.92412 26.1678 8.02116C26.2129 8.11819 26.2848 8.20033 26.3751 8.25792C26.4653 8.31552 26.57 8.34618 26.6771 8.3463Z" fill="#F5F5F5" fill-opacity="0.9"/>
<path d="M35.0749 14.5433L31.1972 15.2273C31.0587 15.2517 30.9344 15.3272 30.8487 15.4387C30.7631 15.5503 30.7223 15.6899 30.7345 15.83C30.7468 15.9702 30.811 16.1006 30.9147 16.1957C31.0183 16.2908 31.1538 16.3436 31.2945 16.3437C31.3274 16.3437 31.3603 16.3409 31.3928 16.3352L35.2704 15.6514C35.4173 15.6254 35.548 15.5422 35.6336 15.4199C35.7191 15.2977 35.7526 15.1465 35.7267 14.9995C35.7008 14.8526 35.6175 14.722 35.4953 14.6364C35.3731 14.5508 35.2218 14.5173 35.0749 14.5432V14.5433Z" fill="#F5F5F5" fill-opacity="0.9"/>
<path d="M33.3824 26.3571L29.9723 24.3883C29.9083 24.3514 29.8376 24.3274 29.7644 24.3178C29.6911 24.3082 29.6167 24.313 29.5453 24.3322C29.474 24.3513 29.4071 24.3843 29.3485 24.4293C29.2899 24.4743 29.2407 24.5303 29.2038 24.5943C29.1668 24.6583 29.1429 24.7289 29.1332 24.8022C29.1236 24.8754 29.1285 24.9499 29.1476 25.0212C29.1667 25.0926 29.1997 25.1595 29.2447 25.2181C29.2897 25.2767 29.3458 25.3259 29.4098 25.3628L32.8199 27.3316C32.9491 27.4062 33.1027 27.4264 33.2468 27.3877C33.3909 27.3491 33.5138 27.2548 33.5884 27.1256C33.663 26.9964 33.6832 26.8428 33.6446 26.6987C33.6059 26.5546 33.5116 26.4317 33.3824 26.3571Z" fill="#F5F5F5" fill-opacity="0.9"/>
<path d="M18.0001 6.31299C15.0174 6.31635 12.1579 7.5027 10.0488 9.61175C7.93976 11.7208 6.75342 14.5803 6.75005 17.563C6.74538 19.0722 7.04755 20.5666 7.63822 21.9554C8.22888 23.3443 9.0957 24.5985 10.186 25.6421C10.6946 26.1189 11.101 26.6942 11.3806 27.3328C11.6602 27.9714 11.8071 28.6602 11.8126 29.3574V32.188C11.8126 32.3372 11.8718 32.4802 11.9773 32.5857C12.0828 32.6912 12.2259 32.7505 12.3751 32.7505H14.1076C14.2418 33.6872 14.7093 34.544 15.4243 35.1639C16.1393 35.7837 17.0538 36.1249 18.0001 36.1249C18.9463 36.1249 19.8608 35.7837 20.5758 35.1639C21.2908 34.544 21.7583 33.6872 21.8926 32.7505H23.6251C23.7742 32.7505 23.9173 32.6912 24.0228 32.5857C24.1283 32.4802 24.1876 32.3372 24.1876 32.188V29.3574C24.193 28.6602 24.3399 27.9714 24.6195 27.3328C24.8991 26.6942 25.3055 26.1189 25.8141 25.6421C26.9044 24.5985 27.7712 23.3443 28.3619 21.9554C28.9526 20.5666 29.2547 19.0722 29.2501 17.563C29.2467 14.5803 28.0603 11.7208 25.9513 9.61175C23.8422 7.5027 20.9827 6.31635 18.0001 6.31299ZM18.0001 35.0005C17.352 34.9996 16.724 34.7754 16.222 34.3655C15.72 33.9557 15.3746 33.3853 15.2441 32.7505H20.756C20.6255 33.3853 20.2801 33.9557 19.7781 34.3655C19.2761 34.7754 18.6481 34.9996 18.0001 35.0005ZM12.9376 31.6255V29.938H23.0626V31.6255H12.9376ZM15.7501 20.938H14.3438C14.0657 20.938 13.7938 20.8555 13.5625 20.701C13.3313 20.5465 13.151 20.3268 13.0446 20.0699C12.9382 19.8129 12.9103 19.5302 12.9646 19.2574C13.0188 18.9846 13.1528 18.734 13.3494 18.5374C13.5461 18.3407 13.7967 18.2068 14.0695 18.1525C14.3422 18.0983 14.625 18.1261 14.882 18.2325C15.1389 18.339 15.3585 18.5192 15.5131 18.7505C15.6676 18.9817 15.7501 19.2536 15.7501 19.5317V20.938ZM19.1251 28.813H16.8751V22.063H19.1251V28.813ZM25.0329 24.8323C23.925 25.8804 23.2349 27.2947 23.0907 28.813H20.2501V22.063H21.6563C22.1569 22.063 22.6463 21.9145 23.0626 21.6364C23.4789 21.3583 23.8033 20.9629 23.9949 20.5004C24.1865 20.0379 24.2366 19.5289 24.1389 19.0379C24.0412 18.5469 23.8002 18.0959 23.4462 17.7419C23.0922 17.3879 22.6411 17.1468 22.1501 17.0491C21.6591 16.9515 21.1502 17.0016 20.6876 17.1932C20.2251 17.3848 19.8298 17.7092 19.5516 18.1255C19.2735 18.5417 19.1251 19.0311 19.1251 19.5317V20.938H16.8751V19.5317C16.8751 19.0311 16.7266 18.5417 16.4485 18.1255C16.1703 17.7092 15.775 17.3848 15.3125 17.1932C14.8499 17.0016 14.341 16.9515 13.85 17.0491C13.359 17.1468 12.9079 17.3879 12.5539 17.7419C12.1999 18.0959 11.9589 18.5469 11.8612 19.0379C11.7635 19.5289 11.8136 20.0379 12.0052 20.5004C12.1968 20.9629 12.5213 21.3583 12.9375 21.6364C13.3538 21.9145 13.8432 22.063 14.3438 22.063H15.7501V28.813H12.9094C12.7652 27.2947 12.0751 25.8804 10.9672 24.8323C9.98604 23.8935 9.20601 22.7649 8.67446 21.5153C8.14291 20.2656 7.87093 18.921 7.87505 17.563C7.87505 14.8777 8.94179 12.3023 10.8406 10.4035C12.7394 8.50473 15.3147 7.43799 18.0001 7.43799C20.6854 7.43799 23.2607 8.50473 25.1595 10.4035C27.0583 12.3023 28.1251 14.8777 28.1251 17.563C28.1292 18.921 27.8572 20.2656 27.3256 21.5153C26.7941 22.7649 26.0141 23.8935 25.0329 24.8323ZM20.2501 20.938V19.5317C20.2501 19.2536 20.3325 18.9817 20.487 18.7505C20.6416 18.5192 20.8612 18.339 21.1182 18.2325C21.3751 18.1261 21.6579 18.0983 21.9306 18.1525C22.2034 18.2068 22.454 18.3407 22.6507 18.5374C22.8473 18.734 22.9813 18.9846 23.0355 19.2574C23.0898 19.5302 23.0619 19.8129 22.9555 20.0699C22.8491 20.3268 22.6688 20.5465 22.4376 20.701C22.2063 20.8555 21.9344 20.938 21.6563 20.938H20.2501Z" fill="#F5F5F5" fill-opacity="0.9"/>
<path d="M26.6506 15.0767C26.1047 13.2029 24.9672 11.556 23.408 10.3819C21.8489 9.20792 19.9517 8.56983 18 8.56299C17.8508 8.56299 17.7077 8.62225 17.6023 8.72774C17.4968 8.83323 17.4375 8.9763 17.4375 9.12549C17.4375 9.27467 17.4968 9.41775 17.6023 9.52324C17.7077 9.62872 17.8508 9.68799 18 9.68799C19.7078 9.69398 21.3679 10.2523 22.7322 11.2796C24.0965 12.3069 25.0919 13.748 25.5696 15.3877C25.6124 15.5291 25.7093 15.648 25.8391 15.7186C25.9689 15.7892 26.1213 15.8059 26.2633 15.7651C26.4054 15.7242 26.5256 15.6291 26.5981 15.5003C26.6706 15.3715 26.6894 15.2194 26.6506 15.0768V15.0767Z" fill="#F5F5F5" fill-opacity="0.9"/>
</g>
<defs>
<clipPath id="clip0_720_10354">
<rect width="36" height="36" fill="white" transform="translate(0 0.125488)"/>
</clipPath>
</defs>
</svg>
