<svg width="37" height="37" viewBox="0 0 37 37" fill="none" xmlns="http://www.w3.org/2000/svg">
<g clip-path="url(#clip0_720_10337)">
<path d="M11.4054 6.12859C11.1698 5.94894 10.829 5.9893 10.6445 6.21859L8.13656 9.33399L6.73866 8.32881C6.49794 8.1557 6.15858 8.2052 5.98066 8.43948C5.80275 8.67369 5.85369 9.00388 6.09441 9.17699L7.91615 10.487C8.15217 10.6567 8.48402 10.6128 8.66497 10.388L11.4979 6.86891C11.6825 6.63962 11.6411 6.30824 11.4054 6.12859Z" fill="#F5F5F5" fill-opacity="0.9"/>
<path d="M4.8769 3.26611C4.00111 3.26611 3.28857 3.95939 3.28857 4.81151V11.9515C3.28857 12.8037 4.00111 13.4969 4.8769 13.4969H12.2153C13.091 13.4969 13.8036 12.8037 13.8036 11.9515V4.81151C13.8036 3.95932 13.091 3.26611 12.2153 3.26611H4.8769ZM12.7197 4.81151V11.9515C12.7197 12.2221 12.4934 12.4422 12.2153 12.4422H4.8769C4.59882 12.4422 4.37256 12.2221 4.37256 11.9515V4.81151C4.37256 4.54088 4.59882 4.3208 4.8769 4.3208H12.2153C12.4934 4.3208 12.7197 4.54088 12.7197 4.81151Z" fill="#F5F5F5" fill-opacity="0.9"/>
<path d="M14.9558 35.0708H3.13716C2.10521 35.0708 1.26563 34.2539 1.26563 33.2498V3.00106C1.26563 1.99707 2.10514 1.18018 3.13716 1.18018H20.7999C20.8729 1.18018 20.9447 1.18728 21.0152 1.19881V4.80886C21.0152 6.39448 22.3411 7.68443 23.9707 7.68443H27.681C27.6929 7.75313 27.7002 7.82295 27.7002 7.89396V12.2777C27.7002 12.5689 27.9428 12.805 28.2422 12.805C28.5415 12.805 28.7842 12.5689 28.7842 12.2777V7.89396C28.7842 7.27796 28.5376 6.69872 28.0899 6.26314L22.476 0.800981C22.0283 0.365395 21.433 0.125488 20.7998 0.125488H3.13716C1.50743 0.125488 0.181641 1.41551 0.181641 3.00106V33.2498C0.181641 34.8355 1.50743 36.1255 3.13716 36.1255H14.9558C15.2552 36.1255 15.4978 35.8894 15.4978 35.5981C15.4978 35.3069 15.2552 35.0708 14.9558 35.0708ZM26.9337 6.62982H23.9707C22.9387 6.62982 22.0992 5.81293 22.0992 4.80893V1.92598L26.9337 6.62982Z" fill="#F5F5F5" fill-opacity="0.9"/>
<path d="M34.1033 29.3763H30.7945C30.1726 27.7578 28.9186 27.2086 28.9186 24.9964V24.9839C28.9186 23.7282 29.3504 22.5278 30.1344 21.6039C32.6974 18.5839 30.5636 14.0243 26.6019 13.8466C22.3676 13.6557 19.9876 18.4074 22.5571 21.5415C23.3747 22.5389 23.8251 23.7589 23.8251 24.9767V24.9964C23.8251 27.21 22.5685 27.7642 21.9491 29.3763H18.6402C17.1432 29.3763 15.9253 30.5613 15.9253 32.0179V33.1708C15.9253 33.6942 16.3075 34.1322 16.8147 34.2349V34.7985C16.8147 35.5302 17.4265 36.1254 18.1785 36.1254H34.5652C35.3172 36.1254 35.929 35.5302 35.929 34.7985V34.2349C36.4361 34.1322 36.8184 33.6942 36.8184 33.1708V32.0179C36.8182 30.5613 35.6003 29.3763 34.1033 29.3763ZM24.909 24.9964V24.9767C24.909 23.5208 24.3747 22.0672 23.4045 20.8838C21.406 18.4461 23.2571 14.7523 26.552 14.9002C29.6303 15.0382 31.2915 18.5838 29.2986 20.9324C28.3545 22.0449 27.8346 23.4837 27.8346 24.9839V24.9964C27.8346 27.3653 29.1195 28.3546 29.6188 29.3763H23.1248C23.6268 28.3491 24.909 27.3698 24.909 24.9964ZM17.0093 32.0179C17.0093 31.1428 17.741 30.431 18.6402 30.431H34.1033C35.0026 30.431 35.7342 31.1429 35.7342 32.0179V33.1708C35.7342 33.1886 35.7194 33.203 35.7011 33.203H17.0424C17.0242 33.203 17.0093 33.1886 17.0093 33.1708V32.0179ZM34.5651 35.0708H18.1784C18.0241 35.0708 17.8986 34.9486 17.8986 34.7985V34.2577H34.8449V34.7985C34.8449 34.9486 34.7194 35.0708 34.5651 35.0708Z" fill="#F5F5F5" fill-opacity="0.9"/>
</g>
<defs>
<clipPath id="clip0_720_10337">
<rect width="37" height="36" fill="white" transform="translate(0 0.125488)"/>
</clipPath>
</defs>
</svg>
