<svg width="35" height="36" viewBox="0 0 35 36" fill="none" xmlns="http://www.w3.org/2000/svg">
<g clip-path="url(#clip0_720_10293)">
<path d="M30.3279 6.54215C30.3293 6.38823 30.2697 6.23999 30.1623 6.12974L24.3289 0.296405C24.2192 0.188197 24.0706 0.128551 23.9165 0.130738V0.125488H6.4165C5.44999 0.125488 4.6665 0.908978 4.6665 1.87549V33.3755C4.6665 34.342 5.44999 35.1255 6.4165 35.1255H28.5832C29.5497 35.1255 30.3332 34.342 30.3332 33.3755V6.54215H30.3279ZM24.4998 2.11699L28.3417 5.95882H25.0832C24.761 5.95882 24.4998 5.69763 24.4998 5.37549V2.11699ZM29.1665 33.3755C29.1665 33.6976 28.9053 33.9588 28.5832 33.9588H6.4165C6.09436 33.9588 5.83317 33.6976 5.83317 33.3755V1.87549C5.83317 1.55334 6.09436 1.29215 6.4165 1.29215H23.3332V5.37549C23.3332 6.342 24.1167 7.12549 25.0832 7.12549H29.1665V33.3755Z" fill="#F5F5F5" fill-opacity="0.9"/>
<path d="M10.5 15.8755C9.53349 15.8755 8.75 16.659 8.75 17.6255C8.75 18.592 9.53349 19.3755 10.5 19.3755C11.4665 19.3755 12.25 18.592 12.25 17.6255C12.25 16.659 11.4665 15.8755 10.5 15.8755ZM10.5 18.2088C10.1779 18.2088 9.91667 17.9476 9.91667 17.6255C9.91667 17.3033 10.1779 17.0422 10.5 17.0422C10.8221 17.0422 11.0833 17.3033 11.0833 17.6255C11.0833 17.9476 10.8221 18.2088 10.5 18.2088Z" fill="#F5F5F5" fill-opacity="0.9"/>
<path d="M26.2497 17.0422H14.583V18.2089H26.2497V17.0422Z" fill="#F5F5F5" fill-opacity="0.9"/>
<path d="M10.5 10.0422C9.53349 10.0422 8.75 10.8257 8.75 11.7922C8.75 12.7587 9.53349 13.5422 10.5 13.5422C11.4665 13.5422 12.25 12.7587 12.25 11.7922C12.25 10.8257 11.4665 10.0422 10.5 10.0422ZM10.5 12.3756C10.1779 12.3756 9.91667 12.1144 9.91667 11.7922C9.91667 11.4701 10.1779 11.2089 10.5 11.2089C10.8221 11.2089 11.0833 11.4701 11.0833 11.7922C11.0833 12.1144 10.8221 12.3756 10.5 12.3756Z" fill="#F5F5F5" fill-opacity="0.9"/>
<path d="M26.2497 11.2087H14.583V12.3754H26.2497V11.2087Z" fill="#F5F5F5" fill-opacity="0.9"/>
<path d="M10.5 21.709C9.53349 21.709 8.75 22.4925 8.75 23.459C8.75 24.4255 9.53349 25.209 10.5 25.209C11.4665 25.209 12.25 24.4255 12.25 23.459C12.25 22.4925 11.4665 21.709 10.5 21.709ZM10.5 24.0423C10.1779 24.0423 9.91667 23.7811 9.91667 23.459C9.91667 23.1368 10.1779 22.8756 10.5 22.8756C10.8221 22.8756 11.0833 23.1368 11.0833 23.459C11.0833 23.7811 10.8221 24.0423 10.5 24.0423Z" fill="#F5F5F5" fill-opacity="0.9"/>
<path d="M26.2497 22.8752H14.583V24.0419H26.2497V22.8752Z" fill="#F5F5F5" fill-opacity="0.9"/>
<path d="M10.5 27.5422C9.53349 27.5422 8.75 28.3257 8.75 29.2922C8.75 30.2587 9.53349 31.0422 10.5 31.0422C11.4665 31.0422 12.25 30.2587 12.25 29.2922C12.25 28.3257 11.4665 27.5422 10.5 27.5422ZM10.5 29.8756C10.1779 29.8756 9.91667 29.6144 9.91667 29.2922C9.91667 28.9701 10.1779 28.7089 10.5 28.7089C10.8221 28.7089 11.0833 28.9701 11.0833 29.2922C11.0833 29.6144 10.8221 29.8756 10.5 29.8756Z" fill="#F5F5F5" fill-opacity="0.9"/>
<path d="M26.2497 28.7087H14.583V29.8754H26.2497V28.7087Z" fill="#F5F5F5" fill-opacity="0.9"/>
</g>
<defs>
<clipPath id="clip0_720_10293">
<rect width="35" height="35" fill="white" transform="translate(0 0.125488)"/>
</clipPath>
</defs>
</svg>
