<svg width="108" height="100" viewBox="0 0 108 100" fill="none" xmlns="http://www.w3.org/2000/svg">
<path d="M103.053 73.9245L106.386 66.2773H81.5193V71.3976H26.5193V66.2773H1.65259L4.98592 73.9245L1.65259 81.5718H12.1193V85.8276H95.9859V81.5718H106.386L103.053 73.9245Z" fill="white"/>
<path d="M16.5194 57.5011L13.786 59.629C14.2527 59.4295 14.6527 59.2965 15.0527 59.1635L16.8527 58.565L17.0527 59.097L13.3861 60.3605L13.1194 59.496L15.7194 57.4346H12.3861L12.1194 56.5701L15.786 55.3066L15.986 55.9051L14.1861 56.5701C13.9861 56.6366 13.786 56.7031 13.4527 56.8361C13.1194 56.9691 12.9861 56.9691 12.9194 56.9691H16.386L16.5194 57.5011Z" fill="#F5F5F5"/>
<path d="M12.8527 51.4481C13.4527 51.3151 13.986 51.3816 14.386 51.5811C14.786 51.7806 15.0527 52.2461 15.186 52.778C15.3194 53.3765 15.2527 53.842 14.986 54.241C14.7194 54.64 14.2527 54.906 13.6527 55.039C13.0527 55.172 12.5194 55.1055 12.1194 54.906C11.7194 54.64 11.4527 54.241 11.3194 53.709C11.186 53.1105 11.2527 52.6451 11.5194 52.3126C11.786 51.8471 12.186 51.5811 12.8527 51.4481ZM13.5194 54.3075C13.986 54.1745 14.3194 54.0415 14.5194 53.7755C14.7194 53.5095 14.786 53.2435 14.7194 52.8445C14.6527 52.4456 14.4527 52.2461 14.186 52.1131C13.9194 51.9801 13.5194 51.9801 13.0527 52.0466C12.586 52.1796 12.2527 52.3126 12.0527 52.5786C11.8527 52.8445 11.786 53.1105 11.8527 53.5095C11.9194 53.9085 12.1194 54.108 12.386 54.241C12.6527 54.4405 13.0527 54.4405 13.5194 54.3075Z" fill="#F5F5F5"/>
<path d="M11.0526 49.0547C11.1193 49.3871 11.2526 49.7196 11.5193 49.8526C11.786 49.9856 12.186 50.1186 12.6526 50.0521C13.1193 49.9856 13.4526 49.8526 13.7193 49.5866C13.9193 49.3871 14.0526 49.0547 13.986 48.6557C13.986 48.5227 13.9193 48.3232 13.8526 48.1902C13.786 48.0572 13.7193 47.8577 13.6526 47.7247L14.186 47.6582C14.3193 47.9242 14.4526 48.2567 14.5193 48.6557C14.586 49.2541 14.4526 49.6531 14.186 50.0521C13.8526 50.3846 13.386 50.5841 12.786 50.7171C12.386 50.7836 12.0526 50.7171 11.7193 50.6506C11.386 50.5176 11.1193 50.3846 10.9193 50.1186C10.7193 49.8526 10.586 49.5201 10.586 49.1877C10.5193 48.7887 10.586 48.3897 10.7193 48.0572L11.2526 48.1902C11.186 48.3232 11.186 48.4562 11.1193 48.6557C11.0526 48.7222 11.0526 48.8552 11.0526 49.0547Z" fill="#F5F5F5"/>
<path d="M14.1194 43.9355V44.667L12.186 46.3295L14.186 46.263V46.9279L10.2527 47.0609V46.396L12.1194 46.3295L10.186 44.8V44.0685L12.1194 45.598L14.1194 43.9355Z" fill="#F5F5F5"/>
<path d="M12.386 39.8789C13.0527 39.9454 13.5194 40.0784 13.8527 40.4109C14.186 40.7434 14.3194 41.2089 14.3194 41.8073C14.3194 42.4058 14.1194 42.8048 13.7194 43.1373C13.3194 43.4033 12.8527 43.5363 12.186 43.5363C11.5194 43.4698 11.0527 43.3368 10.7194 43.0043C10.386 42.6718 10.2527 42.2063 10.2527 41.6078C10.2527 41.0094 10.4527 40.6104 10.8527 40.2779C11.2527 40.0119 11.7194 39.8789 12.386 39.8789ZM12.2527 42.8713C12.7194 42.8713 13.1194 42.8048 13.386 42.6718C13.6527 42.4723 13.786 42.2063 13.786 41.8073C13.786 41.4083 13.7193 41.1424 13.4527 40.9429C13.186 40.7434 12.8527 40.6104 12.386 40.6104C11.9194 40.6104 11.5194 40.6769 11.2527 40.8099C10.986 40.9429 10.8527 41.2753 10.8527 41.6743C10.8527 42.0733 10.9194 42.3393 11.186 42.5388C11.386 42.7383 11.7194 42.8713 12.2527 42.8713Z" fill="#F5F5F5"/>
<path d="M10.5859 38.6812L10.7859 37.5508C10.8526 37.0188 10.9859 36.6198 11.1859 36.4203C11.3859 36.2208 11.6526 36.1543 11.9859 36.1543C12.1859 36.2208 12.3859 36.2873 12.5193 36.4203C12.6526 36.5533 12.7193 36.7528 12.7193 36.9523C12.7859 36.6863 12.9193 36.4868 13.1193 36.4203C13.3193 36.2873 13.5193 36.2873 13.7859 36.3538C14.1193 36.4203 14.3859 36.5533 14.5193 36.8193C14.6526 37.0853 14.7193 37.4178 14.6526 37.8832L14.4526 39.2797L10.5859 38.6812ZM12.2526 38.2822L12.3193 37.6837C12.3859 37.4178 12.3193 37.2183 12.2526 37.0853C12.1859 36.9523 12.0526 36.8858 11.8526 36.8193C11.6526 36.8193 11.5193 36.8193 11.4526 36.9523C11.3193 37.0853 11.2526 37.2848 11.2526 37.5508L11.1859 38.0827L12.2526 38.2822ZM12.7859 38.3487L13.9859 38.5482L14.1193 37.8832C14.1859 37.6173 14.1193 37.4178 14.0526 37.2848C13.9859 37.1518 13.8526 37.0188 13.5859 37.0188C13.3859 37.0188 13.2526 37.0188 13.1193 37.1518C12.9859 37.2848 12.9193 37.4843 12.8526 37.7502L12.7859 38.3487Z" fill="#F5F5F5"/>
<path d="M12.1194 33.361C12.0528 33.6935 12.1194 34.026 12.3194 34.292C12.5194 34.558 12.8528 34.7575 13.3194 34.824C13.7861 34.957 14.1861 34.957 14.4528 34.7575C14.7194 34.6245 14.9194 34.3585 15.0528 34.026C15.1194 33.893 15.1194 33.6935 15.1194 33.5605C15.1194 33.4275 15.1194 33.228 15.1194 33.0285L15.6528 33.1615C15.7194 33.494 15.6528 33.8265 15.5861 34.2255C15.4528 34.7575 15.1861 35.1565 14.7861 35.3559C14.3861 35.5554 13.8528 35.6219 13.2528 35.4224C12.8528 35.356 12.5194 35.1565 12.2528 34.957C11.9861 34.7575 11.7861 34.4915 11.7194 34.159C11.6528 33.8265 11.6528 33.494 11.7194 33.1615C11.7861 32.7625 11.9861 32.4301 12.2528 32.1641L12.7194 32.4966C12.6528 32.6295 12.5194 32.7625 12.4528 32.8955C12.1861 33.095 12.1194 33.228 12.1194 33.361Z" fill="#F5F5F5"/>
<path d="M16.8527 29.7048L16.5861 30.4362L14.1861 31.3007L16.0527 31.9657L15.8527 32.5642L12.1194 31.3007L12.3194 30.7022L14.1194 31.3007L12.8527 29.1728L13.0527 28.5078L14.3194 30.5692L16.8527 29.7048Z" fill="#F5F5F5"/>
<path d="M16.6527 25.3148C17.2527 25.5808 17.586 25.9133 17.786 26.3788C17.986 26.8443 17.986 27.3097 17.7193 27.8417C17.4527 28.3737 17.1193 28.7062 16.6527 28.8392C16.186 28.9722 15.6527 28.9057 15.1193 28.6397C14.586 28.3737 14.1193 28.0412 13.986 27.5757C13.786 27.1767 13.8527 26.6448 14.0527 26.1128C14.3193 25.5808 14.6527 25.2483 15.1193 25.1153C15.586 24.9823 16.0527 25.0488 16.6527 25.3148ZM15.386 28.0412C15.8527 28.2407 16.186 28.3072 16.5193 28.2407C16.8527 28.1742 17.0527 27.9747 17.186 27.5757C17.3193 27.2432 17.3193 26.9108 17.186 26.6448C17.0527 26.3788 16.7193 26.1128 16.3193 25.9133C15.8527 25.7138 15.5193 25.6473 15.186 25.7138C14.8527 25.7803 14.6527 25.9798 14.5193 26.3123C14.386 26.6448 14.386 26.9773 14.5193 27.2432C14.6527 27.6422 14.986 27.8417 15.386 28.0412Z" fill="#F5F5F5"/>
<path d="M19.9193 23.5202L18.8527 25.4486L15.386 23.5202L16.4527 21.5918L16.9193 21.8578L16.186 23.2542L17.1193 23.7862L17.8527 22.5228L18.3193 22.7887L17.586 24.0522L18.6527 24.6507L19.386 23.2542L19.9193 23.5202Z" fill="#F5F5F5"/>
<path d="M19.2528 17.6016L19.7194 17.934L18.7194 19.264L21.4528 21.1924L21.0528 21.7244L17.8528 19.4635L19.2528 17.6016Z" fill="#F5F5F5"/>
<path d="M23.5194 15.5399C23.9861 15.9389 24.2528 16.4044 24.3194 16.8698C24.3861 17.3353 24.1861 17.8008 23.8528 18.2663C23.4527 18.7318 23.0527 18.9313 22.5861 18.9313C22.1194 18.9313 21.6527 18.7318 21.1194 18.3328C20.6527 17.9338 20.3861 17.4683 20.3194 17.0028C20.2527 16.5373 20.4527 16.0719 20.7861 15.6064C21.1861 15.1409 21.5861 14.9414 22.0527 14.9414C22.5194 14.9414 23.0527 15.0744 23.5194 15.5399ZM21.5861 17.8008C21.9194 18.1333 22.3194 18.2663 22.5861 18.2663C22.8527 18.2663 23.1861 18.1333 23.4527 17.8673C23.7194 17.6013 23.7861 17.2688 23.7194 17.0028C23.6527 16.6703 23.4527 16.4044 23.0527 16.0719C22.7194 15.7394 22.3194 15.6064 22.0527 15.6064C21.7861 15.6064 21.4527 15.7394 21.1861 16.0054C20.9194 16.2714 20.8527 16.6038 20.9194 16.9363C20.9861 17.1358 21.2527 17.4683 21.5861 17.8008Z" fill="#F5F5F5"/>
<path d="M25.5195 12.5474C25.7861 12.8134 25.9195 13.1459 25.8528 13.4784C25.7861 13.8109 25.5861 14.1434 25.2528 14.4758L24.9861 14.7418L25.9861 15.8058L25.5195 16.2713L22.7861 13.4784L23.5861 12.6804C23.9195 12.3479 24.2528 12.1484 24.5861 12.1484C24.9195 12.1484 25.2528 12.2149 25.5195 12.5474ZM24.6528 14.4094L24.9195 14.1434C25.1861 13.9439 25.3195 13.6779 25.3195 13.5449C25.3195 13.3454 25.2528 13.1459 25.1195 13.0129C24.9861 12.8799 24.7861 12.7469 24.6528 12.8134C24.4528 12.8134 24.2528 12.9464 24.0528 13.1459L23.7195 13.4784L24.6528 14.4094Z" fill="#F5F5F5"/>
<path d="M29.4527 10.3533C29.8527 10.8188 30.0527 11.3508 29.986 11.8162C29.986 12.2817 29.7194 12.6807 29.2527 13.0797C28.786 13.4787 28.3194 13.6117 27.8527 13.5452C27.386 13.4787 26.986 13.1462 26.5194 12.6807C26.1194 12.1487 25.9194 11.6832 25.986 11.2178C26.0527 10.7523 26.2527 10.3533 26.7194 9.95431C27.186 9.62183 27.6527 9.42234 28.1194 9.55533C28.586 9.68832 29.0527 9.82132 29.4527 10.3533ZM27.1194 12.2152C27.386 12.6142 27.7194 12.8137 28.0527 12.8802C28.386 12.9467 28.6527 12.8802 28.986 12.6142C29.2527 12.3482 29.4527 12.0822 29.4527 11.8162C29.4527 11.4838 29.3194 11.1513 28.986 10.7523C28.7194 10.3533 28.386 10.1538 28.0527 10.0873C27.7194 10.0208 27.4527 10.0873 27.1194 10.3533C26.786 10.6193 26.6527 10.8853 26.6527 11.1513C26.6527 11.4173 26.786 11.8162 27.1194 12.2152Z" fill="#F5F5F5"/>
<path d="M30.5859 11.2171L30.8525 11.0842C30.7859 10.5522 30.7192 9.95369 30.5192 9.42171C30.3192 8.82324 30.1192 8.29125 29.8525 7.75927L31.5859 6.69531L33.3859 9.48821L33.7859 9.22222L34.6525 10.6187L34.1192 10.9512L33.5859 9.95369L31.3859 11.3501L31.9859 12.2811L31.4525 12.6136L30.5859 11.2171ZM30.5859 7.89227C30.7859 8.22476 30.9192 8.69024 31.1192 9.22222C31.2525 9.7542 31.3859 10.2197 31.3859 10.6852L32.7859 9.7542L31.2525 7.42679L30.5859 7.89227Z" fill="#F5F5F5"/>
<path d="M34.5193 5.63195C34.186 5.83145 33.986 6.03094 33.9193 6.36342C33.8527 6.69591 33.9193 7.0284 34.1193 7.49388C34.3193 7.89287 34.586 8.22535 34.9193 8.29185C35.186 8.42485 35.5193 8.42485 35.8527 8.22535C35.986 8.15886 36.1193 8.09236 36.2527 7.95936C36.386 7.82637 36.5193 7.75987 36.6527 7.62688L36.9193 8.09236C36.7193 8.35835 36.386 8.55784 36.0527 8.75733C35.5193 9.02332 35.0527 9.08982 34.6527 8.89033C34.2527 8.69084 33.8527 8.35835 33.586 7.75987C33.386 7.42739 33.3193 7.0284 33.3193 6.69591C33.3193 6.36342 33.386 6.03094 33.586 5.76495C33.786 5.49896 33.986 5.29947 34.386 5.09998C34.7193 4.90048 35.1193 4.83398 35.4527 4.83398L35.5193 5.43246C35.386 5.43246 35.2527 5.43246 35.0527 5.49896C34.786 5.49896 34.6527 5.56546 34.5193 5.63195Z" fill="#F5F5F5"/>
<path d="M40.3861 6.76274L39.7194 7.02873L37.4527 5.83177L38.1861 7.62721L37.5861 7.8932L36.1194 4.30233L36.7194 4.03634L37.4527 5.76528L38.1861 3.43787L38.8527 3.17188L38.0527 5.49929L40.3861 6.76274Z" fill="#F5F5F5"/>
<path d="M43.5195 3.70385C43.7195 4.30232 43.7195 4.8343 43.5195 5.23329C43.3195 5.63227 42.9195 5.96476 42.3862 6.09776C41.8528 6.29725 41.3195 6.23075 40.9195 5.96476C40.5195 5.69877 40.1862 5.29978 40.0528 4.70131C39.8528 4.10283 39.8528 3.57085 40.0528 3.17187C40.2528 2.77288 40.6528 2.44039 41.1862 2.3074C41.7195 2.10791 42.2528 2.17441 42.6528 2.4404C43.0528 2.70639 43.3862 3.10537 43.5195 3.70385ZM40.7195 4.56831C40.8528 5.0338 41.0528 5.36628 41.3195 5.49928C41.5862 5.69877 41.9195 5.69877 42.2528 5.63227C42.5862 5.49928 42.8528 5.29978 42.9862 5.03379C43.1195 4.7678 43.1195 4.36882 42.9195 3.90334C42.7862 3.43786 42.5862 3.10537 42.3195 2.97237C42.0528 2.77288 41.7862 2.77288 41.3862 2.83938C40.9862 2.97237 40.7862 3.17187 40.6528 3.43786C40.5195 3.77034 40.5195 4.10283 40.7195 4.56831Z" fill="#F5F5F5"/>
<path d="M47.0527 5.03458L44.8527 5.50006L44.0527 1.64322L46.1861 1.17773L46.3194 1.70971L44.7861 2.0422L44.9861 3.10616L46.4527 2.84017L46.5861 3.37215L45.1194 3.63814L45.3861 4.83509L46.9194 4.5026L47.0527 5.03458Z" fill="#F5F5F5"/>
<path d="M51.7195 3.30434C51.7861 4.10231 51.3195 4.50129 50.3195 4.63429L49.1861 4.76728L48.8528 0.910429L51.2528 0.710938L51.3195 1.24292L49.5195 1.30941L49.5861 2.37337L50.0528 2.30688C51.0528 2.17388 51.6528 2.50637 51.7195 3.30434ZM49.7195 4.10231L50.1861 4.03581C50.5195 4.03581 50.7195 3.96931 50.8528 3.83632C50.9861 3.70332 51.0528 3.57033 51.0528 3.30434C51.0528 3.10484 50.9195 2.97185 50.7861 2.83885C50.6528 2.77236 50.3861 2.70586 50.0528 2.77236L49.6528 2.83885L49.7195 4.10231Z" fill="#F5F5F5"/>
<path d="M57.4526 2.57323C57.4526 3.23821 57.2526 3.70369 56.986 4.03618C56.6526 4.36866 56.2526 4.56816 55.7193 4.50166C55.186 4.50166 54.786 4.30217 54.5193 3.96968C54.2526 3.63719 54.0526 3.17171 54.0526 2.63973H53.186L53.1193 4.36866H52.4526L52.5193 0.445312H53.186L53.1193 2.04125H53.986C54.0526 1.50927 54.2526 1.11029 54.5193 0.844297C54.8526 0.578306 55.2526 0.445312 55.7193 0.445312C56.2526 0.445312 56.7193 0.644805 56.986 0.977292C57.2526 1.30978 57.4526 1.90826 57.4526 2.57323ZM54.6526 2.50673C54.6526 2.97222 54.7193 3.3712 54.9193 3.63719C55.1193 3.90318 55.386 4.03618 55.7193 4.03618C56.0526 4.03618 56.3193 3.90318 56.5193 3.70369C56.7193 3.5042 56.786 3.10521 56.786 2.63973C56.786 2.17425 56.7193 1.77526 56.5193 1.57577C56.3193 1.30978 56.0526 1.17678 55.7193 1.17678C55.386 1.17678 55.1193 1.30978 54.9193 1.50927C54.786 1.64227 54.6526 1.97475 54.6526 2.50673Z" fill="#F5F5F5"/>
<path d="M61.1194 2.30669C61.0527 2.70568 60.9194 2.97167 60.586 3.17116C60.3194 3.37065 59.9194 3.43715 59.386 3.37065L58.986 3.30415L58.786 4.7671L58.186 4.7006L58.7194 0.84375L59.8527 0.976745C60.3194 1.04324 60.7194 1.17624 60.9194 1.44223C61.0527 1.57522 61.1194 1.90771 61.1194 2.30669ZM59.0527 2.77218L59.386 2.83867C59.7194 2.90517 59.986 2.83867 60.1194 2.77218C60.2527 2.70568 60.386 2.50619 60.386 2.30669C60.386 2.1072 60.386 1.90771 60.2527 1.77471C60.1194 1.64172 59.9194 1.57522 59.6527 1.50872L59.186 1.44223L59.0527 2.77218Z" fill="#F5F5F5"/>
<path d="M65.2526 3.97008C65.1193 4.56856 64.8526 5.03404 64.4526 5.30003C64.0526 5.56602 63.586 5.63252 62.986 5.49953C62.386 5.36653 61.986 5.10054 61.786 4.70155C61.586 4.30257 61.5193 3.77059 61.6526 3.17211C61.786 2.57363 62.0526 2.10815 62.4526 1.84216C62.8526 1.57617 63.3193 1.50967 63.9193 1.64267C64.4526 1.77566 64.8526 2.04166 65.1193 2.44064C65.386 2.83963 65.386 3.37161 65.2526 3.97008ZM62.3193 3.30511C62.186 3.77059 62.2526 4.16958 62.386 4.43557C62.5193 4.70156 62.786 4.90105 63.1193 4.96755C63.5193 5.03404 63.786 4.96755 64.0526 4.83455C64.3193 4.63506 64.4526 4.30257 64.586 3.83709C64.7193 3.3716 64.6526 2.97262 64.586 2.70663C64.4526 2.44064 64.186 2.24115 63.8526 2.17465C63.4526 2.10815 63.186 2.17465 62.9193 2.30764C62.586 2.50714 62.4526 2.83962 62.3193 3.30511Z" fill="#F5F5F5"/>
<path d="M70.786 5.96559C70.586 6.56407 70.2526 6.96305 69.786 7.16254C69.386 7.36204 68.8526 7.36204 68.3193 7.16254C67.786 6.96305 67.386 6.63056 67.2526 6.16508C67.1193 5.6996 67.1193 5.23412 67.386 4.63564C67.6526 4.03716 67.9193 3.63817 68.386 3.43868C68.786 3.23919 69.3193 3.23919 69.8526 3.43868C70.386 3.63817 70.7193 3.97066 70.9193 4.43615C71.0526 4.83513 70.986 5.36711 70.786 5.96559ZM67.986 4.90163C67.786 5.36711 67.786 5.6996 67.8526 6.03208C67.9193 6.36457 68.186 6.56406 68.5193 6.69706C68.8526 6.83005 69.186 6.83005 69.4526 6.69706C69.7193 6.56406 69.9193 6.23158 70.1193 5.7661C70.3193 5.30061 70.3193 4.96812 70.2526 4.63564C70.186 4.30315 69.9193 4.10366 69.586 3.97066C69.2526 3.83767 68.9193 3.83767 68.6526 3.97066C68.386 4.17015 68.186 4.43615 67.986 4.90163Z" fill="#F5F5F5"/>
<path d="M73.6528 9.02351L74.1195 9.2895L73.3861 10.6859L72.8528 10.42L73.3195 9.48899L70.7195 8.15904L72.5195 4.70117L73.1195 4.96716L71.5861 7.95955L73.1195 8.75752L74.6528 5.76513L75.2528 6.03112L73.6528 9.02351Z" fill="#F5F5F5"/>
<path d="M76.186 11.2171L74.3193 10.0202L76.386 6.69531L78.2527 7.89227L77.986 8.35775L76.6527 7.49328L76.0527 8.35775L77.3194 9.15572L77.0527 9.6212L75.786 8.82323L75.1193 9.88719L76.4527 10.7517L76.186 11.2171Z" fill="#F5F5F5"/>
<path d="M79.2528 13.4795L78.7195 13.0805L79.7861 11.6841L78.3861 10.6201L77.3195 12.0165L76.7861 11.6176L79.1861 8.49219L79.7195 8.89117L78.7195 10.1546L80.1195 11.2186L81.1195 9.95513L81.6528 10.3541L79.2528 13.4795Z" fill="#F5F5F5"/>
<path d="M82.1861 16.1396L81.6528 15.6076L81.7861 13.0807L80.4528 14.5436L79.9861 14.0781L82.6528 11.2188L83.1194 11.6842L81.8528 13.0807L84.3194 12.7482L84.8528 13.2137L82.3861 13.5462L82.1861 16.1396Z" fill="#F5F5F5"/>
<path d="M85.386 13.877L85.786 14.3424L84.2526 15.6724C84.1193 15.8054 83.9193 15.9384 83.786 16.0714C83.6526 16.2044 83.5193 16.2709 83.4526 16.3374L87.1193 15.7389L87.586 16.2709L84.6526 18.8643L84.2526 18.3988L85.786 17.0688C85.986 16.8693 86.3193 16.6034 86.6526 16.3374L82.986 16.9358L82.5193 16.4039L85.386 13.877Z" fill="#F5F5F5"/>
<path d="M89.3861 18.5996L89.7194 19.0651L88.0527 20.1955C87.8527 20.3285 87.7194 20.395 87.5194 20.528C87.3194 20.661 87.1861 20.7275 87.1194 20.7275L90.8527 20.661L91.2527 21.2595L87.986 23.3874L87.6527 22.9219L89.3194 21.7915C89.5861 21.592 89.9194 21.459 90.2527 21.193L86.5194 21.2595L86.1194 20.661L89.3861 18.5996Z" fill="#F5F5F5"/>
<path d="M92.5194 24.7829C92.3861 24.5169 92.1861 24.2509 91.9194 24.0514L92.3194 23.5859C92.6527 23.8519 92.8527 24.1844 93.0527 24.5169C93.3194 25.0489 93.3194 25.5144 93.1861 25.9798C92.9861 26.4453 92.6527 26.7778 92.1194 27.0438C91.5194 27.3098 90.9861 27.3763 90.5194 27.2433C90.0527 27.1103 89.7194 26.7778 89.4527 26.2458C89.2527 25.9133 89.1861 25.5144 89.1194 25.1819L89.5861 24.9159C89.5861 25.1154 89.6527 25.2484 89.7194 25.4479C89.7861 25.6474 89.8527 25.7803 89.9194 25.9133C90.1194 26.3123 90.3194 26.5118 90.5861 26.6448C90.8527 26.7778 91.1861 26.7113 91.5861 26.5118L90.7861 24.9159L91.2527 24.6499L92.0527 26.2458C92.3861 26.0463 92.5861 25.8468 92.6527 25.5809C92.7194 25.3814 92.6527 25.1154 92.5194 24.7829Z" fill="#F5F5F5"/>
<path d="M91.6526 31.4335L91.3859 30.702L92.6526 28.5076L90.7859 29.2391L90.5859 28.6406L94.2526 27.2441L94.4526 27.8426L92.6526 28.5076L94.9859 29.3056L95.2526 29.9705L92.9193 29.1726L91.6526 31.4335Z" fill="#F5F5F5"/>
<path d="M95.5193 32.4969C95.386 32.1644 95.186 31.8984 94.9193 31.7654C94.586 31.6324 94.2527 31.6324 93.786 31.7654C93.3193 31.8984 92.986 32.0979 92.8526 32.3639C92.6526 32.6299 92.6526 32.9623 92.7193 33.2948C92.786 33.4278 92.8526 33.6273 92.9193 33.7603C92.986 33.8933 93.0526 34.0263 93.186 34.1593L92.6526 34.2923C92.4526 34.0263 92.3193 33.6938 92.186 33.3613C92.0526 32.8293 92.0526 32.3639 92.3193 31.9649C92.586 31.5659 92.986 31.2999 93.6526 31.1004C94.0526 30.9674 94.386 30.9674 94.7193 31.0339C95.0527 31.1004 95.3193 31.2334 95.586 31.4329C95.8527 31.6324 95.986 31.9649 96.1193 32.2974C96.2527 32.6964 96.2527 33.0288 96.186 33.4278L95.586 33.3613C95.586 33.2283 95.6527 33.0953 95.6527 32.8958C95.586 32.8294 95.5193 32.6964 95.5193 32.4969Z" fill="#F5F5F5"/>
<path d="M93.2526 38.0831L93.1193 37.4846L96.4526 36.8861L96.1192 35.2237L92.7859 35.8221L92.6526 35.2237L96.5192 34.4922L97.0526 37.4181L93.2526 38.0831Z" fill="#F5F5F5"/>
<path d="M93.586 41.2086L93.386 39.0142L97.2526 38.6152L97.4526 40.8096L96.9193 40.8761L96.786 39.3467L95.7193 39.4797L95.8526 40.9426L95.3193 41.0091L95.186 39.5462L93.986 39.6792L94.1193 41.2086H93.586Z" fill="#F5F5F5"/>
<path d="M96.3859 44.4666C95.9859 44.4666 95.6526 44.3336 95.4526 44.0676C95.2526 43.8016 95.1193 43.4026 95.1193 42.9371V42.5381H93.6526V41.8731L97.5859 41.8066V42.9371C97.5859 43.4026 97.5193 43.8016 97.3193 44.0676C97.1193 44.3336 96.7859 44.4666 96.3859 44.4666ZM95.6526 42.6046V42.9371C95.6526 43.2696 95.7193 43.5356 95.8526 43.6686C95.9859 43.8016 96.1193 43.8681 96.3859 43.8681C96.5859 43.8681 96.7859 43.8016 96.8526 43.6686C96.9193 43.5356 96.9859 43.3361 96.9859 43.0036V42.5381L95.6526 42.6046Z" fill="#F5F5F5"/>
<path d="M93.5862 46.594L93.6528 45.929L96.9862 46.1285L97.0528 44.998H97.5862L97.4528 47.924H96.9195L96.9862 46.7935L93.5862 46.594Z" fill="#F5F5F5"/>
<path d="M97.3194 48.8564L97.2528 49.4549L95.2528 49.1889C95.0528 49.1889 94.8528 49.1224 94.5861 49.0559C94.3861 48.9894 94.2528 48.9894 94.1861 48.9894L96.9861 51.3833L96.8527 52.1148L92.9861 51.5163L93.0528 50.9178L95.0528 51.1838C95.3861 51.2503 95.7194 51.3168 96.1861 51.3833L93.3861 48.9229L93.5194 48.1914L97.3194 48.8564Z" fill="#F5F5F5"/>
<path d="M95.0528 55.5709C94.7861 55.5044 94.6528 55.3714 94.5194 55.1719C94.3861 54.9724 94.3861 54.7064 94.3861 54.4404C94.2528 54.7729 94.1194 54.9724 93.9194 55.1054C93.7194 55.2384 93.5194 55.3049 93.2528 55.2384C92.9194 55.1719 92.6528 54.9724 92.5194 54.6399C92.3861 54.3074 92.3861 53.9084 92.5194 53.443C92.6528 52.911 92.7861 52.5785 93.0528 52.3125L93.5861 52.4455C93.4528 52.5785 93.3861 52.778 93.2528 52.9775C93.1861 53.177 93.1194 53.3765 93.0528 53.5095C92.9194 54.1744 93.0528 54.5734 93.4528 54.6399C93.6528 54.7064 93.8528 54.6399 93.9861 54.4404C94.1194 54.2409 94.2528 53.9749 94.3861 53.576L94.5194 53.1105L94.9861 53.2435L94.8528 53.6425C94.6528 54.3739 94.7861 54.8394 95.1861 54.9059C95.3194 54.9724 95.5194 54.9059 95.5861 54.8394C95.7194 54.7064 95.7861 54.5734 95.8528 54.3074C95.9194 54.1079 95.9194 53.9749 95.9194 53.7754C95.9194 53.576 95.8528 53.3765 95.7861 53.177L96.2528 52.9775C96.4528 53.443 96.4528 53.9084 96.3194 54.4404C96.2528 54.8394 96.0528 55.1054 95.8528 55.3049C95.6528 55.5044 95.3861 55.6374 95.0528 55.5709Z" fill="#F5F5F5"/>
<path d="M90.7195 59.1631L90.9195 58.5647L94.5862 59.8946L94.3861 60.4931L90.7195 59.1631ZM92.1861 58.4317C91.8528 58.2987 91.5862 58.0992 91.4528 57.7667C91.3195 57.4342 91.3861 57.1017 91.5195 56.6362L91.9195 55.5723L95.5862 56.9022L95.3861 57.5007L93.9195 56.9687L93.7862 57.3677C93.6528 57.8332 93.3862 58.1657 93.1195 58.2987C92.8528 58.5647 92.5861 58.5647 92.1861 58.4317ZM92.2528 56.3702L92.1195 56.7692C92.0528 57.0352 91.9861 57.2347 92.0528 57.4342C92.1195 57.6337 92.2528 57.7002 92.4528 57.8332C92.6528 57.8997 92.8528 57.8997 92.9861 57.7667C93.1195 57.7002 93.2528 57.4342 93.3861 57.1682L93.5195 56.8357L92.2528 56.3702Z" fill="#F5F5F5"/>
<path d="M46.3191 91.8142C45.9191 91.8142 45.6525 91.6812 45.4525 91.4817C45.2525 91.2822 45.1191 90.9497 45.1191 90.4842C45.1191 90.0188 45.2525 89.6863 45.4525 89.4868C45.6525 89.2208 45.9858 89.1543 46.3858 89.1543C46.6525 89.1543 46.9192 89.2208 47.1192 89.2873L46.9192 89.7528C46.6525 89.6863 46.5192 89.6198 46.3191 89.6198C45.8525 89.6198 45.6525 89.8858 45.6525 90.4842C45.6525 90.7502 45.7191 91.0162 45.8525 91.1492C45.9858 91.2822 46.1191 91.3487 46.3191 91.3487C46.5858 91.3487 46.7858 91.2822 46.9858 91.1492V91.6147C46.9192 91.6812 46.7858 91.6812 46.6525 91.7477C46.6525 91.7477 46.5192 91.8142 46.3191 91.8142Z" fill="#F5F5F5"/>
<path d="M50.3858 91.7469H49.8525V89.5524C49.8525 89.2864 49.8525 89.0869 49.8525 88.954C49.7858 89.0205 49.7858 89.0205 49.7192 89.0869C49.6525 89.1534 49.5192 89.2864 49.1858 89.4859L48.9192 89.1534L49.9192 88.3555H50.3858V91.7469Z" fill="#F5F5F5"/>
<path d="M53.7857 89.7521C53.7857 90.4171 53.6524 90.949 53.3857 91.2815C53.119 91.614 52.719 91.8135 52.1857 91.8135C51.9857 91.8135 51.8524 91.8135 51.719 91.747V91.2815C51.8524 91.348 51.9857 91.348 52.119 91.348C52.519 91.348 52.7857 91.215 52.9857 91.0155C53.1857 90.816 53.2524 90.4836 53.319 90.0846C53.2524 90.2176 53.119 90.3506 52.9857 90.4171C52.8524 90.4836 52.719 90.4836 52.519 90.4836C52.1857 90.4836 51.9857 90.4171 51.7857 90.2176C51.5857 90.0181 51.519 89.7521 51.519 89.4196C51.519 89.0871 51.6524 88.7546 51.8524 88.5551C52.0524 88.3557 52.319 88.2227 52.6524 88.2227C52.919 88.2227 53.119 88.2892 53.319 88.4221C53.519 88.5551 53.6524 88.6881 53.719 88.9541C53.7857 89.1536 53.7857 89.4861 53.7857 89.7521ZM52.5857 88.7546C52.3857 88.7546 52.2524 88.8211 52.119 88.9541C51.9857 89.0871 51.9857 89.2201 51.9857 89.4861C51.9857 89.6856 52.0524 89.8186 52.119 89.9516C52.1857 90.0846 52.3857 90.1511 52.519 90.1511C52.719 90.1511 52.8524 90.0846 52.9857 89.9516C53.119 89.8186 53.1857 89.6856 53.1857 89.5526C53.1857 89.4196 53.1857 89.2866 53.119 89.1536C53.0524 89.0206 52.9857 88.9541 52.919 88.8876C52.8524 88.7546 52.719 88.7546 52.5857 88.7546Z" fill="#F5F5F5"/>
<path d="M56.5858 89.7521C56.5858 90.4171 56.4524 90.949 56.1858 91.2815C55.9191 91.614 55.5191 91.8135 54.9858 91.8135C54.7858 91.8135 54.6524 91.8135 54.5191 91.747V91.2815C54.6524 91.348 54.7858 91.348 54.9191 91.348C55.3191 91.348 55.5858 91.215 55.7858 91.0155C55.9858 90.816 56.0524 90.4836 56.1191 90.0846C56.0524 90.2176 55.9191 90.3506 55.7858 90.4171C55.6524 90.4836 55.5191 90.4836 55.3191 90.4836C54.9858 90.4836 54.7858 90.4171 54.5858 90.2176C54.3858 90.0181 54.3191 89.7521 54.3191 89.4196C54.3191 89.0871 54.4524 88.7546 54.6524 88.5551C54.8524 88.3557 55.1191 88.2227 55.4524 88.2227C55.7191 88.2227 55.9191 88.2892 56.1191 88.4221C56.3191 88.5551 56.4524 88.6881 56.5191 88.9541C56.5191 89.1536 56.5858 89.4861 56.5858 89.7521ZM55.3858 88.7546C55.1858 88.7546 55.0524 88.8211 54.9191 88.9541C54.7858 89.0871 54.7858 89.2201 54.7858 89.4861C54.7858 89.6856 54.8524 89.8186 54.9191 89.9516C54.9858 90.0846 55.1858 90.1511 55.3191 90.1511C55.5191 90.1511 55.6524 90.0846 55.7858 89.9516C55.9191 89.8186 55.9858 89.6856 55.9858 89.5526C55.9858 89.4196 55.9858 89.2866 55.9191 89.1536C55.8524 89.0206 55.7858 88.9541 55.7191 88.8876C55.5858 88.7546 55.4524 88.7546 55.3858 88.7546Z" fill="#F5F5F5"/>
<path d="M57.3859 91.7468L58.7192 88.821H56.9192V88.3555H59.3192V88.7545L57.9859 91.8133H57.3859V91.7468Z" fill="#F5F5F5"/>
<path d="M62.8525 89.1544V89.5534H61.7191V91.6812H61.1858V89.0879H62.8525V89.1544Z" fill="#F5F5F5"/>
<path d="M63.2524 91.4145C63.2524 91.2815 63.2524 91.215 63.3191 91.1485C63.3858 91.082 63.4524 91.082 63.5858 91.082C63.7191 91.082 63.7858 91.082 63.8524 91.1485C63.9191 91.215 63.9191 91.2815 63.9191 91.4145C63.9191 91.5475 63.9191 91.614 63.8524 91.6805C63.7858 91.747 63.7191 91.747 63.5858 91.747C63.4524 91.747 63.3858 91.747 63.3191 91.6805C63.2524 91.614 63.2524 91.5475 63.2524 91.4145Z" fill="#F5F5F5"/>
<path d="M54.0527 9.15625L54.9193 10.8852L56.786 11.1512L55.4527 12.4811L55.786 14.4095L54.0527 13.4786L52.386 14.4095L52.7193 12.4811L51.3193 11.1512L53.186 10.8852L54.0527 9.15625Z" fill="#F5F5F5"/>
<path d="M20.5192 77.4492L18.9858 81.705H18.1858L16.6525 77.5157L16.7858 80.0426V80.9736L17.3858 81.1066V81.7715H14.9858V81.1066L15.5858 80.9736V76.8507L14.9858 76.7177V76.0527H15.5858H17.1192L18.5858 80.2421L20.0525 76.0527H22.1858V76.7177L21.5858 76.8507V80.9736L22.1858 81.1066V81.7715H19.7858V81.1066L20.3858 80.9736V80.0426L20.5192 77.4492Z" fill="#155691"/>
<path d="M20.5192 77.4492L18.9858 81.705H18.1858L16.6525 77.5157L16.7858 80.0426V80.9736L17.3858 81.1066V81.7715H14.9858V81.1066L15.5858 80.9736V76.8507L14.9858 76.7177V76.0527H15.5858H17.1192L18.5858 80.2421L20.0525 76.0527H22.1858V76.7177L21.5858 76.8507V80.9736L22.1858 81.1066V81.7715H19.7858V81.1066L20.3858 80.9736V80.0426L20.5192 77.4492Z" fill="black" fill-opacity="0.2"/>
<path d="M22.5859 79.5107C22.5859 78.8458 22.7859 78.3803 23.1193 77.9813C23.4526 77.5823 23.9859 77.3828 24.5859 77.3828C25.1859 77.3828 25.7193 77.5823 26.0526 77.9813C26.3859 78.3803 26.5859 78.9123 26.5859 79.5107V79.5772C26.5859 80.2422 26.3859 80.7077 26.0526 81.1067C25.7193 81.5056 25.1859 81.7051 24.5859 81.7051C23.9193 81.7051 23.4526 81.5056 23.1193 81.1067C22.7859 80.7077 22.5859 80.1757 22.5859 79.5772V79.5107ZM23.7859 79.6437C23.7859 80.0427 23.8526 80.3752 23.9859 80.5747C24.1193 80.8407 24.3193 80.9072 24.6526 80.9072C24.9193 80.9072 25.1859 80.7742 25.3193 80.5747C25.4526 80.3752 25.5193 80.0427 25.5193 79.6437V79.5772C25.5193 79.1782 25.4526 78.9123 25.3193 78.6463C25.1859 78.3803 24.9859 78.3138 24.6526 78.3138C24.3193 78.3138 24.1193 78.4468 23.9859 78.6463C23.8526 78.9123 23.7859 79.1782 23.7859 79.5772V79.6437Z" fill="#155691"/>
<path d="M22.5859 79.5107C22.5859 78.8458 22.7859 78.3803 23.1193 77.9813C23.4526 77.5823 23.9859 77.3828 24.5859 77.3828C25.1859 77.3828 25.7193 77.5823 26.0526 77.9813C26.3859 78.3803 26.5859 78.9123 26.5859 79.5107V79.5772C26.5859 80.2422 26.3859 80.7077 26.0526 81.1067C25.7193 81.5056 25.1859 81.7051 24.5859 81.7051C23.9193 81.7051 23.4526 81.5056 23.1193 81.1067C22.7859 80.7077 22.5859 80.1757 22.5859 79.5772V79.5107ZM23.7859 79.6437C23.7859 80.0427 23.8526 80.3752 23.9859 80.5747C24.1193 80.8407 24.3193 80.9072 24.6526 80.9072C24.9193 80.9072 25.1859 80.7742 25.3193 80.5747C25.4526 80.3752 25.5193 80.0427 25.5193 79.6437V79.5772C25.5193 79.1782 25.4526 78.9123 25.3193 78.6463C25.1859 78.3803 24.9859 78.3138 24.6526 78.3138C24.3193 78.3138 24.1193 78.4468 23.9859 78.6463C23.8526 78.9123 23.7859 79.1782 23.7859 79.5772V79.6437Z" fill="black" fill-opacity="0.2"/>
<path d="M29.1191 80.9072C29.3191 80.9072 29.5191 80.8407 29.5858 80.7077C29.7191 80.5747 29.7858 80.4417 29.7858 80.2422H30.8525C30.8525 80.6412 30.7191 81.0402 30.3858 81.3062C30.0525 81.5721 29.6525 81.7716 29.1191 81.7716C28.4525 81.7716 27.9858 81.5721 27.6525 81.1732C27.3191 80.7742 27.1191 80.2422 27.1191 79.6437V79.5107C27.1191 78.9123 27.3191 78.3803 27.6525 77.9813C27.9858 77.5823 28.5191 77.3828 29.1858 77.3828C29.5191 77.3828 29.8525 77.4493 30.1191 77.5158C30.3858 77.6488 30.6525 77.7818 30.7858 77.9813V79.1117H29.8525L29.6525 78.4468C29.5858 78.3803 29.5191 78.3803 29.4525 78.3138C29.3858 78.2473 29.2525 78.2473 29.1858 78.2473C28.8525 78.2473 28.6525 78.3803 28.5191 78.5798C28.3858 78.8458 28.3191 79.1117 28.3191 79.5107V79.6437C28.3191 80.0427 28.3858 80.3087 28.5191 80.5747C28.5858 80.7742 28.7858 80.9072 29.1191 80.9072Z" fill="#155691"/>
<path d="M29.1191 80.9072C29.3191 80.9072 29.5191 80.8407 29.5858 80.7077C29.7191 80.5747 29.7858 80.4417 29.7858 80.2422H30.8525C30.8525 80.6412 30.7191 81.0402 30.3858 81.3062C30.0525 81.5721 29.6525 81.7716 29.1191 81.7716C28.4525 81.7716 27.9858 81.5721 27.6525 81.1732C27.3191 80.7742 27.1191 80.2422 27.1191 79.6437V79.5107C27.1191 78.9123 27.3191 78.3803 27.6525 77.9813C27.9858 77.5823 28.5191 77.3828 29.1858 77.3828C29.5191 77.3828 29.8525 77.4493 30.1191 77.5158C30.3858 77.6488 30.6525 77.7818 30.7858 77.9813V79.1117H29.8525L29.6525 78.4468C29.5858 78.3803 29.5191 78.3803 29.4525 78.3138C29.3858 78.2473 29.2525 78.2473 29.1858 78.2473C28.8525 78.2473 28.6525 78.3803 28.5191 78.5798C28.3858 78.8458 28.3191 79.1117 28.3191 79.5107V79.6437C28.3191 80.0427 28.3858 80.3087 28.5191 80.5747C28.5858 80.7742 28.7858 80.9072 29.1191 80.9072Z" fill="black" fill-opacity="0.2"/>
<path d="M31.386 81.0401L31.986 80.9071V76.7843L31.386 76.6513V75.9863H35.7193V77.4493H34.8526L34.786 76.8508H33.1193V80.9071L33.7193 81.0401V81.7051H31.386V81.0401Z" fill="#155691"/>
<path d="M31.386 81.0401L31.986 80.9071V76.7843L31.386 76.6513V75.9863H35.7193V77.4493H34.8526L34.786 76.8508H33.1193V80.9071L33.7193 81.0401V81.7051H31.386V81.0401Z" fill="black" fill-opacity="0.2"/>
<path d="M35.5859 79.5107C35.5859 78.8458 35.7859 78.3803 36.1193 77.9813C36.4526 77.5823 36.9859 77.3828 37.5859 77.3828C38.1859 77.3828 38.7193 77.5823 39.0526 77.9813C39.3859 78.3803 39.5859 78.9123 39.5859 79.5107V79.5772C39.5859 80.2422 39.3859 80.7077 39.0526 81.1067C38.7193 81.5056 38.1859 81.7051 37.5859 81.7051C36.9193 81.7051 36.4526 81.5056 36.1193 81.1067C35.7859 80.7077 35.5859 80.1757 35.5859 79.5772V79.5107ZM36.7193 79.6437C36.7193 80.0427 36.7859 80.3752 36.9193 80.5747C37.0526 80.8407 37.2526 80.9072 37.5859 80.9072C37.8526 80.9072 38.1193 80.7742 38.2526 80.5747C38.3859 80.3752 38.4526 80.0427 38.4526 79.6437V79.5772C38.4526 79.1782 38.3859 78.9123 38.2526 78.6463C38.1193 78.3803 37.9193 78.3138 37.5859 78.3138C37.2526 78.3138 37.0526 78.4468 36.9193 78.6463C36.7859 78.9123 36.7193 79.1782 36.7193 79.5772V79.6437Z" fill="#155691"/>
<path d="M35.5859 79.5107C35.5859 78.8458 35.7859 78.3803 36.1193 77.9813C36.4526 77.5823 36.9859 77.3828 37.5859 77.3828C38.1859 77.3828 38.7193 77.5823 39.0526 77.9813C39.3859 78.3803 39.5859 78.9123 39.5859 79.5107V79.5772C39.5859 80.2422 39.3859 80.7077 39.0526 81.1067C38.7193 81.5056 38.1859 81.7051 37.5859 81.7051C36.9193 81.7051 36.4526 81.5056 36.1193 81.1067C35.7859 80.7077 35.5859 80.1757 35.5859 79.5772V79.5107ZM36.7193 79.6437C36.7193 80.0427 36.7859 80.3752 36.9193 80.5747C37.0526 80.8407 37.2526 80.9072 37.5859 80.9072C37.8526 80.9072 38.1193 80.7742 38.2526 80.5747C38.3859 80.3752 38.4526 80.0427 38.4526 79.6437V79.5772C38.4526 79.1782 38.3859 78.9123 38.2526 78.6463C38.1193 78.3803 37.9193 78.3138 37.5859 78.3138C37.2526 78.3138 37.0526 78.4468 36.9193 78.6463C36.7859 78.9123 36.7193 79.1782 36.7193 79.5772V79.6437Z" fill="black" fill-opacity="0.2"/>
<path d="M40.0525 78.1143V77.4493H41.7192L41.7858 77.9148C41.9192 77.7153 42.0525 77.5823 42.2525 77.5158C42.4525 77.4493 42.6525 77.3828 42.8525 77.3828C43.3858 77.3828 43.7858 77.5823 44.0525 77.9813C44.3192 78.3803 44.5192 78.9123 44.5192 79.5772V79.6437C44.5192 80.2422 44.3858 80.7742 44.0525 81.1732C43.7858 81.5722 43.3858 81.7716 42.8525 81.7716C42.6525 81.7716 42.4525 81.7051 42.2525 81.6386C42.0525 81.5721 41.9192 81.4392 41.7858 81.3062V82.5696L42.3192 82.7026V83.3676H40.0525V82.7026L40.5858 82.5696V78.3138L40.0525 78.1143ZM43.3192 79.5772C43.3192 79.1782 43.2525 78.8458 43.1192 78.5798C42.9858 78.3138 42.7858 78.1808 42.5192 78.1808C42.3192 78.1808 42.1858 78.2473 42.0525 78.3138C41.9192 78.3803 41.8525 78.5133 41.7858 78.6463V80.5082C41.8525 80.6412 41.9858 80.7077 42.0525 80.7742C42.1858 80.8407 42.3192 80.8407 42.5192 80.8407C42.7858 80.8407 42.9858 80.7077 43.1192 80.5082C43.2525 80.3087 43.3192 79.9762 43.3192 79.6437V79.5772Z" fill="#155691"/>
<path d="M40.0525 78.1143V77.4493H41.7192L41.7858 77.9148C41.9192 77.7153 42.0525 77.5823 42.2525 77.5158C42.4525 77.4493 42.6525 77.3828 42.8525 77.3828C43.3858 77.3828 43.7858 77.5823 44.0525 77.9813C44.3192 78.3803 44.5192 78.9123 44.5192 79.5772V79.6437C44.5192 80.2422 44.3858 80.7742 44.0525 81.1732C43.7858 81.5722 43.3858 81.7716 42.8525 81.7716C42.6525 81.7716 42.4525 81.7051 42.2525 81.6386C42.0525 81.5721 41.9192 81.4392 41.7858 81.3062V82.5696L42.3192 82.7026V83.3676H40.0525V82.7026L40.5858 82.5696V78.3138L40.0525 78.1143ZM43.3192 79.5772C43.3192 79.1782 43.2525 78.8458 43.1192 78.5798C42.9858 78.3138 42.7858 78.1808 42.5192 78.1808C42.3192 78.1808 42.1858 78.2473 42.0525 78.3138C41.9192 78.3803 41.8525 78.5133 41.7858 78.6463V80.5082C41.8525 80.6412 41.9858 80.7077 42.0525 80.7742C42.1858 80.8407 42.3192 80.8407 42.5192 80.8407C42.7858 80.8407 42.9858 80.7077 43.1192 80.5082C43.2525 80.3087 43.3192 79.9762 43.3192 79.6437V79.5772Z" fill="black" fill-opacity="0.2"/>
<path d="M44.9192 76.7845C45.1859 76.5185 45.4525 76.319 45.7859 76.1195C46.1192 75.9865 46.5192 75.8535 46.9859 75.8535C47.7859 75.8535 48.3859 76.1195 48.8526 76.6515C49.3192 77.1835 49.5859 77.8484 49.5859 78.7129V78.9124C49.5859 79.7769 49.3192 80.4418 48.8526 80.9738C48.3859 81.5058 47.7859 81.7718 46.9859 81.7718C46.5192 81.7718 46.1192 81.7053 45.7859 81.5058C45.4525 81.3728 45.1192 81.1068 44.9192 80.8408V79.7769H45.7859L45.9192 80.5083C45.9859 80.6413 46.1859 80.7078 46.3192 80.7743C46.5192 80.8408 46.7192 80.8408 46.9192 80.8408C47.3192 80.8408 47.7192 80.7078 47.9192 80.3753C48.1859 80.1093 48.3192 79.7104 48.3192 79.2449H46.3192V78.3804H48.3192C48.2526 77.9149 48.1192 77.5159 47.9192 77.25C47.6526 76.984 47.3192 76.7845 46.8525 76.7845C46.5859 76.7845 46.3859 76.7845 46.2525 76.851C46.0525 76.9175 45.9192 76.984 45.8525 77.117L45.7192 77.8484H44.8525V76.7845H44.9192Z" fill="#155691"/>
<path d="M44.9192 76.7845C45.1859 76.5185 45.4525 76.319 45.7859 76.1195C46.1192 75.9865 46.5192 75.8535 46.9859 75.8535C47.7859 75.8535 48.3859 76.1195 48.8526 76.6515C49.3192 77.1835 49.5859 77.8484 49.5859 78.7129V78.9124C49.5859 79.7769 49.3192 80.4418 48.8526 80.9738C48.3859 81.5058 47.7859 81.7718 46.9859 81.7718C46.5192 81.7718 46.1192 81.7053 45.7859 81.5058C45.4525 81.3728 45.1192 81.1068 44.9192 80.8408V79.7769H45.7859L45.9192 80.5083C45.9859 80.6413 46.1859 80.7078 46.3192 80.7743C46.5192 80.8408 46.7192 80.8408 46.9192 80.8408C47.3192 80.8408 47.7192 80.7078 47.9192 80.3753C48.1859 80.1093 48.3192 79.7104 48.3192 79.2449H46.3192V78.3804H48.3192C48.2526 77.9149 48.1192 77.5159 47.9192 77.25C47.6526 76.984 47.3192 76.7845 46.8525 76.7845C46.5859 76.7845 46.3859 76.7845 46.2525 76.851C46.0525 76.9175 45.9192 76.984 45.8525 77.117L45.7192 77.8484H44.8525V76.7845H44.9192Z" fill="black" fill-opacity="0.2"/>
<path d="M50.1191 78.1143V77.4493H52.3858V78.1143L51.8525 78.2473V79.0452H52.2525L52.9191 78.1143C53.0525 77.8483 53.2525 77.7153 53.4525 77.5823C53.6525 77.4493 53.8525 77.3828 54.1191 77.3828C54.2525 77.3828 54.3858 77.3828 54.4525 77.4493C54.5858 77.5158 54.6525 77.5158 54.7858 77.5823L54.5858 78.3803C54.5191 78.3803 54.4525 78.3138 54.4525 78.3138C54.4525 78.3138 54.3858 78.3138 54.3191 78.3138C54.2525 78.3138 54.1858 78.3138 54.0525 78.3803C53.9858 78.4468 53.9191 78.5133 53.8525 78.5798L53.3191 79.3777L54.3191 80.8407L54.9191 80.9072V81.5722H53.3191L52.3858 79.9762H51.9191V80.7742L52.4525 80.9072V81.5722H50.1858V80.9072L50.7858 80.7742V78.1143H50.1191Z" fill="#155691"/>
<path d="M50.1191 78.1143V77.4493H52.3858V78.1143L51.8525 78.2473V79.0452H52.2525L52.9191 78.1143C53.0525 77.8483 53.2525 77.7153 53.4525 77.5823C53.6525 77.4493 53.8525 77.3828 54.1191 77.3828C54.2525 77.3828 54.3858 77.3828 54.4525 77.4493C54.5858 77.5158 54.6525 77.5158 54.7858 77.5823L54.5858 78.3803C54.5191 78.3803 54.4525 78.3138 54.4525 78.3138C54.4525 78.3138 54.3858 78.3138 54.3191 78.3138C54.2525 78.3138 54.1858 78.3138 54.0525 78.3803C53.9858 78.4468 53.9191 78.5133 53.8525 78.5798L53.3191 79.3777L54.3191 80.8407L54.9191 80.9072V81.5722H53.3191L52.3858 79.9762H51.9191V80.7742L52.4525 80.9072V81.5722H50.1858V80.9072L50.7858 80.7742V78.1143H50.1191Z" fill="black" fill-opacity="0.2"/>
<path d="M57.1858 80.9072C57.3858 80.9072 57.5858 80.8407 57.6525 80.7077C57.7858 80.5747 57.8525 80.4417 57.8525 80.2422H58.9191C58.9191 80.6412 58.7858 81.0402 58.4525 81.3062C58.1191 81.5721 57.7191 81.7716 57.1858 81.7716C56.5191 81.7716 56.0525 81.5721 55.7191 81.1732C55.3858 80.7742 55.1858 80.2422 55.1858 79.6437V79.5107C55.1858 78.9123 55.3858 78.3803 55.7191 77.9813C56.0525 77.5823 56.5858 77.3828 57.2525 77.3828C57.5858 77.3828 57.9191 77.4493 58.1858 77.5158C58.4525 77.6488 58.7191 77.7818 58.8525 77.9813V79.1117H57.9191L57.7191 78.4468C57.6525 78.3803 57.5858 78.3803 57.5191 78.3138C57.4525 78.2473 57.3191 78.2473 57.2525 78.2473C56.9191 78.2473 56.7191 78.3803 56.5858 78.5798C56.4525 78.8458 56.3858 79.1117 56.3858 79.5107V79.6437C56.3858 80.0427 56.4525 80.3087 56.5858 80.5747C56.6525 80.7742 56.8525 80.9072 57.1858 80.9072Z" fill="#155691"/>
<path d="M57.1858 80.9072C57.3858 80.9072 57.5858 80.8407 57.6525 80.7077C57.7858 80.5747 57.8525 80.4417 57.8525 80.2422H58.9191C58.9191 80.6412 58.7858 81.0402 58.4525 81.3062C58.1191 81.5721 57.7191 81.7716 57.1858 81.7716C56.5191 81.7716 56.0525 81.5721 55.7191 81.1732C55.3858 80.7742 55.1858 80.2422 55.1858 79.6437V79.5107C55.1858 78.9123 55.3858 78.3803 55.7191 77.9813C56.0525 77.5823 56.5858 77.3828 57.2525 77.3828C57.5858 77.3828 57.9191 77.4493 58.1858 77.5158C58.4525 77.6488 58.7191 77.7818 58.8525 77.9813V79.1117H57.9191L57.7191 78.4468C57.6525 78.3803 57.5858 78.3803 57.5191 78.3138C57.4525 78.2473 57.3191 78.2473 57.2525 78.2473C56.9191 78.2473 56.7191 78.3803 56.5858 78.5798C56.4525 78.8458 56.3858 79.1117 56.3858 79.5107V79.6437C56.3858 80.0427 56.4525 80.3087 56.5858 80.5747C56.6525 80.7742 56.8525 80.9072 57.1858 80.9072Z" fill="black" fill-opacity="0.2"/>
<path d="M59.5191 81.0401L60.1191 80.9071V78.2472L59.5191 78.1142V77.4492H64.4524V78.1142L63.8524 78.2472V80.9071L64.4524 81.0401V81.7051H62.1857V81.0401L62.6524 80.9071V78.3802H61.2524V80.9071L61.7191 81.0401V81.7051H59.4524V81.0401H59.5191Z" fill="#155691"/>
<path d="M59.5191 81.0401L60.1191 80.9071V78.2472L59.5191 78.1142V77.4492H64.4524V78.1142L63.8524 78.2472V80.9071L64.4524 81.0401V81.7051H62.1857V81.0401L62.6524 80.9071V78.3802H61.2524V80.9071L61.7191 81.0401V81.7051H59.4524V81.0401H59.5191Z" fill="black" fill-opacity="0.2"/>
<path d="M67.0525 81.7716C66.4525 81.7716 65.9192 81.5721 65.5858 81.1732C65.1858 80.7742 65.0525 80.3087 65.0525 79.6437V79.5107C65.0525 78.9123 65.2525 78.3803 65.5858 77.9813C65.9192 77.5823 66.3858 77.3828 66.9858 77.3828C67.5858 77.3828 67.9858 77.5823 68.3192 77.9148C68.6525 78.2473 68.7858 78.7128 68.7858 79.3112V79.9097H66.2525C66.2525 80.1757 66.3858 80.4417 66.5192 80.5747C66.7192 80.7742 66.9192 80.8407 67.1858 80.8407C67.4525 80.8407 67.6525 80.8407 67.8525 80.7742C68.0525 80.7077 68.1858 80.6412 68.3858 80.5082L68.7192 81.2397C68.5192 81.3726 68.3192 81.5056 68.0525 81.5721C67.7192 81.7051 67.3858 81.7716 67.0525 81.7716ZM66.9192 78.2473C66.7192 78.2473 66.5192 78.3138 66.3858 78.5133C66.2525 78.6463 66.1858 78.9123 66.1858 79.1782H67.5858V79.0452C67.5858 78.7793 67.5192 78.5798 67.3858 78.4468C67.3858 78.3138 67.1858 78.2473 66.9192 78.2473Z" fill="#155691"/>
<path d="M67.0525 81.7716C66.4525 81.7716 65.9192 81.5721 65.5858 81.1732C65.1858 80.7742 65.0525 80.3087 65.0525 79.6437V79.5107C65.0525 78.9123 65.2525 78.3803 65.5858 77.9813C65.9192 77.5823 66.3858 77.3828 66.9858 77.3828C67.5858 77.3828 67.9858 77.5823 68.3192 77.9148C68.6525 78.2473 68.7858 78.7128 68.7858 79.3112V79.9097H66.2525C66.2525 80.1757 66.3858 80.4417 66.5192 80.5747C66.7192 80.7742 66.9192 80.8407 67.1858 80.8407C67.4525 80.8407 67.6525 80.8407 67.8525 80.7742C68.0525 80.7077 68.1858 80.6412 68.3858 80.5082L68.7192 81.2397C68.5192 81.3726 68.3192 81.5056 68.0525 81.5721C67.7192 81.7051 67.3858 81.7716 67.0525 81.7716ZM66.9192 78.2473C66.7192 78.2473 66.5192 78.3138 66.3858 78.5133C66.2525 78.6463 66.1858 78.9123 66.1858 79.1782H67.5858V79.0452C67.5858 78.7793 67.5192 78.5798 67.3858 78.4468C67.3858 78.3138 67.1858 78.2473 66.9192 78.2473Z" fill="black" fill-opacity="0.2"/>
<path d="M69.2524 78.1143V77.4493H70.9191L70.9858 77.9148C71.1191 77.7153 71.2524 77.5823 71.4524 77.5158C71.6524 77.4493 71.8524 77.3828 72.0524 77.3828C72.5858 77.3828 72.9858 77.5823 73.2524 77.9813C73.5191 78.3803 73.7191 78.9123 73.7191 79.5772V79.6437C73.7191 80.2422 73.5858 80.7742 73.2524 81.1732C72.9858 81.5722 72.5858 81.7716 72.0524 81.7716C71.8524 81.7716 71.6524 81.7051 71.4524 81.6386C71.2524 81.5721 71.1191 81.4392 70.9858 81.3062V82.5696L71.5191 82.7026V83.3676H69.2524V82.7026L69.7858 82.5696V78.3138L69.2524 78.1143ZM72.5191 79.5772C72.5191 79.1782 72.4524 78.8458 72.3191 78.5798C72.1858 78.3138 71.9858 78.1808 71.7191 78.1808C71.5191 78.1808 71.3858 78.2473 71.2524 78.3138C71.1191 78.3803 71.0524 78.5133 70.9858 78.6463V80.5082C71.0524 80.6412 71.1858 80.7077 71.2524 80.7742C71.3858 80.8407 71.5191 80.8407 71.7191 80.8407C71.9858 80.8407 72.1858 80.7077 72.3191 80.5082C72.4524 80.3087 72.5191 79.9762 72.5191 79.6437V79.5772Z" fill="#155691"/>
<path d="M69.2524 78.1143V77.4493H70.9191L70.9858 77.9148C71.1191 77.7153 71.2524 77.5823 71.4524 77.5158C71.6524 77.4493 71.8524 77.3828 72.0524 77.3828C72.5858 77.3828 72.9858 77.5823 73.2524 77.9813C73.5191 78.3803 73.7191 78.9123 73.7191 79.5772V79.6437C73.7191 80.2422 73.5858 80.7742 73.2524 81.1732C72.9858 81.5722 72.5858 81.7716 72.0524 81.7716C71.8524 81.7716 71.6524 81.7051 71.4524 81.6386C71.2524 81.5721 71.1191 81.4392 70.9858 81.3062V82.5696L71.5191 82.7026V83.3676H69.2524V82.7026L69.7858 82.5696V78.3138L69.2524 78.1143ZM72.5191 79.5772C72.5191 79.1782 72.4524 78.8458 72.3191 78.5798C72.1858 78.3138 71.9858 78.1808 71.7191 78.1808C71.5191 78.1808 71.3858 78.2473 71.2524 78.3138C71.1191 78.3803 71.0524 78.5133 70.9858 78.6463V80.5082C71.0524 80.6412 71.1858 80.7077 71.2524 80.7742C71.3858 80.8407 71.5191 80.8407 71.7191 80.8407C71.9858 80.8407 72.1858 80.7077 72.3191 80.5082C72.4524 80.3087 72.5191 79.9762 72.5191 79.6437V79.5772Z" fill="black" fill-opacity="0.2"/>
<path d="M78.4525 77.4492V78.9122H77.5859L77.5192 78.3137H76.7859V80.9071L77.3859 81.0401V81.7051H74.9859V81.0401L75.5859 80.9071V78.3137H74.8525L74.7859 78.9122H73.9192V77.4492H78.4525Z" fill="#155691"/>
<path d="M78.4525 77.4492V78.9122H77.5859L77.5192 78.3137H76.7859V80.9071L77.3859 81.0401V81.7051H74.9859V81.0401L75.5859 80.9071V78.3137H74.8525L74.7859 78.9122H73.9192V77.4492H78.4525Z" fill="black" fill-opacity="0.2"/>
<path d="M81.3191 77.4492V78.1142L80.7858 78.2472V80.0426L82.1858 77.4492H83.3191H83.9191V78.1142L83.3191 78.2472V80.9071L83.9191 81.0401V81.7051H81.5858V81.0401L82.1191 80.9071V79.1117L80.7192 81.7051H78.9858V81.0401L79.5858 80.9071V78.2472L78.9858 78.1142V77.4492H80.7192H81.3191Z" fill="#155691"/>
<path d="M81.3191 77.4492V78.1142L80.7858 78.2472V80.0426L82.1858 77.4492H83.3191H83.9191V78.1142L83.3191 78.2472V80.9071L83.9191 81.0401V81.7051H81.5858V81.0401L82.1191 80.9071V79.1117L80.7192 81.7051H78.9858V81.0401L79.5858 80.9071V78.2472L78.9858 78.1142V77.4492H80.7192H81.3191Z" fill="black" fill-opacity="0.2"/>
<path d="M86.3858 79.1782C86.5858 79.1782 86.7191 79.1117 86.7858 79.0452C86.8525 78.9787 86.9191 78.8457 86.9191 78.7127C86.9191 78.5797 86.8525 78.4467 86.7858 78.3802C86.7191 78.3137 86.5858 78.2472 86.3858 78.2472C86.1858 78.2472 86.0525 78.3137 85.9191 78.3802C85.7858 78.4467 85.7191 78.5797 85.7191 78.7127H84.5858C84.5858 78.3137 84.7191 78.0477 85.0525 77.7817C85.3858 77.5157 85.7858 77.4492 86.2525 77.4492C86.7858 77.4492 87.2525 77.5822 87.5191 77.7817C87.8525 77.9812 87.9858 78.3137 87.9858 78.7127C87.9858 78.9122 87.9191 79.1117 87.7858 79.2447C87.6525 79.3777 87.5191 79.5107 87.3191 79.6437C87.5858 79.7102 87.7191 79.8431 87.8525 80.0426C87.9858 80.2421 88.0525 80.4416 88.0525 80.6411C88.0525 81.0401 87.8525 81.3726 87.5191 81.5721C87.1858 81.7716 86.7191 81.9046 86.1858 81.9046C85.7191 81.9046 85.2525 81.7716 84.9191 81.5721C84.5858 81.3726 84.3858 81.0401 84.4525 80.5746H85.5858C85.5858 80.7076 85.6525 80.8406 85.7858 80.9071C85.9191 80.9736 86.0525 81.0401 86.3191 81.0401C86.5191 81.0401 86.7191 80.9736 86.7858 80.9071C86.9191 80.7741 86.9191 80.7076 86.9191 80.5081C86.9191 80.3086 86.8525 80.1756 86.7858 80.1091C86.6525 80.0426 86.5191 79.9761 86.3191 79.9761H85.7191V79.2447H86.3858V79.1782Z" fill="#155691"/>
<path d="M86.3858 79.1782C86.5858 79.1782 86.7191 79.1117 86.7858 79.0452C86.8525 78.9787 86.9191 78.8457 86.9191 78.7127C86.9191 78.5797 86.8525 78.4467 86.7858 78.3802C86.7191 78.3137 86.5858 78.2472 86.3858 78.2472C86.1858 78.2472 86.0525 78.3137 85.9191 78.3802C85.7858 78.4467 85.7191 78.5797 85.7191 78.7127H84.5858C84.5858 78.3137 84.7191 78.0477 85.0525 77.7817C85.3858 77.5157 85.7858 77.4492 86.2525 77.4492C86.7858 77.4492 87.2525 77.5822 87.5191 77.7817C87.8525 77.9812 87.9858 78.3137 87.9858 78.7127C87.9858 78.9122 87.9191 79.1117 87.7858 79.2447C87.6525 79.3777 87.5191 79.5107 87.3191 79.6437C87.5858 79.7102 87.7191 79.8431 87.8525 80.0426C87.9858 80.2421 88.0525 80.4416 88.0525 80.6411C88.0525 81.0401 87.8525 81.3726 87.5191 81.5721C87.1858 81.7716 86.7191 81.9046 86.1858 81.9046C85.7191 81.9046 85.2525 81.7716 84.9191 81.5721C84.5858 81.3726 84.3858 81.0401 84.4525 80.5746H85.5858C85.5858 80.7076 85.6525 80.8406 85.7858 80.9071C85.9191 80.9736 86.0525 81.0401 86.3191 81.0401C86.5191 81.0401 86.7191 80.9736 86.7858 80.9071C86.9191 80.7741 86.9191 80.7076 86.9191 80.5081C86.9191 80.3086 86.8525 80.1756 86.7858 80.1091C86.6525 80.0426 86.5191 79.9761 86.3191 79.9761H85.7191V79.2447H86.3858V79.1782Z" fill="black" fill-opacity="0.2"/>
<path d="M91.3859 81.7049C91.3859 81.6385 91.3192 81.572 91.3192 81.5055C91.3192 81.439 91.2526 81.3725 91.2526 81.306C91.1192 81.439 90.9192 81.572 90.7859 81.7049C90.5859 81.7714 90.3859 81.838 90.1192 81.838C89.7192 81.838 89.3859 81.705 89.1192 81.5055C88.8526 81.306 88.7192 80.9735 88.7192 80.5745C88.7192 80.1755 88.8526 79.843 89.1859 79.6435C89.5192 79.444 89.9859 79.3111 90.5859 79.3111H91.1859V78.9121C91.1859 78.7126 91.1192 78.5796 90.9859 78.4466C90.8526 78.3136 90.7192 78.2471 90.4526 78.2471C90.3192 78.2471 90.1859 78.2471 90.1192 78.3136C89.9859 78.3136 89.9192 78.3801 89.8526 78.4466L89.7859 78.9121H88.9192V77.9811C89.1192 77.8481 89.3859 77.7151 89.6526 77.6486C89.9192 77.5821 90.2526 77.5156 90.5192 77.5156C91.0526 77.5156 91.4526 77.6486 91.7859 77.9146C92.1192 78.1806 92.2526 78.5131 92.2526 79.0451V80.774C92.2526 80.8405 92.2526 80.907 92.2526 80.9735C92.2526 81.04 92.2526 81.1065 92.2526 81.1065L92.5859 81.173V81.838H91.3859V81.7049ZM90.4526 80.907C90.6526 80.907 90.7859 80.8405 90.9192 80.774C91.0526 80.7075 91.1859 80.5745 91.2526 80.508V79.843H90.6526C90.3859 79.843 90.2526 79.9095 90.1192 80.0425C89.9859 80.1755 89.9192 80.3085 89.9192 80.4415C89.9192 80.5745 89.9859 80.7075 90.0526 80.774C90.1192 80.8405 90.2526 80.907 90.4526 80.907Z" fill="#155691"/>
<path d="M91.3859 81.7049C91.3859 81.6385 91.3192 81.572 91.3192 81.5055C91.3192 81.439 91.2526 81.3725 91.2526 81.306C91.1192 81.439 90.9192 81.572 90.7859 81.7049C90.5859 81.7714 90.3859 81.838 90.1192 81.838C89.7192 81.838 89.3859 81.705 89.1192 81.5055C88.8526 81.306 88.7192 80.9735 88.7192 80.5745C88.7192 80.1755 88.8526 79.843 89.1859 79.6435C89.5192 79.444 89.9859 79.3111 90.5859 79.3111H91.1859V78.9121C91.1859 78.7126 91.1192 78.5796 90.9859 78.4466C90.8526 78.3136 90.7192 78.2471 90.4526 78.2471C90.3192 78.2471 90.1859 78.2471 90.1192 78.3136C89.9859 78.3136 89.9192 78.3801 89.8526 78.4466L89.7859 78.9121H88.9192V77.9811C89.1192 77.8481 89.3859 77.7151 89.6526 77.6486C89.9192 77.5821 90.2526 77.5156 90.5192 77.5156C91.0526 77.5156 91.4526 77.6486 91.7859 77.9146C92.1192 78.1806 92.2526 78.5131 92.2526 79.0451V80.774C92.2526 80.8405 92.2526 80.907 92.2526 80.9735C92.2526 81.04 92.2526 81.1065 92.2526 81.1065L92.5859 81.173V81.838H91.3859V81.7049ZM90.4526 80.907C90.6526 80.907 90.7859 80.8405 90.9192 80.774C91.0526 80.7075 91.1859 80.5745 91.2526 80.508V79.843H90.6526C90.3859 79.843 90.2526 79.9095 90.1192 80.0425C89.9859 80.1755 89.9192 80.3085 89.9192 80.4415C89.9192 80.5745 89.9859 80.7075 90.0526 80.774C90.1192 80.8405 90.2526 80.907 90.4526 80.907Z" fill="black" fill-opacity="0.2"/>
<path d="M107.453 65.6136H81.8526V36.1552H59.6526L57.1193 25.6486V70.7339H55.3859V22.5232L54.0526 17.0039L52.7193 22.5232V70.7339H50.9859V25.6486L48.4526 36.1552H26.2526V65.6136H0.585938L4.18594 73.9258L0.585938 82.2379H11.3859V86.4938H30.3859C32.4526 89.2202 35.1193 91.4146 38.3859 92.8775L53.9859 99.8598L69.5859 92.8775C72.7859 91.4146 75.5193 89.2202 77.5859 86.4938H96.5193V82.2379H107.319L103.719 73.9258L107.453 65.6136ZM81.8526 67.941L91.7859 70.8004H81.8526V67.941ZM59.7859 38.8151H79.1859V70.8004H73.0526V65.0816L70.3859 67.276V70.8004H68.6526V67.276L65.9859 65.0816V70.8004H64.2526V42.8714L61.5859 49.8537V70.7339H59.8526V38.8151H59.7859ZM48.3193 38.8151V70.8004H46.5859V49.8537L43.9193 42.8714V70.8004H42.1859V65.0816L39.5193 67.276V70.8004H37.7859V67.276L35.1193 65.0816V70.8004H28.9859V38.8151H48.3193ZM26.2526 70.7339H16.2526L26.2526 67.8745V70.7339ZM11.4526 80.908H2.6526L5.71927 73.9258L2.6526 66.9435H24.9193L11.3859 70.8004V80.908H11.4526ZM68.5859 90.4836L54.0526 97.0004L39.5193 90.4836C37.3859 89.4862 35.4526 88.1562 33.9193 86.4938H74.2526C72.6526 88.1562 70.7859 89.4862 68.5859 90.4836ZM95.3193 85.1638H12.7859V72.1303H95.3193V85.1638ZM105.386 80.908H96.5859V70.8004L83.0526 66.9435H105.386L102.319 73.9258L105.386 80.908Z" fill="#F5F5F5"/>
</svg>
