<svg width="113" height="107" viewBox="0 0 113 107" fill="none" xmlns="http://www.w3.org/2000/svg">
    <path d="M16.1649 61.0949L13.2406 63.3724C13.7399 63.1589 14.1678 63.0166 14.5957 62.8742L16.5215 62.2336L16.7354 62.803L12.8127 64.1554L12.5274 63.2301L15.309 61.0237H11.7428L11.4575 60.0984L15.3803 58.7461L15.5943 59.3867L13.6685 60.0984C13.4546 60.1696 13.2406 60.2408 12.884 60.3831C12.5274 60.5255 12.3134 60.4543 12.2421 60.4543H15.9509L16.1649 61.0949Z" fill="#1B1464"/>
    <path d="M12.243 54.618C12.8849 54.4757 13.4555 54.5468 13.8834 54.7603C14.3114 54.9739 14.5967 55.4721 14.7393 56.0415C14.882 56.682 14.8106 57.1803 14.5253 57.6073C14.2401 58.0344 13.7408 58.319 13.0989 58.4614C12.457 58.6037 11.8864 58.5326 11.4585 58.319C11.0305 58.0344 10.7452 57.6073 10.6026 57.0379C10.4599 56.3973 10.5312 55.8991 10.8165 55.5433C11.1018 55.045 11.5298 54.7604 12.243 54.618ZM12.9562 57.7497C13.4555 57.6073 13.8121 57.465 14.0261 57.1803C14.2401 56.8956 14.3114 56.6109 14.2401 56.1838C14.1687 55.7568 13.9548 55.5433 13.6695 55.4009C13.3842 55.2586 12.9562 55.2586 12.457 55.3297C11.9577 55.4721 11.6011 55.6144 11.3871 55.8991C11.1732 56.1838 11.1018 56.4685 11.1732 56.8956C11.2445 57.3226 11.4584 57.5361 11.7437 57.6785C12.029 57.8208 12.3857 57.8208 12.9562 57.7497Z" fill="#1B1464"/>
    <path d="M10.317 52.0557C10.3884 52.4116 10.531 52.7674 10.8163 52.9098C11.1016 53.0521 11.5295 53.1945 12.0288 53.1233C12.5281 53.0521 12.8847 52.9098 13.17 52.6251C13.3839 52.4116 13.5266 52.0557 13.4553 51.6286C13.4553 51.4863 13.3839 51.2728 13.3126 51.1304C13.2413 50.9881 13.17 50.7746 13.0986 50.6322L13.6692 50.561C13.8119 50.8457 13.9545 51.2016 14.0258 51.6286C14.0972 52.2692 13.9545 52.6963 13.6692 53.1233C13.3126 53.4792 12.8134 53.6927 12.1714 53.835C11.7435 53.9062 11.3869 53.835 11.0303 53.7639C10.6737 53.6215 10.3884 53.4792 10.1744 53.1945C9.96042 52.9098 9.81778 52.5539 9.81778 52.198C9.74645 51.771 9.81778 51.3439 9.96042 50.9881L10.531 51.1304C10.4597 51.2728 10.4597 51.4151 10.3884 51.6286C10.317 51.6998 10.317 51.9133 10.317 52.0557Z" fill="#1B1464"/>
    <path d="M13.5977 46.5757V47.3586L11.5293 49.138L13.669 49.0668V49.7785L9.46097 49.9209V49.2091L11.458 49.138L9.38965 47.501V46.718L11.458 48.355L13.5977 46.5757Z" fill="#1B1464"/>
    <path d="M11.7433 42.3049C12.4565 42.3761 12.9558 42.5184 13.3124 42.8743C13.669 43.2302 13.8117 43.7284 13.8117 44.369C13.8117 45.0095 13.5977 45.4366 13.1697 45.7924C12.7418 46.0771 12.2425 46.2195 11.5293 46.2195C10.8161 46.1483 10.3168 46.006 9.9602 45.6501C9.60358 45.2942 9.46094 44.796 9.46094 44.1554C9.46094 43.5149 9.67491 43.0878 10.1028 42.7319C10.5308 42.3761 11.03 42.2337 11.7433 42.3049ZM11.5293 45.5077C12.0286 45.5077 12.4565 45.4366 12.7418 45.2942C13.0271 45.0807 13.1697 44.796 13.1697 44.369C13.1697 43.9419 13.0984 43.6572 12.8131 43.4437C12.5278 43.2302 12.1712 43.0878 11.672 43.0878C11.1727 43.0878 10.7448 43.159 10.4595 43.3013C10.1742 43.4437 10.1028 43.7284 10.1028 44.1554C10.1028 44.5825 10.1742 44.8672 10.4595 45.0807C10.6734 45.2942 11.03 45.4366 11.5293 45.5077Z" fill="#1B1464"/>
    <path d="M9.81812 40.9527L10.0321 39.7427C10.1034 39.1733 10.2461 38.7463 10.46 38.5327C10.674 38.3192 10.9593 38.248 11.3159 38.248C11.5299 38.3192 11.7438 38.3904 11.8865 38.5327C12.0291 38.6751 12.1005 38.8886 12.1005 39.1021C12.1718 38.8174 12.3144 38.6039 12.5284 38.5327C12.7424 38.3904 12.9563 38.3904 13.2416 38.4616C13.5982 38.5327 13.8835 38.6751 14.0262 38.9598C14.1688 39.2445 14.2402 39.6004 14.1688 40.0986L13.9549 41.5932L9.81812 40.9527ZM11.6012 40.5968L11.6725 39.9562C11.7438 39.6715 11.6725 39.458 11.6012 39.3157C11.5299 39.1733 11.3872 39.1021 11.1733 39.031C10.9593 39.031 10.8166 39.031 10.7453 39.1733C10.674 39.3157 10.5313 39.5292 10.5313 39.8139L10.46 40.3833L11.6012 40.5968ZM12.1718 40.668L13.4556 40.8815L13.5982 40.1698C13.6696 39.8851 13.5982 39.6715 13.5269 39.5292C13.4556 39.3868 13.3129 39.2445 13.0277 39.2445C12.8137 39.2445 12.671 39.2445 12.5284 39.3868C12.3858 39.5292 12.3144 39.7427 12.2431 40.0274L12.1718 40.668Z" fill="#1B1464"/>
    <path d="M11.4585 35.33C11.3872 35.6858 11.4585 36.0417 11.6725 36.3264C11.8864 36.6111 12.243 36.8246 12.7423 36.8958C13.2416 37.0382 13.6695 37.0382 13.9548 36.8246C14.2401 36.6823 14.4541 36.3976 14.5967 36.0417C14.668 35.8994 14.668 35.6858 14.668 35.5435C14.668 35.4011 14.668 35.1876 14.668 34.9741L15.2386 35.1164C15.3099 35.4723 15.2386 35.8282 15.1673 36.2552C15.0246 36.8246 14.7393 37.2517 14.3114 37.4652C13.8835 37.6787 13.3129 37.7499 12.671 37.5364C12.243 37.4652 11.8864 37.2517 11.6011 37.0382C11.3158 36.8246 11.1019 36.5399 11.0305 36.1841C10.9592 35.8282 10.9592 35.4723 11.0305 35.1164C11.1019 34.6894 11.3158 34.3335 11.6011 34.0488L12.1004 34.4047C12.0291 34.547 11.8864 34.6894 11.8151 34.8317C11.5298 34.9741 11.4585 35.1164 11.4585 35.33Z" fill="#1B1464"/>
    <path d="M16.5222 31.3441L16.2369 32.127L13.6692 33.0523L15.6663 33.7641L15.4523 34.4046L11.5295 33.0523L11.7435 32.4117L13.6692 33.0523L12.2428 30.7747L12.4567 30.063L13.8119 32.2694L16.5222 31.3441Z" fill="#1B1464"/>
    <path d="M16.3083 26.7178C16.9502 27.0025 17.3068 27.3584 17.5208 27.8566C17.7348 28.3548 17.7348 28.853 17.4495 29.4224C17.1642 29.9918 16.8076 30.3477 16.3083 30.49C15.809 30.6324 15.2384 30.5612 14.6679 30.2765C14.0973 29.9918 13.598 29.6359 13.4554 29.1377C13.2414 28.7107 13.3127 28.1413 13.5267 27.5719C13.812 27.0025 14.1686 26.6466 14.6679 26.5043C15.1671 26.3619 15.6664 26.4331 16.3083 26.7178ZM14.9532 29.5648C15.4524 29.7783 15.809 29.8495 16.1656 29.7783C16.5223 29.7071 16.7362 29.4936 16.8789 29.0666C17.0215 28.7107 17.0215 28.3548 16.8789 28.0701C16.7362 27.7854 16.3796 27.5007 15.9517 27.2872C15.4524 27.0737 15.0958 27.0025 14.7392 27.0737C14.3826 27.1448 14.1686 27.3584 14.026 27.7142C13.8833 28.0701 13.8833 28.426 14.026 28.7107C14.1686 29.1377 14.5252 29.3512 14.9532 29.5648Z" fill="#1B1464"/>
    <path d="M19.7315 24.796L18.5904 26.86L14.9529 24.796L16.0941 22.7319L16.5933 23.0166L15.8088 24.4401L16.8073 25.0095L17.5918 23.6572L18.0911 23.9419L17.3065 25.2942L18.4477 25.9348L19.3036 24.4401L19.7315 24.796Z" fill="#1B1464"/>
    <path d="M19.0896 18.3901L19.5888 18.746L18.519 20.1695L21.4433 22.2336L21.0153 22.803L17.5918 20.383L19.0896 18.3901Z" fill="#1B1464"/>
    <path d="M23.6542 16.184C24.1535 16.6111 24.4388 17.1093 24.5101 17.6075C24.5814 18.1057 24.3675 18.604 24.0108 19.1022C23.5829 19.6004 23.155 19.8139 22.6557 19.8139C22.1564 19.8139 21.6572 19.6004 21.0866 19.1733C20.5873 18.7463 20.302 18.2481 20.2307 17.7499C20.1594 17.2516 20.3734 16.7534 20.73 16.2552C21.1579 15.757 21.5858 15.5435 22.0851 15.5435C22.5844 15.5435 23.155 15.757 23.6542 16.184ZM21.5858 18.604C21.9425 18.9598 22.3704 19.1022 22.6557 19.1022C22.941 19.1022 23.2976 18.9598 23.5829 18.6751C23.8682 18.3904 23.9395 18.0346 23.8682 17.7499C23.7969 17.394 23.5829 17.1093 23.155 16.7534C22.7983 16.3975 22.3704 16.2552 22.0851 16.2552C21.7998 16.2552 21.4432 16.3975 21.1579 16.6822C20.8726 16.9669 20.8013 17.3228 20.8726 17.6787C20.9439 17.9634 21.1579 18.2481 21.5858 18.604Z" fill="#1B1464"/>
    <path d="M25.7938 12.9812C26.0791 13.2659 26.2218 13.6218 26.1505 13.9777C26.0791 14.3336 25.8652 14.6894 25.5086 15.0453L25.2233 15.33L26.2931 16.4688L25.7938 16.967L22.9409 13.9777L23.7968 13.1236C24.1534 12.7677 24.51 12.5542 24.8666 12.5542C25.2233 12.5542 25.5086 12.6965 25.7938 12.9812ZM24.8666 14.9741L25.1519 14.6894C25.4372 14.4759 25.5799 14.1912 25.5799 14.0489C25.5799 13.8353 25.5086 13.6218 25.3659 13.4795C25.2233 13.3371 25.0093 13.1948 24.8666 13.2659C24.6527 13.2659 24.4387 13.4083 24.2247 13.6218L23.8681 13.9777L24.8666 14.9741Z" fill="#1B1464"/>
    <path d="M30.0028 10.6321C30.4308 11.1303 30.6447 11.6997 30.5734 12.1979C30.5734 12.6961 30.2881 13.1232 29.7889 13.5502C29.2896 13.9773 28.7903 14.1196 28.2911 14.0484C27.7918 13.9773 27.3639 13.6214 26.8646 13.1232C26.4367 12.5538 26.2227 12.0556 26.294 11.5573C26.3654 11.0591 26.5793 10.6321 27.0786 10.205C27.5779 9.84916 28.0771 9.63564 28.5764 9.77799C29.0756 9.77799 29.5749 10.1339 30.0028 10.6321ZM27.5065 12.625C27.7918 13.052 28.1484 13.2655 28.5051 13.3367C28.8617 13.4079 29.147 13.3367 29.5036 13.052C29.7889 12.7673 30.0028 12.4826 30.0028 12.1979C30.0028 11.842 29.8602 11.4862 29.5036 11.0591C29.2183 10.6321 28.8617 10.4186 28.5051 10.3474C28.1484 10.2762 27.8631 10.3474 27.5065 10.6321C27.1499 10.9168 27.0073 11.2015 27.0073 11.4862C27.0073 11.7709 27.1499 12.1979 27.5065 12.625Z" fill="#1B1464"/>
    <path d="M31.2145 11.6289L31.4998 11.4866C31.4285 10.9172 31.3571 10.2766 31.1432 9.70721C30.9292 9.06664 30.7152 8.49725 30.4299 7.92785L32.2843 6.78906L34.2101 9.77839L34.638 9.49369L35.5652 10.9884L34.9946 11.3442L34.3527 10.3478L31.999 11.8424L32.6409 12.8389L32.0704 13.1948L31.2145 11.6289ZM31.2145 8.0702C31.4285 8.42608 31.5711 8.9243 31.7851 9.49369C31.999 10.0631 32.0704 10.5613 32.0704 11.0595L33.5681 10.0631L31.9277 7.57198L31.2145 8.0702Z" fill="#1B1464"/>
    <path d="M35.3514 5.5787C34.9948 5.79222 34.7809 6.00575 34.7095 6.36162C34.6382 6.71749 34.7095 7.07336 34.9235 7.57158C35.1375 7.99863 35.4228 8.3545 35.7794 8.42568C36.0647 8.56803 36.4213 8.56802 36.7779 8.3545C36.9206 8.28333 37.0632 8.21215 37.2058 8.06981C37.3485 7.92746 37.4911 7.85628 37.6338 7.71393L37.9191 8.21215C37.7051 8.49685 37.3485 8.71037 36.9919 8.9239C36.4213 9.20859 35.922 9.27977 35.4941 9.06625C35.0662 8.85272 34.6382 8.49685 34.3529 7.85628C34.139 7.50041 34.0676 7.07336 34.0676 6.71749C34.0676 6.36162 34.139 6.00575 34.3529 5.72105C34.5669 5.43635 34.7809 5.22283 35.2088 5.00931C35.5654 4.79578 35.9934 4.72461 36.35 4.72461L36.4213 5.36518C36.2786 5.36518 36.136 5.36518 35.922 5.43635C35.7081 5.43635 35.5654 5.50753 35.3514 5.5787Z" fill="#1B1464"/>
    <path d="M41.699 6.78884L40.9857 7.07354L38.5607 5.7924L39.3453 7.78529L38.7034 8.06998L37.1343 4.22657L37.7762 3.94187L38.5607 5.7924L39.3453 3.3013L40.0585 3.0166L39.274 5.5077L41.699 6.78884Z" fill="#1B1464"/>
    <path d="M45.0507 3.5861C45.2646 4.22667 45.2646 4.79606 45.0507 5.22311C44.8367 5.65016 44.4088 6.00603 43.8382 6.14838C43.2676 6.3619 42.697 6.29073 42.2691 6.00603C41.8411 5.72133 41.4845 5.29428 41.3419 4.65372C41.1279 4.01315 41.1279 3.44375 41.3419 3.0167C41.5558 2.58966 41.9838 2.23379 42.5544 2.09144C43.1249 1.87791 43.6955 1.94909 44.1235 2.23379C44.5514 2.44731 44.908 2.94553 45.0507 3.5861ZM41.9838 4.51137C42.1264 5.00959 42.3404 5.36546 42.6257 5.50781C42.911 5.72133 43.2676 5.72133 43.6242 5.65016C43.9808 5.50781 44.2661 5.29429 44.4088 5.00959C44.5514 4.72489 44.5514 4.29784 44.3374 3.79962C44.1948 3.3014 43.9808 2.94553 43.6955 2.80318C43.4102 2.58966 43.1249 2.58966 42.697 2.66083C42.2691 2.80318 42.0551 3.0167 41.9125 3.3014C41.8411 3.5861 41.8411 4.01315 41.9838 4.51137Z" fill="#1B1464"/>
    <path d="M48.7603 4.93828L46.4779 5.4365L45.6221 1.37957L47.9044 0.881348L48.0471 1.45074L46.4066 1.80661L46.6206 2.9454L48.1897 2.66071L48.3323 3.2301L46.7632 3.5148L47.0485 4.79593L48.689 4.44006L48.7603 4.93828Z" fill="#1B1464"/>
    <path d="M53.824 3.08781C53.8953 3.94191 53.396 4.36895 52.3262 4.5113L51.1137 4.65365L50.7571 0.525534L53.3247 0.312012L53.396 0.881406L51.4703 0.952581L51.5416 2.09137L52.0409 2.0202C53.1107 1.94902 53.7527 2.30489 53.824 3.08781ZM51.6843 3.94191L52.1835 3.87073C52.5402 3.87073 52.7541 3.79956 52.8968 3.65721C53.0394 3.51486 53.1107 3.37251 53.1107 3.08781C53.1107 2.87429 52.9681 2.73194 52.8255 2.58959C52.6828 2.51842 52.3975 2.44724 52.0409 2.51842L51.613 2.58959L51.6843 3.94191Z" fill="#1B1464"/>
    <path d="M59.9574 2.30492C59.9574 3.01667 59.7434 3.51489 59.4581 3.87076C59.1015 4.22663 58.6736 4.44015 58.103 4.36898C57.5324 4.36898 57.1045 4.15546 56.8192 3.79958C56.5339 3.44371 56.3199 2.94549 56.3199 2.3761H55.3927L55.3214 4.22663H54.6082L54.6795 0.0273438H55.3927L55.3214 1.73553H56.2486C56.3199 1.16613 56.5339 0.739087 56.8192 0.45439C57.1758 0.169693 57.6037 0.0273438 58.103 0.0273438C58.6736 0.0273438 59.1728 0.240866 59.4581 0.596738C59.7434 0.95261 59.9574 1.59318 59.9574 2.30492ZM56.9618 2.23375C56.9618 2.73197 57.0331 3.15901 57.2471 3.44371C57.4611 3.72841 57.7464 3.87076 58.103 3.87076C58.4596 3.87076 58.7449 3.72841 58.9589 3.51489C59.1728 3.30136 59.2442 2.87432 59.2442 2.3761C59.2442 1.87788 59.1728 1.45083 58.9589 1.23731C58.7449 0.952609 58.4596 0.810262 58.103 0.810262C57.7464 0.810262 57.4611 0.95261 57.2471 1.16613C57.1045 1.30848 56.9618 1.73553 56.9618 2.23375Z" fill="#1B1464"/>
    <path d="M63.8089 2.01994C63.7376 2.44698 63.5949 2.73168 63.2383 2.9452C62.953 3.15873 62.5251 3.2299 61.9545 3.15873L61.5265 3.08755L61.3126 4.65339L60.6707 4.58221L61.2412 0.454102L62.4537 0.596449C62.953 0.667624 63.3809 0.809973 63.5949 1.09467C63.8089 1.30819 63.8802 1.59289 63.8089 2.01994ZM61.6692 2.51816L62.0258 2.58933C62.3824 2.66051 62.6677 2.58933 62.8104 2.51816C62.953 2.44698 63.0957 2.23346 63.0957 2.01994C63.0957 1.80641 63.0956 1.59289 62.953 1.45054C62.8104 1.30819 62.5964 1.23702 62.3111 1.16585L61.8118 1.09467L61.6692 2.51816Z" fill="#1B1464"/>
    <path d="M68.3028 3.87087C68.1602 4.51144 67.8749 5.00966 67.447 5.29436C67.019 5.57906 66.5198 5.65023 65.8779 5.50788C65.236 5.36553 64.808 5.08084 64.5941 4.65379C64.3801 4.22674 64.3088 3.65735 64.4514 3.01678C64.5941 2.37621 64.8793 1.87799 65.3073 1.59329C65.7352 1.30859 66.2345 1.23742 66.8764 1.37977C67.447 1.52212 67.8749 1.80681 68.1602 2.23386C68.4455 2.66091 68.4455 3.15913 68.3028 3.87087ZM65.1646 3.08795C65.022 3.58617 65.0933 4.01322 65.236 4.29792C65.3786 4.58262 65.6639 4.79614 66.0205 4.86731C66.4485 4.93849 66.7337 4.86731 67.019 4.72496C67.3043 4.51144 67.447 4.15557 67.5896 3.65735C67.7323 3.15913 67.6609 2.73208 67.5896 2.44738C67.447 2.16269 67.1617 1.94916 66.8051 1.87799C66.3771 1.80682 66.0918 1.87799 65.8065 2.02034C65.4499 2.23386 65.3073 2.58973 65.1646 3.08795Z" fill="#1B1464"/>
    <path d="M74.2225 5.93508C74.0085 6.57565 73.6519 7.00269 73.1526 7.21622C72.7247 7.42974 72.1541 7.42974 71.5835 7.21622C71.0129 7.00269 70.585 6.64682 70.4423 6.1486C70.2997 5.65038 70.2997 5.15216 70.585 4.51159C70.8703 3.87102 71.1556 3.44398 71.6548 3.23045C72.0828 3.01693 72.6533 3.01693 73.2239 3.23045C73.7945 3.44398 74.1511 3.79985 74.3651 4.29807C74.5077 4.79629 74.4364 5.36568 74.2225 5.93508ZM71.2269 4.79629C71.0129 5.29451 71.0129 5.65038 71.0842 6.00625C71.1556 6.36212 71.4409 6.57565 71.7975 6.718C72.1541 6.86034 72.5107 6.86034 72.796 6.718C73.0813 6.57565 73.2953 6.21977 73.5092 5.72155C73.7232 5.22333 73.7232 4.86746 73.6519 4.51159C73.5805 4.15572 73.2953 3.9422 72.9386 3.79985C72.582 3.6575 72.2254 3.6575 71.9401 3.79985C71.6548 4.01337 71.4409 4.29807 71.2269 4.79629Z" fill="#1B1464"/>
    <path d="M77.2896 9.20885L77.7888 9.49355L77.0043 10.9882L76.4337 10.7035L76.933 9.70708L74.1514 8.28359L76.0771 4.58252L76.719 4.86722L75.0786 8.07007L76.719 8.92416L78.3594 5.72131L79.0013 6.00601L77.2896 9.20885Z" fill="#1B1464"/>
    <path d="M79.9995 11.5576L78.0024 10.2765L80.2135 6.71777L82.2105 7.99891L81.9252 8.49713L80.4987 7.57187L79.8568 8.49713L81.212 9.35122L80.9267 9.84944L79.5715 8.99535L78.8583 10.1341L80.2848 11.0594L79.9995 11.5576Z" fill="#1B1464"/>
    <path d="M83.2803 14.049L82.7097 13.622L83.8509 12.1273L82.3531 10.9885L81.2119 12.4832L80.6414 12.0561L83.209 8.71094L83.7796 9.13799L82.7097 10.4903L84.2075 11.6291L85.2774 10.2768L85.848 10.7038L83.2803 14.049Z" fill="#1B1464"/>
    <path d="M86.4186 16.8958L85.848 16.3264L85.9907 13.6218L84.5642 15.1876L84.0649 14.6894L86.9179 11.6289L87.4171 12.1271L86.062 13.6218L88.701 13.2659L89.2715 13.7641L86.6326 14.12L86.4186 16.8958Z" fill="#1B1464"/>
    <path d="M89.842 14.4048L90.27 14.903L88.6295 16.3265C88.4869 16.4688 88.2729 16.6112 88.1303 16.7535C87.9163 16.8959 87.845 16.9671 87.7737 17.0382L91.6964 16.3977L92.1957 16.9671L89.0575 19.7429L88.6295 19.2446L90.27 17.8212C90.4839 17.6076 90.8406 17.3229 91.1972 17.0382L87.2744 17.6788L86.7751 17.1094L89.842 14.4048Z" fill="#1B1464"/>
    <path d="M94.1213 19.5293L94.4779 20.0275L92.6948 21.2375C92.4809 21.3798 92.3382 21.451 92.1243 21.5934C91.9103 21.7357 91.7676 21.8069 91.6963 21.8069L95.6904 21.7357L96.1184 22.3763L92.6235 24.6539L92.2669 24.1556L94.05 22.9457C94.3353 22.7321 94.6919 22.5898 95.0485 22.3051L91.0544 22.3763L90.6265 21.7357L94.1213 19.5293Z" fill="#1B1464"/>
    <path d="M97.4732 26.1483C97.3305 25.8636 97.1165 25.5789 96.8313 25.3654L97.2592 24.8672C97.6158 25.1519 97.8298 25.5078 98.0437 25.8636C98.329 26.433 98.329 26.9312 98.1864 27.4295C97.9724 27.9277 97.6158 28.2836 97.0452 28.5683C96.4033 28.8529 95.8327 28.9241 95.3335 28.7818C94.8342 28.6394 94.4776 28.2836 94.1923 27.7142C93.9783 27.3583 93.907 26.9312 93.8357 26.5754L94.2636 26.2907C94.2636 26.5042 94.335 26.6465 94.4063 26.8601C94.4776 27.0024 94.5489 27.2159 94.6202 27.3583C94.8342 27.7853 95.0482 27.9989 95.3335 28.1412C95.6188 28.2124 95.9754 28.2124 96.4033 27.9989L95.5474 26.2907L96.0467 26.006L96.9026 27.7142C97.2592 27.5006 97.4732 27.2871 97.5445 27.0024C97.6158 26.7177 97.6158 26.433 97.4732 26.1483Z" fill="#1B1464"/>
    <path d="M96.5469 33.2657L96.2616 32.4828L97.6168 30.1341L95.6197 30.917L95.4058 30.2764L99.3285 28.7817L99.5425 29.4223L97.6168 30.1341L100.113 30.9881L100.398 31.6999L97.9021 30.8458L96.5469 33.2657Z" fill="#1B1464"/>
    <path d="M100.684 34.4046C100.541 34.0487 100.327 33.764 100.042 33.6217C99.685 33.4793 99.3284 33.4793 98.8291 33.6217C98.3299 33.764 97.9733 33.9775 97.8306 34.2622C97.6166 34.5469 97.6166 34.9028 97.688 35.2587C97.7593 35.401 97.8306 35.6145 97.9019 35.7569C97.9733 35.8992 98.0446 36.0416 98.1872 36.1839L97.6166 36.3263C97.4027 36.0416 97.26 35.6857 97.1174 35.3298C96.9747 34.7604 96.9747 34.2622 97.26 33.8352C97.5453 33.4081 97.9733 33.1234 98.6865 32.9099C99.1144 32.7676 99.4711 32.7676 99.8277 32.8387C100.184 32.9099 100.47 33.0523 100.755 33.2658C101.04 33.4793 101.183 33.8352 101.325 34.1911C101.468 34.6181 101.468 34.974 101.397 35.401L100.755 35.3298C100.755 35.1875 100.826 35.0451 100.826 34.8316C100.755 34.6893 100.684 34.5469 100.684 34.4046Z" fill="#1B1464"/>
    <path d="M98.1873 40.3122L98.0447 39.6716L101.611 39.031L101.254 37.2517L97.6881 37.8922L97.5454 37.2517L101.682 36.4688L102.253 39.6004L98.1873 40.3122Z" fill="#1B1464"/>
    <path d="M98.6149 43.6571L98.4009 41.3084L102.538 40.8813L102.752 43.2301L102.181 43.3013L102.038 41.6643L100.897 41.8066L101.04 43.3724L100.469 43.4436L100.327 41.8778L99.0428 42.0201L99.1854 43.6571H98.6149Z" fill="#1B1464"/>
    <path d="M101.61 47.2161C101.182 47.2161 100.825 47.0738 100.612 46.7891C100.398 46.5044 100.255 46.0773 100.255 45.5791V45.1521H98.6858V44.4403L102.894 44.3691V45.5791C102.894 46.0773 102.823 46.5044 102.609 46.7891C102.395 47.0738 102.038 47.2161 101.61 47.2161ZM100.754 45.1521V45.5079C100.754 45.8638 100.825 46.1485 100.968 46.2908C101.111 46.4332 101.253 46.5044 101.539 46.5044C101.753 46.5044 101.967 46.4332 102.038 46.2908C102.109 46.1485 102.181 45.935 102.181 45.5791V45.0809L100.754 45.1521Z" fill="#1B1464"/>
    <path d="M98.615 49.4933L98.6863 48.7816L102.252 48.9951L102.324 47.7852H102.894L102.752 50.9168H102.181L102.252 49.7069L98.615 49.4933Z" fill="#1B1464"/>
    <path d="M102.608 51.8421L102.537 52.4827L100.397 52.198C100.183 52.198 99.9695 52.1268 99.6842 52.0556C99.4702 51.9845 99.3276 51.9845 99.2562 51.9845L102.252 54.5467L102.109 55.3297L97.9724 54.6891L98.0437 54.0485L100.183 54.3332C100.54 54.4044 100.897 54.4756 101.396 54.5467L98.4004 51.9133L98.543 51.1304L102.608 51.8421Z" fill="#1B1464"/>
    <path d="M100.184 59.031C99.8989 58.9598 99.7563 58.8175 99.6136 58.604C99.471 58.3904 99.471 58.1057 99.471 57.821C99.3283 58.1769 99.1857 58.3904 98.9717 58.5328C98.7578 58.6751 98.5438 58.7463 98.2585 58.6751C97.9019 58.604 97.6166 58.3904 97.4739 58.0346C97.3313 57.6787 97.3313 57.2516 97.4739 56.7534C97.6166 56.184 97.7592 55.8282 98.0445 55.5435L98.6151 55.6858C98.4725 55.8282 98.4011 56.0417 98.2585 56.2552C98.1872 56.4687 98.1158 56.6822 98.0445 56.8246C97.9019 57.5363 98.0445 57.9634 98.4725 58.0346C98.6864 58.1057 98.9004 58.0346 99.043 57.821C99.1857 57.6075 99.3283 57.3228 99.471 56.8958L99.6136 56.3976L100.113 56.5399L99.9702 56.9669C99.7563 57.7499 99.8989 58.2481 100.327 58.3193C100.47 58.3904 100.683 58.3193 100.755 58.2481C100.897 58.1057 100.969 57.9634 101.04 57.6787C101.111 57.4652 101.111 57.3228 101.111 57.1093C101.111 56.8958 101.04 56.6822 100.969 56.4687L101.468 56.2552C101.682 56.7534 101.682 57.2516 101.539 57.821C101.468 58.2481 101.254 58.5328 101.04 58.7463C100.826 58.9598 100.541 59.1022 100.184 59.031Z" fill="#1B1464"/>
    <path d="M95.5486 62.8743L95.7626 62.2337L99.6853 63.6572L99.4714 64.2978L95.5486 62.8743ZM97.1177 62.1625C96.7611 62.0202 96.4758 61.8067 96.3331 61.4508C96.1905 61.0949 96.2618 60.7391 96.4045 60.2408L96.8324 59.1021L100.755 60.5255L100.541 61.1661L98.9721 60.5967L98.8294 61.0238C98.6868 61.522 98.4015 61.8778 98.1162 62.0202C97.8309 62.2337 97.4743 62.2337 97.1177 62.1625ZM97.189 59.9561L97.0464 60.3832C96.975 60.6679 96.9037 60.8814 96.9751 61.0949C97.0464 61.3085 97.189 61.3796 97.403 61.522C97.617 61.5931 97.8309 61.5931 97.9736 61.4508C98.1162 61.3796 98.2589 61.0949 98.4015 60.8102L98.5442 60.4544L97.189 59.9561Z" fill="#1B1464"/>
    <path d="M48.0472 97.8206C47.6193 97.8206 47.334 97.6782 47.12 97.4647C46.9061 97.2512 46.7634 96.8953 46.7634 96.3971C46.7634 95.8989 46.9061 95.543 47.12 95.3295C47.334 95.0448 47.6906 94.9736 48.1186 94.9736C48.4039 94.9736 48.6891 95.0448 48.9031 95.116L48.6891 95.6142C48.4039 95.543 48.2612 95.4718 48.0472 95.4718C47.548 95.4718 47.334 95.7565 47.334 96.3971C47.334 96.6818 47.4053 96.9665 47.548 97.1089C47.6906 97.2512 47.8333 97.3224 48.0472 97.3224C48.3325 97.3224 48.5465 97.2512 48.7605 97.1089V97.6071C48.6891 97.6782 48.5465 97.6782 48.4039 97.7494C48.2612 97.8206 48.2612 97.8206 48.0472 97.8206Z" fill="#1B1464"/>
    <path d="M52.398 97.75H51.8274V95.4013C51.8274 95.1166 51.8274 94.903 51.8274 94.7607C51.7561 94.8319 51.7561 94.8319 51.6847 94.903C51.6134 94.9742 51.4708 95.1166 51.1142 95.3301L50.8289 94.9742L51.8987 94.1201H52.398V97.75Z" fill="#1B1464"/>
    <path d="M56.0361 95.6854C56.0361 96.3971 55.8934 96.9665 55.6081 97.3224C55.3228 97.6783 54.8949 97.8918 54.3243 97.8918C54.1103 97.8918 53.9677 97.8918 53.8251 97.8206V97.3224C53.9677 97.3936 54.1103 97.3935 54.253 97.3935C54.6809 97.3935 54.9662 97.2512 55.1802 97.0377C55.3942 96.8241 55.4655 96.4683 55.5368 96.0412C55.4655 96.1836 55.3228 96.3259 55.1802 96.3971C55.0375 96.4683 54.8949 96.4683 54.6809 96.4683C54.3243 96.4683 54.1103 96.3971 53.8964 96.1836C53.6824 95.9701 53.6111 95.6854 53.6111 95.3295C53.6111 94.9736 53.7537 94.6177 53.9677 94.4042C54.1817 94.1907 54.467 94.0483 54.8236 94.0483C55.1089 94.0483 55.3228 94.1195 55.5368 94.2619C55.7508 94.4042 55.8934 94.5466 55.9647 94.8313C56.0361 95.0448 56.0361 95.3295 56.0361 95.6854ZM54.7522 94.5466C54.5383 94.5466 54.3956 94.6177 54.253 94.7601C54.1103 94.9024 54.1103 95.0448 54.1103 95.3295C54.1103 95.543 54.1817 95.6854 54.253 95.8277C54.3243 95.9701 54.5383 96.0412 54.6809 96.0412C54.8949 96.0412 55.0375 95.9701 55.1802 95.8277C55.3228 95.6854 55.3942 95.543 55.3942 95.4007C55.3942 95.2583 55.3942 95.116 55.3228 94.9736C55.2515 94.8313 55.1802 94.7601 55.1089 94.6889C55.0375 94.5466 54.8949 94.5466 54.7522 94.5466Z" fill="#1B1464"/>
    <path d="M58.9592 95.6854C58.9592 96.3971 58.8165 96.9665 58.5312 97.3224C58.2459 97.6783 57.818 97.8918 57.2474 97.8918C57.0334 97.8918 56.8908 97.8918 56.7482 97.8206V97.3224C56.8908 97.3936 57.0334 97.3935 57.1761 97.3935C57.604 97.3935 57.8893 97.2512 58.1033 97.0377C58.3173 96.8241 58.3886 96.4683 58.4599 96.0412C58.3886 96.1836 58.2459 96.3259 58.1033 96.3971C57.9606 96.4683 57.818 96.4683 57.604 96.4683C57.2474 96.4683 57.0334 96.3971 56.8195 96.1836C56.6055 95.9701 56.5342 95.6854 56.5342 95.3295C56.5342 94.9736 56.6768 94.6177 56.8908 94.4042C57.1048 94.1907 57.3901 94.0483 57.7467 94.0483C58.032 94.0483 58.2459 94.1195 58.4599 94.2619C58.6739 94.4042 58.8165 94.5466 58.8878 94.8313C58.9592 95.0448 58.9592 95.3295 58.9592 95.6854ZM57.6753 94.5466C57.4614 94.5466 57.3187 94.6177 57.1761 94.7601C57.0334 94.9024 57.0334 95.0448 57.0334 95.3295C57.0334 95.543 57.1048 95.6854 57.1761 95.8277C57.2474 95.9701 57.4614 96.0412 57.604 96.0412C57.818 96.0412 57.9606 95.9701 58.1033 95.8277C58.2459 95.6854 58.3173 95.543 58.3173 95.4007C58.3173 95.2583 58.3173 95.116 58.2459 94.9736C58.1746 94.8313 58.1033 94.7601 58.032 94.6889C57.9606 94.5466 57.818 94.5466 57.6753 94.5466Z" fill="#1B1464"/>
    <path d="M59.8865 97.75L61.3129 94.6183H59.3872V94.1201H61.9548V94.5472L60.5284 97.8212H59.8865V97.75Z" fill="#1B1464"/>
    <path d="M65.7355 94.9735V95.4006H64.523V97.6782H63.9524V94.9023H65.7355V94.9735Z" fill="#1B1464"/>
    <path d="M66.1631 97.4648C66.1631 97.3224 66.1631 97.2512 66.2344 97.1801C66.3057 97.1089 66.3771 97.1089 66.5197 97.1089C66.6623 97.1089 66.7337 97.1089 66.805 97.1801C66.8763 97.2512 66.8763 97.3224 66.8763 97.4648C66.8763 97.6071 66.8763 97.6783 66.805 97.7495C66.7337 97.8206 66.6623 97.8206 66.5197 97.8206C66.3771 97.8206 66.3057 97.8206 66.2344 97.7495C66.1631 97.6783 66.1631 97.5359 66.1631 97.4648Z" fill="#1B1464"/>
    <path d="M86.0625 86.8599H112.309L108.743 78.6748L112.309 70.4897H86.0625V86.8599Z" fill="#C60C0C"/>
    <path d="M26.579 86.8599H0.332031L3.89819 78.6748L0.332031 70.4897H26.6503V86.8599H26.579Z" fill="#C60C0C"/>
    <path d="M56.32 9.35107L57.2472 11.2016L59.2443 11.4863L57.8178 12.981L58.1744 14.9738L56.32 14.0486L54.5369 14.9738L54.8222 12.981L53.3958 11.4863L55.3928 11.2016L56.32 9.35107Z" fill="#FF443B"/>
    <path d="M101.896 75.3298L86.0627 70.49V38.248H62.312L59.6018 27.0024V75.2587H62.4547V41.095H83.2097V78.9597C83.2097 86.5042 78.7877 93.337 71.8693 96.3975L56.3209 103.373L40.7724 96.3975C33.8541 93.337 29.4321 86.5042 29.4321 78.9597V41.095H50.1871V75.3298H53.04V27.0024L50.3298 38.248H26.5791V70.49L10.6741 75.3298H26.5791V78.9597C26.5791 87.5718 31.7144 95.4722 39.56 99.0309L56.2496 106.504L72.9392 99.0309C80.8561 95.4722 85.92 87.643 85.92 78.9597V75.3298H101.896Z" fill="#1B1464"/>
    <path d="M48.3329 75.3298V52.9098L45.48 45.4365V75.3298H48.3329Z" fill="#1B1464"/>
    <path d="M43.6249 75.3293V69.1372L40.772 71.5571V75.3293H43.6249Z" fill="#1B1464"/>
    <path d="M38.9184 75.3293V71.5571L36.0654 69.1372V75.3293H38.9184Z" fill="#1B1464"/>
    <path d="M57.7475 23.7283L56.321 17.8208L54.8945 23.7283V75.3297H57.7475V23.7283Z" fill="#1B1464"/>
    <path d="M64.3091 52.9098V75.3298H67.162V45.4365L64.3091 52.9098Z" fill="#1B1464"/>
    <path d="M71.869 71.5571L69.0161 69.1372V75.3293H71.869V71.5571Z" fill="#1B1464"/>
    <path d="M73.7236 71.5571V75.3293H76.5766V69.1372L73.7236 71.5571Z" fill="#1B1464"/>
    <path d="M101.896 75.3296H10.7454V92.1267H101.896V75.3296Z" fill="#FF3131"/>
    <path d="M20.4452 82.5186L18.8048 87.0737H17.9489L16.3085 82.5898L16.4511 85.2944V86.2908L17.093 86.4332V87.1449H14.5254V86.4332L15.1673 86.2908V81.878L14.5254 81.7357V81.0239H15.1673H16.8077L18.3768 85.5079L19.946 81.0239H22.2283V81.7357L21.5864 81.878V86.2908L22.2283 86.4332V87.1449H19.6607V86.4332L20.3026 86.2908V85.2944L20.4452 82.5186Z" fill="white"/>
    <path d="M22.6555 84.7248C22.6555 84.0131 22.8695 83.5149 23.2261 83.0878C23.5827 82.6608 24.1533 82.4473 24.7952 82.4473C25.4371 82.4473 26.0077 82.6608 26.3643 83.0878C26.7209 83.5149 26.9349 84.0843 26.9349 84.7248V84.796C26.9349 85.5078 26.7209 86.006 26.3643 86.433C26.0077 86.8601 25.4371 87.0736 24.7952 87.0736C24.082 87.0736 23.5827 86.8601 23.2261 86.433C22.8695 86.006 22.6555 85.4366 22.6555 84.796V84.7248ZM23.868 84.796C23.868 85.2231 23.9393 85.5789 24.082 85.7925C24.2246 86.0772 24.4386 86.1483 24.7952 86.1483C25.0805 86.1483 25.3658 86.006 25.5084 85.7925C25.6511 85.5789 25.7224 85.2231 25.7224 84.796V84.7248C25.7224 84.2978 25.6511 84.0131 25.5084 83.7284C25.3658 83.4437 25.1518 83.3725 24.7952 83.3725C24.4386 83.3725 24.2246 83.5149 24.082 83.7284C23.9393 84.0131 23.868 84.2978 23.868 84.7248V84.796Z" fill="white"/>
    <path d="M29.646 86.1487C29.86 86.1487 30.074 86.0775 30.1453 85.9352C30.2879 85.7928 30.3593 85.6505 30.3593 85.437H31.5004C31.5004 85.864 31.3578 86.291 31.0012 86.5757C30.6446 86.8604 30.2166 87.0739 29.646 87.0739C28.9328 87.0739 28.4335 86.8604 28.0769 86.4334C27.7203 86.0063 27.5063 85.4369 27.5063 84.7964V84.654C27.5063 84.0135 27.7203 83.4441 28.0769 83.017C28.4335 82.59 29.0041 82.3765 29.7174 82.3765C30.074 82.3765 30.4306 82.4476 30.7159 82.5188C31.0012 82.6612 31.2865 82.8035 31.4291 83.017V84.227H30.4306L30.2166 83.5152C30.1453 83.4441 30.074 83.4441 30.0027 83.3729C29.9313 83.3017 29.7887 83.3017 29.7174 83.3017C29.3607 83.3017 29.1468 83.4441 29.0041 83.6576C28.8615 83.9423 28.7902 84.227 28.7902 84.654V84.7964C28.7902 85.2234 28.8615 85.5081 29.0041 85.7928C29.0755 86.0775 29.2894 86.1487 29.646 86.1487Z" fill="white"/>
    <path d="M32.0706 86.2911L32.7125 86.1487V81.7359L32.0706 81.5936V80.8818H36.7066V82.4477H35.7794L35.7081 81.8071H33.925V86.1487L34.5669 86.2911V87.0028H31.9993V86.2911H32.0706Z" fill="white"/>
    <path d="M36.5637 84.7248C36.5637 84.0131 36.7777 83.5149 37.1343 83.0878C37.4909 82.6608 38.0615 82.4473 38.7034 82.4473C39.3453 82.4473 39.9159 82.6608 40.2725 83.0878C40.6291 83.5149 40.8431 84.0843 40.8431 84.7248V84.796C40.8431 85.5078 40.6291 86.006 40.2725 86.433C39.9159 86.8601 39.3453 87.0736 38.7034 87.0736C37.9902 87.0736 37.4909 86.8601 37.1343 86.433C36.7777 86.006 36.5637 85.4366 36.5637 84.796V84.7248ZM37.7762 84.796C37.7762 85.2231 37.8475 85.5789 37.9902 85.7925C38.1328 86.0772 38.3468 86.1483 38.7034 86.1483C38.9887 86.1483 39.274 86.006 39.4166 85.7925C39.5593 85.5789 39.6306 85.2231 39.6306 84.796V84.7248C39.6306 84.2978 39.5593 84.0131 39.4166 83.7284C39.274 83.4437 39.06 83.3725 38.7034 83.3725C38.3468 83.3725 38.1328 83.5149 37.9902 83.7284C37.8475 84.0131 37.7762 84.2978 37.7762 84.7248V84.796Z" fill="white"/>
    <path d="M41.343 83.2302V82.5184H43.1261L43.1974 83.0167C43.3401 82.8031 43.4827 82.6608 43.6967 82.5896C43.9107 82.5184 44.1246 82.4473 44.3386 82.4473C44.9092 82.4473 45.3371 82.6608 45.6224 83.0878C45.9077 83.5149 46.1217 84.0843 46.1217 84.796V84.8672C46.1217 85.5078 45.979 86.0772 45.6224 86.5042C45.3371 86.9313 44.9092 87.1448 44.3386 87.1448C44.1246 87.1448 43.9107 87.0736 43.6967 87.0024C43.4827 86.9313 43.3401 86.7889 43.1974 86.6466V87.9989L43.768 88.1412V88.853H41.343V88.1412L41.9136 87.9989V83.4437L41.343 83.2302ZM44.8379 84.796C44.8379 84.369 44.7665 84.0131 44.6239 83.7284C44.4812 83.4437 44.2673 83.3014 43.982 83.3014C43.768 83.3014 43.6254 83.3725 43.4827 83.4437C43.3401 83.5149 43.2687 83.6572 43.1974 83.7996V85.7925C43.2687 85.9348 43.4114 86.006 43.4827 86.0772C43.6254 86.1483 43.768 86.1483 43.982 86.1483C44.2673 86.1483 44.4812 86.006 44.6239 85.7925C44.7665 85.5789 44.8379 85.2231 44.8379 84.8672V84.796Z" fill="white"/>
    <path d="M46.5493 81.7357C46.8346 81.451 47.1199 81.2375 47.4766 81.024C47.8332 80.8816 48.2611 80.7393 48.7604 80.7393C49.6162 80.7393 50.2581 81.024 50.7574 81.5933C51.2567 82.1627 51.542 82.8745 51.542 83.7998V84.0133C51.542 84.9386 51.2567 85.6503 50.7574 86.2197C50.2581 86.7891 49.6162 87.0738 48.7604 87.0738C48.2611 87.0738 47.8332 87.0026 47.4766 86.7891C47.1199 86.6467 46.7633 86.362 46.5493 86.0773V84.8674H47.4766L47.6192 85.6503C47.6905 85.7926 47.9045 85.8638 48.0471 85.935C48.2611 86.0062 48.4751 86.0062 48.689 86.0062C49.117 86.0062 49.5449 85.8638 49.7589 85.5079C50.0442 85.2232 50.1868 84.7962 50.1868 84.298H48.0471V83.3727H50.1868C50.1155 82.8745 49.9729 82.4474 49.7589 82.1627C49.4736 81.878 49.117 81.6645 48.6177 81.6645C48.3324 81.6645 48.1185 81.6645 47.9758 81.7357C47.7618 81.8069 47.6192 81.8781 47.5479 82.0204L47.4052 82.8033H46.478V81.7357H46.5493Z" fill="white"/>
    <path d="M52.1123 83.2302V82.5184H54.5373V83.2302L53.9667 83.3725V84.2266H54.3946L55.1079 83.2302C55.2505 82.9455 55.4645 82.8031 55.6785 82.6608C55.8924 82.5184 56.1064 82.4473 56.3917 82.4473C56.5343 82.4473 56.677 82.4473 56.7483 82.5184C56.891 82.5896 56.9623 82.5896 57.1049 82.6608L56.891 83.5149C56.8196 83.5149 56.7483 83.4437 56.7483 83.4437C56.7483 83.4437 56.677 83.4437 56.6057 83.4437C56.5343 83.4437 56.463 83.4437 56.3204 83.5149C56.249 83.5861 56.1777 83.6572 56.1064 83.7284L55.5358 84.5825L56.6057 86.1483L57.2476 86.2195V86.9312H55.5358L54.5373 85.2231H54.038V86.0772L54.6086 86.2195V86.9312H52.1836V86.2195L52.8255 86.0772V83.2302H52.1123Z" fill="white"/>
    <path d="M59.6731 86.1487C59.8871 86.1487 60.1011 86.0775 60.1724 85.9352C60.315 85.7928 60.3864 85.6505 60.3864 85.437H61.5275C61.5275 85.864 61.3849 86.291 61.0283 86.5757C60.6717 86.8604 60.2437 87.0739 59.6731 87.0739C58.9599 87.0739 58.4607 86.8604 58.104 86.4334C57.7474 86.0063 57.5334 85.4369 57.5334 84.7964V84.654C57.5334 84.0135 57.7474 83.4441 58.104 83.017C58.4607 82.59 59.0312 82.3765 59.7445 82.3765C60.1011 82.3765 60.4577 82.4476 60.743 82.5188C61.0283 82.6612 61.3136 82.8035 61.4562 83.017V84.227H60.4577L60.2437 83.5152C60.1724 83.4441 60.1011 83.4441 60.0298 83.3729C59.9584 83.3017 59.8158 83.3017 59.7445 83.3017C59.3878 83.3017 59.1739 83.4441 59.0312 83.6576C58.8886 83.9423 58.8173 84.227 58.8173 84.654V84.7964C58.8173 85.2234 58.8886 85.5081 59.0312 85.7928C59.1026 86.0775 59.3165 86.1487 59.6731 86.1487Z" fill="white"/>
    <path d="M62.1692 86.2908L62.8111 86.1484V83.3015L62.1692 83.2303V82.5186H67.4471V83.2303L66.8052 83.3726V86.2196L67.4471 86.362V87.0737H65.0221V86.362L65.5214 86.2196V83.515H64.0236V86.2196L64.5229 86.362V87.0737H62.1692V86.2908Z" fill="white"/>
    <path d="M70.2293 87.0739C69.5874 87.0739 69.0168 86.8604 68.6602 86.4334C68.2322 86.0063 68.0896 85.5081 68.0896 84.7964V84.654C68.0896 84.0135 68.3036 83.4441 68.6602 83.017C69.0168 82.59 69.5161 82.3765 70.158 82.3765C70.7999 82.3765 71.2278 82.59 71.5844 82.9459C71.9411 83.3017 72.0837 83.7999 72.0837 84.4405V85.0811H69.3021C69.3021 85.3658 69.4447 85.6505 69.5874 85.7928C69.8014 86.0063 70.0153 86.0775 70.3006 86.0775C70.5859 86.0775 70.7999 86.0775 71.0139 86.0063C71.2278 85.9352 71.3705 85.864 71.5844 85.7216L71.9411 86.5046C71.7271 86.6469 71.5131 86.7893 71.2278 86.8604C70.9425 87.074 70.5859 87.0739 70.2293 87.0739ZM70.0866 83.3017C69.8727 83.3017 69.6587 83.3729 69.5161 83.5864C69.3734 83.7288 69.3021 84.0135 69.3021 84.2982H70.7999V84.1558C70.7999 83.8711 70.7286 83.6576 70.5859 83.5152C70.5146 83.3729 70.3719 83.3017 70.0866 83.3017Z" fill="white"/>
    <path d="M72.582 83.2302V82.5184H74.3651L74.4364 83.0167C74.5791 82.8031 74.7217 82.6608 74.9357 82.5896C75.1497 82.5184 75.3636 82.4473 75.5776 82.4473C76.1482 82.4473 76.5761 82.6608 76.8614 83.0878C77.1467 83.5149 77.3607 84.0843 77.3607 84.796V84.8672C77.3607 85.5078 77.2181 86.0772 76.8614 86.5042C76.5761 86.9313 76.1482 87.1448 75.5776 87.1448C75.3636 87.1448 75.1497 87.0736 74.9357 87.0024C74.7217 86.9313 74.5791 86.7889 74.4364 86.6466V87.9989L75.007 88.1412V88.853H72.582V88.1412L73.1526 87.9989V83.4437L72.582 83.2302ZM76.0769 84.796C76.0769 84.369 76.0056 84.0131 75.8629 83.7284C75.7203 83.4437 75.5063 83.3014 75.221 83.3014C75.007 83.3014 74.8644 83.3725 74.7217 83.4437C74.5791 83.5149 74.5078 83.6572 74.4364 83.7996V85.7925C74.5078 85.9348 74.6504 86.006 74.7217 86.0772C74.8644 86.1483 75.007 86.1483 75.221 86.1483C75.5063 86.1483 75.7203 86.006 75.8629 85.7925C76.0056 85.5789 76.0769 85.2231 76.0769 84.8672V84.796Z" fill="white"/>
    <path d="M82.4249 82.4473V84.0131H81.4977L81.4264 83.3725H80.6418V86.1483L81.2837 86.2907V87.0024H78.7161V86.2907L79.358 86.1483V83.3725H78.5735L78.5021 84.0131H77.575V82.4473H82.4249Z" fill="white"/>
    <path d="M85.4917 82.4473V83.159L84.9211 83.3014V85.2231L86.4189 82.4473H87.6314H88.2733V83.159L87.6314 83.3014V86.1483L88.2733 86.2907V87.0024H85.777V86.2907L86.3476 86.1483V84.2266L84.8498 87.0024H82.9954V86.2907L83.6373 86.1483V83.3014L82.9954 83.159V82.4473H84.8498H85.4917Z" fill="white"/>
    <path d="M90.8406 84.2978C91.0546 84.2978 91.1972 84.2266 91.2685 84.1555C91.3399 84.0843 91.4112 83.9419 91.4112 83.7996C91.4112 83.6572 91.3399 83.5149 91.2685 83.4437C91.1972 83.3725 91.0546 83.3014 90.8406 83.3014C90.6266 83.3014 90.484 83.3725 90.3413 83.4437C90.1987 83.5149 90.1274 83.6572 90.1274 83.7996H88.9149C88.9149 83.3725 89.0575 83.0878 89.4141 82.8031C89.7707 82.5184 90.1987 82.4473 90.6979 82.4473C91.2685 82.4473 91.7678 82.5896 92.0531 82.8031C92.4097 83.0167 92.5524 83.3725 92.5524 83.7996C92.5524 84.0131 92.481 84.2266 92.3384 84.369C92.1957 84.5113 92.0531 84.6537 91.8391 84.796C92.1244 84.8672 92.2671 85.0095 92.4097 85.2231C92.5523 85.4366 92.6237 85.6501 92.6237 85.8636C92.6237 86.2907 92.4097 86.6465 92.0531 86.8601C91.6965 87.0736 91.1972 87.2159 90.6266 87.2159C90.1273 87.2159 89.6281 87.0736 89.2715 86.8601C88.9149 86.6465 88.7009 86.2907 88.7722 85.7925H89.9847C89.9847 85.9348 90.056 86.0772 90.1987 86.1483C90.3413 86.2195 90.484 86.2907 90.7693 86.2907C90.9832 86.2907 91.1972 86.2195 91.2685 86.1483C91.4112 86.006 91.4112 85.9348 91.4112 85.7213C91.4112 85.5078 91.3399 85.3654 91.2685 85.2942C91.1259 85.2231 90.9832 85.1519 90.7693 85.1519H90.1274V84.369H90.8406V84.2978Z" fill="white"/>
    <path d="M96.2624 87.0024C96.2624 86.9312 96.191 86.8601 96.191 86.7889C96.191 86.7177 96.1197 86.6465 96.1197 86.5754C95.9771 86.7177 95.7631 86.8601 95.6204 87.0024C95.4065 87.0736 95.1925 87.1448 94.9072 87.1448C94.4793 87.1448 94.1227 87.0024 93.8374 86.7889C93.5521 86.5754 93.4094 86.2195 93.4094 85.7925C93.4094 85.3654 93.5521 85.0095 93.9087 84.796C94.2653 84.5825 94.7646 84.4401 95.4065 84.4401H96.0484V83.9419C96.0484 83.7284 95.9771 83.5861 95.8344 83.4437C95.6918 83.3014 95.5491 83.2302 95.2638 83.2302C95.1212 83.2302 94.9785 83.2302 94.9072 83.3014C94.7646 83.3014 94.6932 83.3725 94.6219 83.4437L94.5506 83.9419H93.6234V82.9455C93.8374 82.8031 94.1227 82.6608 94.4079 82.5896C94.6932 82.5184 95.0499 82.4473 95.3352 82.4473C95.9057 82.4473 96.3337 82.5896 96.6903 82.8743C97.0469 83.159 97.1896 83.5149 97.1896 84.0843V85.9348C97.1896 86.006 97.1896 86.0772 97.1896 86.1483C97.1896 86.2195 97.1896 86.2907 97.1896 86.2907L97.5462 86.3618V87.0736H96.2624V87.0024ZM95.1925 86.2195C95.4065 86.2195 95.5491 86.1483 95.6918 86.0772C95.8344 86.006 95.9771 85.8636 96.0484 85.7925V85.0807H95.4065C95.1212 85.0807 94.9785 85.1519 94.8359 85.2942C94.6932 85.4366 94.6219 85.5789 94.6219 85.7213C94.6219 85.8636 94.6932 86.006 94.7646 86.0772C94.8359 86.1483 95.0499 86.2195 95.1925 86.2195Z" fill="white"/>
    </svg>
    