<svg width="16" height="23" viewBox="0 0 16 23" fill="none" xmlns="http://www.w3.org/2000/svg">
<path d="M8.36922 11.2018C7.65093 11.2018 6.96205 10.9165 6.45414 10.4086C5.94623 9.90066 5.66089 9.21178 5.66089 8.49349C5.66089 7.7752 5.94623 7.08632 6.45414 6.57841C6.96205 6.0705 7.65093 5.78516 8.36922 5.78516C9.08752 5.78516 9.77639 6.0705 10.2843 6.57841C10.7922 7.08632 11.0776 7.7752 11.0776 8.49349C11.0776 8.84915 11.0075 9.20133 10.8714 9.52992C10.7353 9.85851 10.5358 10.1571 10.2843 10.4086C10.0328 10.6601 9.73425 10.8596 9.40566 10.9957C9.07707 11.1318 8.72489 11.2018 8.36922 11.2018ZM8.36922 0.910156C6.358 0.910156 4.42915 1.70911 3.007 3.13126C1.58484 4.55341 0.785889 6.48226 0.785889 8.49349C0.785889 14.181 8.36922 22.5768 8.36922 22.5768C8.36922 22.5768 15.9526 14.181 15.9526 8.49349C15.9526 6.48226 15.1536 4.55341 13.7314 3.13126C12.3093 1.70911 10.3804 0.910156 8.36922 0.910156Z" fill="white"/>
</svg>
