<svg width="22" height="21" viewBox="0 0 22 21" fill="none" xmlns="http://www.w3.org/2000/svg">
<path d="M11.2331 18.8591C13.4499 18.8591 15.5759 17.9784 17.1434 16.4109C18.7109 14.8435 19.5915 12.7175 19.5915 10.5007C19.5915 8.28392 18.7109 6.15793 17.1434 4.59043C15.5759 3.02294 13.4499 2.14233 11.2331 2.14233C9.01634 2.14233 6.89035 3.02294 5.32286 4.59043C3.75536 6.15793 2.87475 8.28392 2.87475 10.5007C2.87475 12.7175 3.75536 14.8435 5.32286 16.4109C6.89035 17.9784 9.01634 18.8591 11.2331 18.8591ZM11.2331 0.0527344C12.6052 0.0527344 13.9638 0.322979 15.2314 0.848038C16.499 1.3731 17.6508 2.14269 18.6209 3.11287C19.5911 4.08305 20.3607 5.23483 20.8858 6.50243C21.4108 7.77004 21.6811 9.12865 21.6811 10.5007C21.6811 13.2717 20.5803 15.9291 18.6209 17.8885C16.6616 19.8479 14.0041 20.9487 11.2331 20.9487C5.45539 20.9487 0.785156 16.2471 0.785156 10.5007C0.785156 7.72972 1.88592 5.07224 3.84529 3.11287C5.80466 1.1535 8.46214 0.0527344 11.2331 0.0527344ZM11.7555 5.27671V10.7619L16.4571 13.5515L15.6735 14.8366L10.1883 11.5455V5.27671H11.7555Z" fill="white"/>
</svg>
