<svg width="26" height="23" viewBox="0 0 26 23" fill="none" xmlns="http://www.w3.org/2000/svg">
<path d="M1.34332 19.5293H5.00542V21.7265C5.00542 22.131 5.33335 22.4589 5.73784 22.4589H24.8784C25.2829 22.4589 25.6109 22.131 25.6109 21.7265V2.68359C25.6109 2.2791 25.2829 1.95117 24.8784 1.95117H21.2163V1.21875C21.2163 0.814257 20.8884 0.486328 20.4839 0.486328C20.0794 0.486328 19.7515 0.814257 19.7515 1.21875V1.95117H16.0406V1.21875C16.0406 0.814257 15.7126 0.486328 15.3081 0.486328C14.9036 0.486328 14.5757 0.814257 14.5757 1.21875V1.95117H10.9136V1.21875C10.9136 0.814257 10.5857 0.486328 10.1812 0.486328C9.7767 0.486328 9.44877 0.814257 9.44877 1.21875V1.95117H5.73784C5.33335 1.95117 5.00542 2.2791 5.00542 2.68359V7.07811C5.00542 12.4761 2.76202 16.6287 0.874426 18.2342C0.637512 18.4316 0.549671 18.7562 0.654602 19.0462C0.759631 19.3361 1.03492 19.5293 1.34332 19.5293ZM24.146 20.9941H6.47026V19.5293H20.4839C20.6552 19.5293 20.8212 19.4692 20.9528 19.3595C21.8333 18.6261 23.1971 16.8801 24.146 14.6439V20.9941ZM6.47026 3.41601H9.44877V4.14843C9.44877 4.55292 9.7767 4.88085 10.1812 4.88085C10.5857 4.88085 10.9136 4.55292 10.9136 4.14843V3.41601H14.5757V4.14843C14.5757 4.55292 14.9036 4.88085 15.3081 4.88085C15.7126 4.88085 16.0406 4.55292 16.0406 4.14843V3.41601H19.7515V4.14843C19.7515 4.55292 20.0794 4.88085 20.4839 4.88085C20.8884 4.88085 21.2163 4.55292 21.2163 4.14843V3.41601H24.146V6.34569H6.47026V3.41601ZM6.45772 7.81004H24.133C23.968 12.4563 22.1847 16.1119 20.1967 18.0644H3.00928C5.26187 15.1943 6.33687 11.4571 6.45772 7.81004Z" fill="#2673B9"/>
</svg>
