<svg width="40" height="40" viewBox="0 0 40 40" fill="none" xmlns="http://www.w3.org/2000/svg">
<g clip-path="url(#clip0_753:24586)">
<path d="M30.4081 20.0068H33.1285C33.7435 20.0068 34.2439 19.5064 34.2439 18.8914V16.171C34.2439 15.556 33.7435 15.0556 33.1285 15.0556H30.4081C29.7931 15.0556 29.2927 15.556 29.2927 16.171V18.8914C29.2927 19.5064 29.7931 20.0068 30.4081 20.0068ZM30.4353 16.1982H33.1013V18.8642H30.4353V16.1982ZM30.4081 27.2431H33.1285C33.7435 27.2431 34.2439 26.7427 34.2439 26.1277V23.4073C34.2439 22.7923 33.7435 22.2919 33.1285 22.2919H30.4081C29.7931 22.2919 29.2927 22.7923 29.2927 23.4073V26.1277C29.2927 26.7427 29.7931 27.2431 30.4081 27.2431ZM30.4353 23.4345H33.1013V26.1005H30.4353V23.4345ZM22.645 20.0068H25.3654C25.9804 20.0068 26.4808 19.5064 26.4808 18.8914V16.171C26.4808 15.556 25.9804 15.0556 25.3654 15.0556H22.645C22.03 15.0556 21.5296 15.556 21.5296 16.171V18.8914C21.5296 19.5064 22.03 20.0068 22.645 20.0068ZM22.6722 16.1982H25.3382V18.8642H22.6722V16.1982ZM9.83913 29.189H7.11873C6.50371 29.189 6.00334 29.6893 6.00334 30.3043V33.0247C6.00334 33.6398 6.50371 34.1401 7.11873 34.1401H9.83913C10.4541 34.1401 10.9545 33.6398 10.9545 33.0247V30.3043C10.9545 29.6893 10.4541 29.189 9.83913 29.189ZM9.81193 32.9976H7.14592V30.3315H9.81193V32.9976ZM9.83913 15.0556H7.11873C6.50371 15.0556 6.00334 15.556 6.00334 16.171V18.8914C6.00334 19.5064 6.50371 20.0068 7.11873 20.0068H9.83913C10.4541 20.0068 10.9545 19.5064 10.9545 18.8914V16.171C10.9545 15.5559 10.4541 15.0556 9.83913 15.0556ZM9.81193 18.8642H7.14592V16.1982H9.81193V18.8642ZM22.645 27.0734H25.3654C25.9804 27.0734 26.4808 26.5731 26.4808 25.9581V23.2377C26.4808 22.6226 25.9804 22.1223 25.3654 22.1223H22.645C22.03 22.1223 21.5296 22.6226 21.5296 23.2377V25.9581C21.5296 26.5731 22.03 27.0734 22.645 27.0734ZM22.6722 23.2648H25.3382V25.9309H22.6722V23.2648ZM34.8113 3.46374H32.3688V2.59028C32.3688 1.63234 31.5895 0.853027 30.6315 0.853027H30.3692C29.4113 0.853027 28.632 1.63234 28.632 2.59028V3.46374H11.6152V2.59028C11.6152 1.63234 10.8359 0.853027 9.87798 0.853027H9.61564C8.6577 0.853027 7.87839 1.63234 7.87839 2.59028V3.46374H5.43594C3.8588 3.46374 2.57568 4.74686 2.57568 6.324V36.9966C2.57568 38.5717 3.85705 39.853 5.43213 39.853H34.8153C36.3904 39.853 37.6717 38.5717 37.6717 36.9966V6.324C37.6716 4.74686 36.3885 3.46374 34.8113 3.46374ZM29.7746 2.59028C29.7746 2.26236 30.0414 1.99561 30.3693 1.99561H30.6316C30.9595 1.99561 31.2263 2.26236 31.2263 2.59028V3.46374H29.7746V2.59028ZM9.02104 2.59028C9.02104 2.26236 9.2878 1.99561 9.61572 1.99561H9.87805C10.206 1.99561 10.4727 2.26236 10.4727 2.59028V3.46374H9.02112V2.59028H9.02104ZM36.5291 36.9966C36.5291 37.9416 35.7603 38.7104 34.8152 38.7104H5.43205C4.48699 38.7104 3.71819 37.9416 3.71819 36.9966V36.993C4.19685 37.3537 4.79183 37.5679 5.43594 37.5679H28.5985C29.3625 37.5679 30.0808 37.2703 30.621 36.7301L36.5291 30.822V36.9966ZM30.0381 35.6972C30.0829 35.5123 30.1072 35.3195 30.1072 35.1211V31.3076C30.1072 30.5885 30.6923 30.0035 31.4115 30.0035H35.2248C35.4233 30.0035 35.6161 29.9791 35.8009 29.9343L30.0381 35.6972ZM36.5291 11.6278H12.1865C11.871 11.6278 11.6152 11.8836 11.6152 12.1991C11.6152 12.5146 11.871 12.7704 12.1865 12.7704H36.5291V27.5568C36.5291 28.2759 35.944 28.861 35.2248 28.861H31.4115C30.0623 28.861 28.9647 29.9586 28.9647 31.3077V35.1212C28.9647 35.8403 28.3796 36.4254 27.6605 36.4254H5.43594C4.48882 36.4254 3.71826 35.6548 3.71826 34.7076V12.7704H9.90136C10.2169 12.7704 10.4727 12.5146 10.4727 12.1991C10.4727 11.8836 10.2169 11.6278 9.90136 11.6278H3.71819V6.324C3.71819 5.37687 4.48874 4.60632 5.43586 4.60632H7.87839V6.28606C7.87839 7.244 8.6577 8.02331 9.61564 8.02331C9.93114 8.02331 10.1869 7.76753 10.1869 7.45203C10.1869 7.13652 9.93114 6.88074 9.61564 6.88074C9.28772 6.88074 9.02097 6.61398 9.02097 6.28606V4.60632H28.632V6.28606C28.632 7.244 29.4113 8.02331 30.3693 8.02331C30.6848 8.02331 30.9406 7.76753 30.9406 7.45203C30.9406 7.13652 30.6848 6.88074 30.3693 6.88074C30.0414 6.88074 29.7746 6.61398 29.7746 6.28606V4.60632H34.8114C35.7585 4.60632 36.5291 5.37687 36.5291 6.324V11.6278ZM9.83913 22.1223H7.11873C6.50371 22.1223 6.00334 22.6226 6.00334 23.2377V25.9581C6.00334 26.5731 6.50371 27.0734 7.11873 27.0734H9.83913C10.4541 27.0734 10.9545 26.5731 10.9545 25.9581V23.2377C10.9545 22.6226 10.4541 22.1223 9.83913 22.1223ZM9.81193 25.9309H7.14592V23.2648H9.81193V25.9309ZM14.8819 20.0068H17.6023C18.2173 20.0068 18.7176 19.5064 18.7176 18.8914V16.171C18.7176 15.556 18.2173 15.0556 17.6023 15.0556H14.8819C14.2668 15.0556 13.7665 15.556 13.7665 16.171V18.8914C13.7665 19.5064 14.2668 20.0068 14.8819 20.0068ZM14.9091 16.1982H17.5751V18.8642H14.9091V16.1982ZM22.6715 32.9976C22.6573 32.6946 22.4073 32.4535 22.1008 32.4535C21.7853 32.4535 21.5295 32.7092 21.5295 33.0247C21.5295 33.6398 22.0299 34.1401 22.6449 34.1401H25.3653C25.9803 34.1401 26.4807 33.6398 26.4807 33.0247V30.3043C26.4807 29.6893 25.9803 29.189 25.3653 29.189H22.6449C22.0299 29.189 21.5295 29.6893 21.5295 30.3043V31.0889C21.5295 31.4044 21.7853 31.6602 22.1008 31.6602C22.4163 31.6602 22.6721 31.4044 22.6721 31.0889V30.3315H25.3381V32.9976H22.6715ZM14.8819 27.0734H17.6023C18.2173 27.0734 18.7176 26.5731 18.7176 25.9581V23.2377C18.7176 22.6226 18.2173 22.1223 17.6023 22.1223H14.8819C14.2668 22.1223 13.7665 22.6226 13.7665 23.2377V25.9581C13.7665 26.5731 14.2668 27.0734 14.8819 27.0734ZM14.9091 23.2648H17.5751V25.9309H14.9091V23.2648ZM14.8819 34.1401H17.6023C18.2173 34.1401 18.7176 33.6398 18.7176 33.0247V30.3043C18.7176 29.6893 18.2173 29.189 17.6023 29.189H14.8819C14.2668 29.189 13.7665 29.6893 13.7665 30.3043V33.0247C13.7665 33.6398 14.2668 34.1401 14.8819 34.1401ZM14.9091 30.3315H17.5751V32.9976H14.9091V30.3315Z" fill="#2673B9"/>
</g>
<defs>
<clipPath id="clip0_753:24586">
<rect width="39" height="39" fill="white" transform="translate(0.623779 0.853027)"/>
</clipPath>
</defs>
</svg>
