<svg width="44" height="44" viewBox="0 0 44 44" fill="none" xmlns="http://www.w3.org/2000/svg">
<path d="M22 0.853027C10.1258 0.853027 0.5 10.4789 0.5 22.353C0.5 34.2272 10.1258 43.853 22 43.853C33.8742 43.853 43.5 34.2272 43.5 22.353C43.4862 10.4846 33.8684 0.866812 22 0.853027ZM22 42.4659C10.892 42.4659 1.8871 33.4611 1.8871 22.353C1.8871 11.245 10.892 2.24012 22 2.24012C33.108 2.24012 42.1129 11.245 42.1129 22.353C42.1007 33.456 33.103 42.4537 22 42.4659Z" fill="#2673B9"/>
<path d="M32.6065 14.5804L18.5323 28.6546L11.3936 21.5159C11.1181 21.2497 10.6791 21.2574 10.4129 21.5329C10.1534 21.8016 10.1534 22.2277 10.4129 22.4966L18.042 30.1256C18.3128 30.3963 18.7518 30.3963 19.0226 30.1256L33.5872 15.5611C33.8533 15.2856 33.8457 14.8466 33.5702 14.5804C33.3013 14.3209 32.8752 14.3209 32.6065 14.5804Z" fill="#2673B9"/>
</svg>
