<svg width="20" height="25" viewBox="0 0 20 25" fill="none" xmlns="http://www.w3.org/2000/svg">
<path d="M12.1742 0.930664L19.1742 8.10479V22.453C19.1742 23.0873 18.9284 23.6955 18.4908 24.144C18.0532 24.5925 17.4597 24.8444 16.8409 24.8444H2.8409C2.22206 24.8444 1.62857 24.5925 1.19099 24.144C0.753401 23.6955 0.507568 23.0873 0.507568 22.453V3.32204C0.507568 2.68781 0.753401 2.07955 1.19099 1.63108C1.62857 1.18261 2.22206 0.930664 2.8409 0.930664H12.1742ZM16.8409 22.453V9.30048H11.0076V3.32204H2.8409V22.453H16.8409ZM9.8409 12.8875L14.5076 17.6703H11.5909V21.2574H8.0909V17.6703H5.17423L9.8409 12.8875Z" fill="#2673B9"/>
</svg>
