<svg width="46" height="47" viewBox="0 0 46 47" fill="none" xmlns="http://www.w3.org/2000/svg">
<path d="M32.3705 11.9791C31.0526 10.7664 29.5021 9.82494 27.8098 9.20982C26.1175 8.5947 24.3175 8.31831 22.5153 8.39685C20.7131 8.47539 18.945 8.90728 17.3145 9.6672C15.6841 10.4271 14.2241 11.4998 13.0203 12.8223C11.8165 14.1449 10.8929 15.6907 10.3038 17.3691C9.71474 19.0475 9.47195 20.8248 9.58969 22.5968C9.70743 24.3688 10.1833 26.0999 10.9895 27.6885C11.7957 29.2771 12.9159 30.6913 14.2845 31.8482C14.6154 32.1206 14.8828 32.4601 15.0683 32.8436C15.2538 33.227 15.3531 33.6453 15.3595 34.0699V40.3207C15.3605 40.9867 15.5936 41.6322 16.0197 42.1496C16.4458 42.667 17.0392 43.0248 17.701 43.1636C17.7932 44.0798 18.228 44.9297 18.921 45.5481C19.6139 46.1666 20.5156 46.5096 21.451 46.5104H24.801C25.736 46.5092 26.6372 46.166 27.3296 45.5476C28.0221 44.9291 28.4565 44.0795 28.5485 43.1636C29.2103 43.0249 29.8038 42.6671 30.2299 42.1497C30.656 41.6323 30.889 40.9867 30.89 40.3207V34.0699C30.8854 33.6633 30.971 33.2606 31.1409 32.89C31.3108 32.5193 31.5608 32.1896 31.8735 31.924C33.3367 30.7077 34.5214 29.1999 35.3494 27.5C36.1774 25.8001 36.63 23.9468 36.6772 22.0621C36.7245 20.1775 36.3653 18.3044 35.6235 16.5664C34.8817 14.8284 33.774 13.2649 32.3735 11.9791H32.3705ZM29.137 37.4291H17.1095V35.0794H29.137V37.4291ZM24.798 44.7873H21.448C20.9884 44.7868 20.5428 44.632 20.1846 44.3485C19.8264 44.065 19.5772 43.6698 19.478 43.228H26.7675C26.6684 43.6697 26.4192 44.065 26.0612 44.3484C25.7031 44.6319 25.2575 44.7867 24.798 44.7873ZM27.9345 41.5054H18.3125C17.994 41.5051 17.6886 41.3807 17.4632 41.1593C17.2377 40.9379 17.1105 40.6376 17.1095 40.3241V39.1517H29.137V40.3197C29.1371 40.6339 29.0105 40.9352 28.7851 41.1576C28.5596 41.3799 28.2536 41.505 27.9345 41.5054ZM30.7425 30.6083C29.9052 31.3098 29.3545 32.2862 29.1925 33.3567H17.051C16.8627 32.2597 16.2873 31.2633 15.426 30.5429C14.0667 29.3971 12.9911 27.961 12.2813 26.3439C11.5714 24.7269 11.2461 22.9716 11.33 21.212C11.4848 18.3742 12.6804 15.6881 14.695 13.6525C16.7096 11.6169 19.4062 10.3701 22.284 10.1437C23.9031 10.0253 25.5296 10.2392 27.0604 10.7719C28.5911 11.3047 29.9928 12.1446 31.1765 13.2386C32.3963 14.3582 33.3612 15.7198 34.0074 17.2333C34.6536 18.7469 34.9665 20.3782 34.9255 22.0195C34.8845 23.6608 34.4905 25.2749 33.7695 26.7554C33.0484 28.2359 32.0168 29.549 30.7425 30.6083Z" fill="#2673B9"/>
<path d="M4.38604 20.875H1.62354C1.39147 20.875 1.16891 20.9657 1.00482 21.1273C0.840723 21.2888 0.748535 21.5079 0.748535 21.7363C0.748535 21.9648 0.840723 22.1839 1.00482 22.3454C1.16891 22.5069 1.39147 22.5977 1.62354 22.5977H4.38604C4.6181 22.5977 4.84066 22.5069 5.00476 22.3454C5.16885 22.1839 5.26104 21.9648 5.26104 21.7363C5.26104 21.5079 5.16885 21.2888 5.00476 21.1273C4.84066 20.9657 4.6181 20.875 4.38604 20.875Z" fill="#2673B9"/>
<path d="M44.6236 20.875H41.8611C41.629 20.875 41.4065 20.9657 41.2424 21.1273C41.0783 21.2888 40.9861 21.5079 40.9861 21.7363C40.9861 21.9648 41.0783 22.1839 41.2424 22.3454C41.4065 22.5069 41.629 22.5977 41.8611 22.5977H44.6236C44.8556 22.5977 45.0782 22.5069 45.2423 22.3454C45.4064 22.1839 45.4986 21.9648 45.4986 21.7363C45.4986 21.5079 45.4064 21.2888 45.2423 21.1273C45.0782 20.9657 44.8556 20.875 44.6236 20.875Z" fill="#2673B9"/>
<path d="M8.54837 9.09862C8.71247 9.26016 8.93504 9.35091 9.16712 9.35091C9.39919 9.35091 9.62176 9.26016 9.78587 9.09862C9.94997 8.93709 10.0422 8.71799 10.0422 8.48954C10.0422 8.26109 9.94997 8.042 9.78587 7.88046L7.83187 5.95749C7.66681 5.80062 7.44576 5.71385 7.21634 5.71585C6.98692 5.71786 6.76748 5.80849 6.60528 5.96822C6.44308 6.12795 6.3511 6.344 6.34915 6.56984C6.34721 6.79568 6.43545 7.01323 6.59487 7.17565L8.54837 9.09862Z" fill="#2673B9"/>
<path d="M37.6985 33.3889C37.5345 33.2274 37.312 33.1367 37.08 33.1367C36.848 33.1367 36.6255 33.2274 36.4615 33.3889C36.2975 33.5504 36.2053 33.7694 36.2053 33.9977C36.2053 34.2261 36.2975 34.4451 36.4615 34.6066L38.4145 36.5301C38.4949 36.6136 38.5914 36.6804 38.6985 36.7266C38.8055 36.7727 38.9209 36.7973 39.0377 36.7989C39.1546 36.8005 39.2706 36.779 39.3788 36.7357C39.4871 36.6924 39.5855 36.6283 39.6682 36.5469C39.7508 36.4656 39.8161 36.3688 39.8602 36.2623C39.9042 36.1557 39.9261 36.0416 39.9246 35.9266C39.9231 35.8115 39.8982 35.698 39.8514 35.5926C39.8046 35.4872 39.7368 35.3921 39.652 35.3129L37.6985 33.3889Z" fill="#2673B9"/>
<path d="M23.1235 5.22422C23.3556 5.22409 23.578 5.1333 23.7421 4.9718C23.9062 4.8103 23.9984 4.59129 23.9985 4.3629V1.64307C23.9985 1.41463 23.9063 1.19555 23.7423 1.03402C23.5782 0.872485 23.3556 0.781738 23.1235 0.781738C22.8915 0.781738 22.6689 0.872485 22.5048 1.03402C22.3407 1.19555 22.2485 1.41463 22.2485 1.64307V4.3629C22.2487 4.59129 22.3409 4.8103 22.505 4.9718C22.669 5.1333 22.8915 5.22409 23.1235 5.22422Z" fill="#2673B9"/>
<path d="M38.4146 5.95737L36.4616 7.88034C36.3021 8.04276 36.2139 8.26031 36.2159 8.48615C36.2178 8.71199 36.3098 8.92804 36.472 9.08777C36.6342 9.2475 36.8536 9.33813 37.083 9.34013C37.3125 9.34214 37.5335 9.25537 37.6986 9.0985L39.6521 7.17553C39.7333 7.09554 39.7978 7.00059 39.8418 6.89608C39.8857 6.79157 39.9084 6.67956 39.9084 6.56645C39.9084 6.45333 39.8857 6.34132 39.8418 6.23682C39.7978 6.13231 39.7333 6.03735 39.6521 5.95737C39.5708 5.87738 39.4744 5.81393 39.3682 5.77065C39.262 5.72736 39.1482 5.70508 39.0333 5.70508C38.9184 5.70508 38.8046 5.72736 38.6985 5.77065C38.5923 5.81393 38.4958 5.87738 38.4146 5.95737Z" fill="#2673B9"/>
<path d="M8.54837 33.3889L6.59487 35.3128C6.43545 35.4753 6.34721 35.6928 6.34915 35.9186C6.3511 36.1445 6.44308 36.3605 6.60528 36.5203C6.76748 36.68 6.98692 36.7706 7.21634 36.7726C7.44576 36.7746 7.66681 36.6879 7.83187 36.531L9.78587 34.6075C9.94522 34.4451 10.0334 34.2275 10.0313 34.0016C10.0293 33.7758 9.93723 33.5598 9.77496 33.4001C9.6127 33.2404 9.39322 33.1499 9.16379 33.148C8.93437 33.1461 8.71336 33.2329 8.54837 33.3899V33.3889Z" fill="#2673B9"/>
<path d="M27.5275 18.655L23.1235 22.9897L20.3695 20.2787C20.2888 20.1965 20.1922 20.1309 20.0854 20.0858C19.9787 20.0407 19.8638 20.0169 19.7477 20.0159C19.6315 20.015 19.5163 20.0368 19.4087 20.0801C19.3012 20.1235 19.2035 20.1874 19.1214 20.2683C19.0393 20.3492 18.9743 20.4454 18.9303 20.5512C18.8864 20.6571 18.8642 20.7705 18.8653 20.8849C18.8663 20.9993 18.8905 21.1123 18.9363 21.2174C18.9822 21.3224 19.0489 21.4175 19.1325 21.4969L22.505 24.8167C22.5862 24.8967 22.6826 24.9602 22.7887 25.0036C22.8948 25.0469 23.0086 25.0692 23.1235 25.0692C23.2384 25.0692 23.3521 25.0469 23.4583 25.0036C23.5644 24.9602 23.6608 24.8967 23.742 24.8167L28.7645 19.8727C28.8457 19.7927 28.9101 19.6978 28.9541 19.5934C28.9981 19.4889 29.0207 19.3769 29.0207 19.2639C29.0207 19.1508 28.9981 19.0388 28.9541 18.9344C28.9101 18.8299 28.8457 18.735 28.7645 18.655C28.6833 18.5751 28.5869 18.5116 28.4807 18.4684C28.3746 18.4251 28.2609 18.4028 28.146 18.4028C28.0311 18.4028 27.9174 18.4251 27.8113 18.4684C27.7051 18.5116 27.6087 18.5751 27.5275 18.655Z" fill="#2673B9"/>
</svg>
