<svg width="48" height="47" viewBox="0 0 48 47" fill="none" xmlns="http://www.w3.org/2000/svg">
<path d="M20.3823 10.6288C19.9939 10.6288 19.6792 10.9305 19.6792 11.3026C19.6792 11.6748 19.9939 11.9765 20.3823 11.9765H26.2765C26.2767 11.9765 26.2769 11.9766 26.2771 11.9766C26.2774 11.9766 26.2777 11.9765 26.2779 11.9765H27.6177C28.006 11.9765 28.3208 11.6748 28.3208 11.3026C28.3208 10.9305 28.006 10.6288 27.6177 10.6288H27.5927C28.3468 9.3515 28.986 7.55202 28.2651 6.10625C27.8572 5.28814 27.0994 4.73569 26.0076 4.45034C26.0003 4.44828 25.9929 4.44648 25.9856 4.44468C25.5995 4.34541 25.1722 4.27901 24.7031 4.24667V3.18292H25.0108C25.3992 3.18292 25.7139 2.88122 25.7139 2.50909C25.7139 2.13696 25.3992 1.83526 25.0108 1.83526H24.7031V1.3457C24.7031 0.97357 24.3884 0.671875 24 0.671875C23.6116 0.671875 23.2969 0.97357 23.2969 1.3457V1.83517H22.9892C22.6008 1.83517 22.2861 2.13687 22.2861 2.509C22.2861 2.88113 22.6008 3.18283 22.9892 3.18283H23.2969V4.24658C22.8272 4.27892 22.3996 4.3455 22.0131 4.44495C22.0062 4.44666 21.9994 4.44837 21.9926 4.45025C20.9007 4.7356 20.1429 5.28805 19.7349 6.10625C19.014 7.55202 19.6533 9.35159 20.4073 10.6288H20.3823ZM24 5.56962C24.3625 5.56962 24.6926 5.58956 24.9937 5.62721L24.708 7.1683C24.6981 7.22238 24.6491 7.26164 24.5918 7.26164H23.4078C23.3505 7.26164 23.3016 7.22238 23.2916 7.1683L23.0061 5.6273C23.307 5.58956 23.6373 5.56962 24 5.56962ZM21.0037 6.68727C21.137 6.42008 21.3545 6.20104 21.6521 6.02926L21.9068 7.40387C22.0362 8.10231 22.6673 8.6093 23.4077 8.6093H24.5917C25.332 8.6093 25.9632 8.10231 26.0926 7.40396L26.3475 6.02899C26.6454 6.20086 26.8629 6.4199 26.9962 6.68718C27.5337 7.76495 26.7434 9.5452 25.9291 10.6287H22.071C21.2566 9.5452 20.4663 7.76504 21.0037 6.68727ZM30.7217 16.7443C31.1101 16.7443 31.4248 16.4426 31.4248 16.0705V15.6018C31.4248 15.2297 31.1101 14.928 30.7217 14.928C30.3333 14.928 30.0186 15.2297 30.0186 15.6018V16.0705C30.0186 16.4426 30.3333 16.7443 30.7217 16.7443ZM17.2782 14.928C16.8898 14.928 16.5751 15.2297 16.5751 15.6018V16.0705C16.5751 16.4426 16.8898 16.7443 17.2782 16.7443C17.6666 16.7443 17.9813 16.4426 17.9813 16.0705V15.6018C17.9813 15.2297 17.6666 14.928 17.2782 14.928ZM27.3475 27.4012C26.9591 27.4012 26.6444 27.7029 26.6444 28.075V28.6075C26.6444 28.9797 26.9591 29.2814 27.3475 29.2814C27.7359 29.2814 28.0507 28.9797 28.0507 28.6075V28.075C28.0507 27.7029 27.7358 27.4012 27.3475 27.4012ZM47.1627 21.6534C46.9963 20.7157 45.9617 20.1279 44 19.8562C42.5414 19.6542 40.9542 19.6721 40.0886 19.704C39.6319 19.2887 38.9427 19.058 38.0332 19.0171C37.5819 18.9971 37.1377 19.156 36.8112 19.4538C36.4831 19.7531 36.3018 20.1558 36.3007 20.5876C36.2955 22.4663 35.6981 23.8958 34.5252 24.8365C33.4598 25.6909 32.0762 25.9835 31.1053 25.9149V23.4887C31.1053 22.6487 30.4347 21.9564 29.5796 21.8768C29.899 20.932 30.301 19.9776 30.6765 19.2899C30.862 18.9503 31.2242 18.7394 31.6218 18.7394H32.7297C32.73 18.7394 32.7304 18.7395 32.7307 18.7395C32.7309 18.7395 32.7313 18.7394 32.7316 18.7394H34.6928C34.896 18.7394 35.0952 18.7746 35.2849 18.844L35.93 19.0805C36.3363 19.2294 36.7934 19.153 37.123 18.8811C37.4527 18.6093 37.5998 18.1875 37.5067 17.7803L37.3277 16.9972C37.0956 15.9812 36.3121 15.1453 35.2829 14.8153L34.4542 14.5498C34.3423 14.5139 34.244 14.4427 34.1775 14.3492L34.0466 14.1653C33.683 13.6546 33.0807 13.3496 32.4356 13.3496H29.6909C28.7003 13.3496 27.2978 13.2995 26.5586 12.8665C26.2545 12.6882 25.8768 12.6605 25.5483 12.7922C25.2231 12.9228 24.9811 13.1969 24.9012 13.5255C24.4712 15.291 25.2166 16.2331 25.7894 16.6755C25.2102 17.6987 24.5148 19.1002 24.0003 20.6759C23.4858 19.1002 22.7904 17.6987 22.2112 16.6755C22.784 16.2332 23.5294 15.291 23.0993 13.5256C23.0194 13.1969 22.7774 12.9228 22.4523 12.7922C22.1238 12.6605 21.7463 12.6882 21.4418 12.8665C20.7027 13.2996 19.3002 13.3497 18.3097 13.3497H15.5649C14.9198 13.3497 14.3176 13.6547 13.9538 14.1655L13.823 14.3492C13.7565 14.4428 13.6582 14.5139 13.5463 14.5498L12.7176 14.8153C11.6883 15.1453 10.9048 15.9812 10.6727 16.9972L10.4937 17.7804C10.4006 18.1875 10.5476 18.6094 10.8773 18.8812C11.2071 19.1532 11.6644 19.2296 12.0705 19.0806L12.7154 18.8442C12.9051 18.7747 13.1043 18.7395 13.3074 18.7395H15.2687C15.269 18.7395 15.2693 18.7395 15.2696 18.7395C15.2699 18.7395 15.2703 18.7395 15.2706 18.7395H16.3785C16.7761 18.7395 17.1383 18.9504 17.3238 19.29C17.6993 19.9777 18.1012 20.9321 18.4207 21.8769C17.5656 21.9565 16.895 22.6488 16.895 23.4888V25.915C15.9246 25.9835 14.5404 25.6911 13.4751 24.8366C12.3021 23.8959 11.7047 22.4664 11.6996 20.5878C11.6984 20.1558 11.5172 19.7532 11.1891 19.454C10.8625 19.1561 10.4182 18.9975 9.96712 19.0173C8.91028 19.0649 8.28431 19.3738 7.91494 19.7042C7.38694 19.6844 6.68044 19.6731 5.89397 19.7015C5.50584 19.7154 5.20312 20.0283 5.21766 20.4001C5.23228 20.772 5.55853 21.0642 5.94666 21.0482C6.66375 21.0225 7.45791 21.0284 8.1825 21.0651C8.42944 21.0769 8.66475 20.965 8.80275 20.7687C8.96409 20.5391 9.4125 20.3914 10.0331 20.3635C10.1271 20.36 10.1902 20.4035 10.2195 20.4302C10.2531 20.4609 10.2931 20.5136 10.2933 20.5913C10.3011 23.4498 11.5371 25.0397 12.5724 25.8702C13.8166 26.8679 15.3759 27.2724 16.6251 27.2724C16.7169 27.2724 16.8066 27.2694 16.8949 27.2651V31.8757C16.4504 32.439 16.0724 32.6245 15.8686 32.6492C15.6731 32.3558 15.4949 31.1426 15.7992 29.5291C15.8545 29.2363 15.7028 28.9435 15.4262 28.8086C15.1492 28.6737 14.8132 28.7287 14.5987 28.944C13.7945 29.7516 12.6908 30.5633 11.7188 31.0624C10.7749 31.547 10.1352 31.6445 9.87253 31.5284C9.92119 31.1959 10.4677 30.2769 11.6258 29.1105C11.8578 28.8769 11.8845 28.5186 11.6897 28.2557C11.4949 27.9928 11.1331 27.8993 10.8264 28.0321C8.69175 28.9583 6.33919 29.3421 5.75306 29.1415C5.79844 28.8018 6.46847 28.082 7.99453 27.3253C8.30044 27.1736 8.44659 26.832 8.34009 26.5182C8.2335 26.2046 7.90575 26.0106 7.56506 26.0607C4.93416 26.4468 3.45197 25.6684 3.279 25.3328C3.34144 25.2485 3.69469 24.8805 5.27559 24.5092C5.61506 24.4294 5.84184 24.1229 5.80809 23.7895C5.77425 23.4561 5.49 23.1971 5.14097 23.1816C3.1635 23.0936 2.53444 22.5894 2.35575 22.3768C2.23012 22.2272 2.18953 22.0738 2.22394 21.8797C2.23181 21.8354 2.34506 21.6846 2.76891 21.5213C3.12919 21.3825 3.30384 20.99 3.159 20.6448C3.01406 20.2995 2.60447 20.132 2.24428 20.2709C1.41731 20.5895 0.943968 21.0547 0.837562 21.6535C0.735374 22.2288 0.881718 22.7712 1.26047 23.222C1.572 23.5928 2.02387 23.8865 2.61225 24.1019C2.17228 24.4146 1.85625 24.8218 1.8645 25.3493C1.86919 25.6424 1.98712 26.0828 2.52281 26.5169C3.05634 26.9491 3.99469 27.3443 5.28637 27.4715C4.53253 28.1646 4.21959 28.8712 4.38956 29.543C4.47506 29.8806 4.71816 30.1582 5.07412 30.3246C5.92922 30.7244 7.52962 30.4967 9.02944 30.0863C8.685 30.6278 8.44566 31.1779 8.46497 31.6444C8.47884 31.9841 8.61703 32.2761 8.86444 32.4888C10.1447 33.5895 12.5188 32.3682 14.2341 31.0682C14.2167 31.9426 14.3201 32.9248 14.7761 33.4982C15.0712 33.8692 15.4264 33.9723 15.6723 33.9934C15.7244 33.9979 15.7764 34 15.8288 34C16.1858 34 16.5463 33.8958 16.8985 33.695C16.9048 33.8196 16.9206 33.9418 16.9443 34.0613C16.2695 34.9479 15.9005 36.0208 15.9005 37.1207V38.2471C15.9005 39.3976 16.7126 40.3691 17.8162 40.6643V40.7532C17.8162 41.0402 17.5726 41.2736 17.2733 41.2736H14.8808L14.1866 39.4457C13.9747 38.8881 13.3618 38.5802 12.773 38.71L11.9133 36.4465C12.5294 36.1417 12.9182 35.5065 12.8768 34.8322L12.7817 33.2863C12.7588 32.9148 12.4281 32.632 12.0383 32.6534C11.6507 32.6753 11.355 32.9942 11.3778 33.3657L11.4729 34.9114C11.4777 34.9892 11.4551 35.0646 11.4123 35.1273L10.8593 33.6715C10.7266 33.3218 10.3234 33.1413 9.95812 33.2687C9.59325 33.396 9.40509 33.7827 9.53794 34.1324L10.0909 35.5883C10.016 35.5667 9.94809 35.5229 9.89962 35.4604L8.93569 34.2176C8.70375 33.9189 8.2635 33.8567 7.95187 34.0789C7.64025 34.3009 7.57537 34.723 7.80703 35.0217L8.77106 36.2646C9.11184 36.7038 9.65194 36.9502 10.2044 36.9502C10.3337 36.9502 10.4635 36.9351 10.5919 36.9075L11.4517 39.1713C10.9135 39.4344 10.6506 40.0479 10.8622 40.6057L12.8753 45.906C13.0548 46.3784 13.5219 46.6722 14.0184 46.6722C14.1562 46.6722 14.2961 46.6496 14.4328 46.602L15.4734 46.239H15.4733C16.103 46.0194 16.4287 45.3499 16.1997 44.7464L15.3927 42.6215H17.2733C18.3481 42.6215 19.2225 41.7836 19.2225 40.7535V40.6646C20.326 40.3693 21.1383 39.3979 21.1383 38.2474V37.1209C21.1383 37.0634 21.1678 37.0094 21.2174 36.9768L22.3571 36.2259C22.4192 36.2398 22.4773 36.2677 22.5253 36.3095L23.0818 36.7938C23.1337 36.8391 23.189 36.8785 23.2457 36.9148C23.118 37.3292 22.7572 37.6657 22.2352 38.1232C21.2673 38.972 19.9417 40.1345 21.2821 42.5339C21.4089 42.7607 21.6516 42.8897 21.9026 42.8897C22.0146 42.8897 22.1282 42.864 22.2338 42.8098C22.5761 42.6341 22.7051 42.2258 22.5218 41.8977C21.6972 40.4216 22.257 39.9307 23.1845 39.1175C23.2216 39.0849 23.2594 39.0517 23.2973 39.0182V42.489C23.2973 42.8612 23.6121 43.1628 24.0005 43.1628C24.3889 43.1628 24.7036 42.8612 24.7036 42.489V39.0182C24.7416 39.0517 24.7793 39.0848 24.8165 39.1175C25.744 39.9307 26.3037 40.4216 25.4791 41.8977C25.2958 42.2258 25.4248 42.6341 25.7671 42.8098C25.8727 42.8639 25.9864 42.8897 26.0983 42.8897C26.3493 42.8897 26.5922 42.7607 26.7188 42.5339C28.0593 40.1345 26.7337 38.972 25.7657 38.1232C25.2439 37.6657 24.883 37.3292 24.7553 36.9148C24.8121 36.8785 24.8673 36.8391 24.9192 36.7939L25.4756 36.3095C25.5237 36.2677 25.5817 36.2399 25.6438 36.2259L26.7835 36.9768C26.833 37.0094 26.8627 37.0634 26.8627 37.1209V38.2474C26.8627 39.3979 27.6748 40.3693 28.7783 40.6646V40.7535C28.7783 41.7836 29.6527 42.6215 30.7276 42.6215H32.2294C32.6861 44.0146 34.046 45.0279 35.6484 45.0279C36.2148 45.0279 36.7791 44.8978 37.2803 44.6516C37.6259 44.4819 37.7626 44.0759 37.5855 43.7447C37.4083 43.4134 36.9847 43.2825 36.6391 43.4522C36.331 43.6035 35.9977 43.6802 35.6484 43.6802C34.4482 43.6802 33.4717 42.7444 33.4717 41.5942C33.4717 40.4439 34.4482 39.5081 35.6484 39.5081C36.787 39.5081 37.7407 40.3595 37.8199 41.4463C37.8469 41.8175 38.1827 42.0973 38.5702 42.0716C38.9575 42.0457 39.2497 41.7237 39.2227 41.3526C39.1091 39.792 37.9012 38.5266 36.3516 38.2277V37.1212H36.6592C37.0477 37.1212 37.3624 36.8195 37.3624 36.4474C37.3624 36.0753 37.0477 35.7736 36.6592 35.7736H36.3516V35.2841C36.3516 34.912 36.0367 34.6103 35.6484 34.6103C35.26 34.6103 34.9453 34.912 34.9453 35.2841V35.7736H34.6376C34.2492 35.7736 33.9345 36.0753 33.9345 36.4474C33.9345 36.8195 34.2492 37.1212 34.6376 37.1212H34.9453V38.2272C33.4117 38.5208 32.2289 39.7553 32.0815 41.2737H30.7275C30.4282 41.2737 30.1845 41.0403 30.1845 40.7533V40.6644C31.288 40.3692 32.1003 39.3978 32.1003 38.2472V37.1208C32.1003 36.0209 31.7313 34.9481 31.0565 34.0614C31.0802 33.9419 31.0959 33.8197 31.1022 33.6951C31.4545 33.8959 31.815 34 32.172 34C32.2242 34 32.2763 33.9979 32.3285 33.9934C32.5744 33.9723 32.9295 33.8692 33.2246 33.4982C33.6806 32.9249 33.784 31.9427 33.7667 31.0682C35.0137 32.0133 36.6086 32.917 37.8787 32.9168C38.3556 32.9168 38.7868 32.7893 39.1363 32.4888C39.3837 32.2761 39.5218 31.9841 39.5358 31.6444C39.555 31.1779 39.3157 30.6278 38.9713 30.0863C40.4711 30.4966 42.0715 30.7245 42.9266 30.3246C43.2826 30.1582 43.5257 29.8806 43.6112 29.543C43.7812 28.8713 43.4682 28.1647 42.7144 27.4715C44.0058 27.3442 44.9445 26.949 45.4779 26.5169C46.0137 26.0827 46.1317 25.6423 46.1362 25.3493C46.1437 24.8725 45.8944 24.4536 45.3936 24.1001C45.9795 23.8849 46.4297 23.5917 46.7403 23.2221C47.1186 22.771 47.2649 22.2286 47.1627 21.6534ZM14.1307 45.2725L12.2484 40.3164L12.93 40.0786L14.8122 45.0347L14.1307 45.2725ZM34.1195 15.8633L34.8368 16.0932C35.3991 16.2734 35.8272 16.7302 35.954 17.2852L36.044 17.6792L35.7873 17.5851C35.4366 17.4567 35.0684 17.3915 34.6929 17.3915H33.5648C33.688 16.8993 33.8797 16.3703 34.1195 15.8633ZM27.098 17.1899C27.397 16.6692 27.2407 16.0165 26.7344 15.6715C26.2928 15.3708 26.1139 14.8781 26.2002 14.2039C27.2132 14.6364 28.5766 14.697 29.6907 14.697H32.4354C32.6153 14.697 32.7833 14.7821 32.8847 14.9245L32.9681 15.0418C32.5755 15.8119 32.2794 16.6391 32.1251 17.3915H31.6217C30.699 17.3915 29.8595 17.8794 29.4306 18.6648C28.9592 19.5279 28.4696 20.7187 28.1083 21.8686H25.1051C25.6069 20.0088 26.4438 18.3288 27.098 17.1899ZM13.3071 17.3915C12.9316 17.3915 12.5634 17.4567 12.2126 17.5852L11.956 17.6793L12.046 17.2852C12.1729 16.7302 12.6009 16.2734 13.1632 16.0932L13.8805 15.8633C14.1202 16.3702 14.312 16.8993 14.4352 17.3915H13.3071ZM16.3782 17.3915H15.8748C15.7204 16.6391 15.4243 15.812 15.0318 15.0418L15.1151 14.9246C15.2166 14.782 15.3846 14.697 15.5645 14.697H18.3092C19.4234 14.697 20.7868 14.6364 21.7997 14.2039C21.886 14.878 21.7071 15.3708 21.2655 15.6715C20.7592 16.0164 20.6029 16.6692 20.9019 17.1899C21.5562 18.3288 22.3931 20.0088 22.8949 21.8685H19.8917C19.5304 20.7186 19.0408 19.5278 18.5693 18.6647C18.1404 17.8794 17.3009 17.3915 16.3782 17.3915ZM19.7314 37.1205V38.247C19.7314 38.8877 19.1873 39.4091 18.5187 39.4091C17.8501 39.4091 17.3061 38.8878 17.3061 38.247V37.1205C17.3061 36.5369 17.447 35.9634 17.7106 35.4433C18.2106 35.9198 18.8992 36.2148 19.6582 36.2148H20.0438C19.844 36.4735 19.7314 36.7897 19.7314 37.1205ZM25.8535 34.867C25.8523 34.867 25.8511 34.867 25.8499 34.867H25.7298C25.285 34.867 24.8588 35.0249 24.5297 35.3114L24 35.7726L23.4703 35.3115C23.1412 35.025 22.715 34.8671 22.2702 34.8671H22.1505C22.1491 34.8671 22.1478 34.8671 22.1464 34.8671H19.6584C18.9099 34.8671 18.3009 34.2835 18.3009 33.5662V23.4885C18.3009 23.3384 18.4283 23.2163 18.585 23.2163H19.3594C19.3601 23.2163 19.3609 23.2165 19.3616 23.2165C19.3626 23.2165 19.3635 23.2163 19.3644 23.2163H23.7704H23.7757H24.223H24.2311H28.6358C28.6368 23.2163 28.6377 23.2165 28.6386 23.2165C28.6393 23.2165 28.6401 23.2163 28.6408 23.2163H29.4152C29.5718 23.2163 29.6992 23.3384 29.6992 23.4885V33.5662C29.6992 34.2835 29.0903 34.8671 28.3417 34.8671H25.8535V34.867ZM30.6937 38.247C30.6937 38.8877 30.1497 39.4091 29.4811 39.4091C28.8125 39.4091 28.2685 38.8878 28.2685 38.247V37.1205C28.2685 36.7898 28.1559 36.4735 27.956 36.2148H28.3416C29.1007 36.2148 29.7892 35.9198 30.2892 35.4433C30.5527 35.9634 30.6937 36.5369 30.6937 37.1205V38.247ZM45.6446 22.3766C45.4659 22.5893 44.8369 23.0934 42.8594 23.1814C42.5103 23.197 42.2261 23.4559 42.1923 23.7893C42.1585 24.1227 42.3853 24.4293 42.7248 24.509C44.3057 24.8803 44.6589 25.2483 44.7214 25.3326C44.5484 25.6682 43.0669 26.4466 40.4353 26.0606C40.0955 26.0108 39.7669 26.2043 39.6603 26.518C39.5537 26.8319 39.6999 27.1734 40.0057 27.3251C41.5318 28.0819 42.2018 28.8016 42.2472 29.1413C41.661 29.3419 39.3083 28.958 37.1738 28.0319C36.8673 27.8989 36.5055 27.9927 36.3106 28.2555C36.1158 28.5184 36.1425 28.8767 36.3744 29.1103C37.5326 30.2767 38.0792 31.1957 38.1277 31.5282C37.8653 31.6443 37.2254 31.547 36.2814 31.0622C35.3094 30.5632 34.2058 29.7514 33.4015 28.9438C33.1872 28.7286 32.8511 28.6735 32.5741 28.8084C32.2974 28.9433 32.1457 29.2362 32.2011 29.529C32.5054 31.1424 32.3272 32.3556 32.1317 32.6491C31.9278 32.6244 31.5499 32.4388 31.1054 31.8755V27.2653C32.3937 27.3279 34.0924 26.9409 35.4277 25.8699C36.4632 25.0395 37.6991 23.4495 37.7069 20.591C37.7071 20.5134 37.7471 20.4606 37.7807 20.43C37.81 20.4034 37.8754 20.3598 37.9671 20.3633C38.5877 20.3912 39.0361 20.5389 39.1974 20.7685C39.3355 20.9649 39.5712 21.077 39.8177 21.0649C41.2289 20.9934 42.7171 21.0403 43.7988 21.19C45.3513 21.405 45.7567 21.7689 45.7764 21.8794C45.8108 22.0736 45.7702 22.227 45.6446 22.3766ZM20.6525 27.4012C20.2641 27.4012 19.9493 27.7029 19.9493 28.075V28.6075C19.9493 28.9797 20.2641 29.2814 20.6525 29.2814C21.0409 29.2814 21.3556 28.9797 21.3556 28.6075V28.075C21.3556 27.7029 21.0408 27.4012 20.6525 27.4012ZM25.3445 28.1232C25.0517 27.8786 24.6076 27.9079 24.3524 28.1884C24.3 28.246 24.1846 28.3426 23.9999 28.3426C23.8152 28.3426 23.6998 28.246 23.6474 28.1884C23.3922 27.9078 22.948 27.8786 22.6553 28.1232C22.3626 28.3676 22.3321 28.7933 22.5872 29.0739C22.9435 29.4656 23.4583 29.6903 23.9998 29.6903C24.5413 29.6903 25.0562 29.4657 25.4124 29.0739C25.6678 28.7933 25.6372 28.3676 25.3445 28.1232Z" fill="#2673B9"/>
</svg>
