<svg width="25" height="25" viewBox="0 0 25 25" fill="none" xmlns="http://www.w3.org/2000/svg">
<g clip-path="url(#clip0_1123_13982)">
<path d="M23.2692 4.24023H1.7308C1.05383 4.24023 0.5 4.79406 0.5 5.47098V19.0095C0.5 19.6863 1.05383 20.2403 1.7308 20.2403H23.2692C23.9461 20.2403 24.5 19.6864 24.5 19.0095V5.47098C24.5 4.79406 23.9462 4.24023 23.2692 4.24023ZM22.8073 5.16325L13.208 12.3633C13.0354 12.4947 12.7705 12.5769 12.5 12.5756C12.2295 12.5769 11.9646 12.4947 11.792 12.3633L2.19261 5.16325H22.8073ZM17.6797 12.8384L22.9105 19.3C22.9157 19.3065 22.9221 19.3114 22.9277 19.3173H2.07228C2.07781 19.3111 2.08428 19.3065 2.08953 19.3L7.32031 12.8384C7.48058 12.6403 7.4502 12.3498 7.25169 12.1892C7.05355 12.0289 6.76306 12.0593 6.60275 12.2575L1.42306 18.6559V5.74019L11.2384 13.1017C11.6074 13.3765 12.0562 13.4974 12.4999 13.4987C12.943 13.4977 13.3922 13.3768 13.7614 13.1017L23.5767 5.74019V18.6558L18.3972 12.2575C18.2369 12.0593 17.9461 12.0288 17.7483 12.1892C17.5498 12.3494 17.5193 12.6403 17.6797 12.8384Z" fill="#2673B9"/>
</g>
<defs>
<clipPath id="clip0_1123_13982">
<rect width="24" height="24" fill="white" transform="translate(0.5 0.240234)"/>
</clipPath>
</defs>
</svg>
