<svg width="16" height="19" viewBox="0 0 16 19" fill="none" xmlns="http://www.w3.org/2000/svg">
<path d="M3.75 10.4354H0.994V8.74536H3.75V0.243358C4.478 0.243358 5.24933 0.234692 6.064 0.217358C6.87867 0.200025 7.69333 0.191359 8.508 0.191359C12.9973 0.191359 15.242 1.91603 15.242 5.36536C15.242 6.92536 14.67 8.16469 13.526 9.08336C12.3993 9.98469 10.7873 10.4354 8.69 10.4354H5.96V13.1654H10.458V14.8554H5.96V18.4434H3.75V14.8554H0.994V13.1654H3.75V10.4354ZM8.716 2.27136C8.404 2.27136 7.48533 2.28869 5.96 2.32336V8.74536H8.612C11.472 8.74536 12.902 7.67069 12.902 5.52136C12.902 3.35469 11.5067 2.27136 8.716 2.27136Z" fill="#2673B9"/>
</svg>
