<svg width="38" height="38" viewBox="0 0 38 38" fill="none" xmlns="http://www.w3.org/2000/svg">
<g clip-path="url(#clip0_1123_12992)">
<path d="M36.7974 36.5358L25.5394 25.2777C27.8778 22.6814 29.3149 19.2583 29.3149 15.4973C29.3148 7.42174 22.7447 0.851562 14.6691 0.851562C6.59337 0.851562 0.0231934 7.42174 0.0231934 15.4974C0.0231934 23.5731 6.59337 30.1433 14.6691 30.1433C18.43 30.1433 21.8531 28.7061 24.4494 26.3678L35.7074 37.6257C35.8579 37.7763 36.0552 37.8516 36.2524 37.8516C36.4496 37.8516 36.6468 37.7763 36.7974 37.6257C37.0985 37.3246 37.0985 36.8368 36.7974 36.5358ZM14.6691 28.6016C7.44401 28.6016 1.56491 22.7232 1.56491 15.4974C1.56491 8.27165 7.44401 2.39321 14.6691 2.39321C21.8941 2.39321 27.7732 8.27158 27.7732 15.4974C27.7732 22.7233 21.8941 28.6016 14.6691 28.6016Z" fill="#2673B9"/>
<path d="M22.7876 10.1033C22.4637 9.78897 21.9381 9.78843 21.6141 10.102L11.6579 19.7216L8.0657 15.9421C7.75531 15.6157 7.23052 15.5945 6.89303 15.8952C6.5558 16.1959 6.53421 16.7045 6.8446 17.0312L11.0219 21.4261C11.1749 21.5871 11.3889 21.6807 11.6147 21.6852C11.6208 21.6855 11.6266 21.6855 11.6324 21.6855C11.8518 21.6855 12.0629 21.601 12.2183 21.451L22.786 11.2404C23.1107 10.9269 23.1113 10.4177 22.7876 10.1033Z" fill="#2673B9"/>
</g>
<defs>
<clipPath id="clip0_1123_12992">
<rect width="37" height="37" fill="white" transform="translate(0.0231934 0.851562)"/>
</clipPath>
</defs>
</svg>
