<svg width="34" height="34" viewBox="0 0 34 34" fill="none" xmlns="http://www.w3.org/2000/svg">
<g clip-path="url(#clip0_602:10628)">
<path d="M33.3082 14.2034C33.9318 14.2034 34.4374 13.6979 34.4374 13.0743V10.8161C34.4374 10.1925 33.9318 9.68701 33.3082 9.68701H32.8436L33.0734 8.28069C33.1585 7.76546 33.0124 7.23897 32.6742 6.8411C32.3454 6.45255 31.8622 6.22868 31.3532 6.22914C31.1733 6.2292 31.003 6.14763 30.8903 6.00725C30.7648 5.85277 30.7162 5.64966 30.7582 5.45509C30.8624 4.93324 30.7265 4.39213 30.3878 3.98162C30.0606 3.58077 29.5707 3.34809 29.0532 3.34763H28.3278C28.1131 3.34578 27.9152 3.23047 27.8079 3.0445L26.9701 1.62071C26.5411 0.871739 25.6227 0.557555 24.8248 0.886823L23.4699 1.43951C23.2958 1.51089 23.0981 1.49448 22.9381 1.39544L21.2224 0.343799C20.6711 0.00454105 19.9757 0.00454105 19.4243 0.343799L17.6917 1.40517C17.5355 1.5009 17.3437 1.51883 17.1723 1.45373L14.0572 0.259117C13.2958 -0.0324413 12.4342 0.250384 11.9938 0.936573L10.6558 2.9876C10.5322 3.18257 10.3075 3.28888 10.0783 3.26083L7.18104 2.89108C6.39045 2.79382 5.63493 3.24661 5.34793 3.98969L4.74219 5.53534C4.68086 5.69386 4.55748 5.82048 4.40062 5.88591L2.95196 6.47703C2.17302 6.80068 1.73075 7.62904 1.89515 8.45634L2.13676 9.68708H1.69357C1.06997 9.68708 0.564453 10.1926 0.564453 10.8162V13.0744C0.564453 13.698 1.06997 14.2035 1.69357 14.2035H1.78732L3.83887 25.4944H3.38728C2.76367 25.4944 2.25816 26 2.25816 26.6236V27.7527C2.25816 28.3763 2.76367 28.8818 3.38728 28.8818H5.08092C5.08112 29.7162 5.39094 30.5209 5.9503 31.14H1.12904C0.817242 31.14 0.564519 31.3927 0.564519 31.7045C0.564519 32.0163 0.817242 32.269 1.12904 32.269H1.69357V33.3981C1.69357 33.7099 1.94629 33.9627 2.25809 33.9627C2.5699 33.9627 2.82262 33.7099 2.82262 33.3981V32.269H6.77456V33.3981C6.77456 33.7099 7.02728 33.9627 7.33909 33.9627C7.65089 33.9627 7.90361 33.7099 7.90361 33.3981V32.269H11.8554V33.3981C11.8554 33.7099 12.1081 33.9627 12.4199 33.9627C12.7317 33.9627 12.9845 33.7099 12.9845 33.3981V32.269H16.9363V33.3981C16.9363 33.7099 17.189 33.9627 17.5008 33.9627C17.8126 33.9627 18.0653 33.7099 18.0653 33.3981V32.269H22.0171V33.3981C22.0171 33.7099 22.2699 33.9627 22.5817 33.9627C22.8935 33.9627 23.1462 33.7099 23.1462 33.3981V32.269H27.098V33.3981C27.098 33.7099 27.3507 33.9627 27.6625 33.9627C27.9743 33.9627 28.227 33.7099 28.227 33.3981V32.269H32.1789V33.3981C32.1789 33.7099 32.4316 33.9627 32.7434 33.9627C33.0552 33.9627 33.3079 33.7099 33.3079 33.3981V32.269H33.8724C34.1842 32.269 34.437 32.0163 34.437 31.7045C34.437 31.3927 34.1842 31.14 33.8724 31.14H29.0512C29.6105 30.5209 29.9204 29.7162 29.9206 28.8818H31.6142C32.2378 28.8818 32.7433 28.3763 32.7433 27.7527V26.6236C32.7433 26 32.2378 25.4944 31.6142 25.4944H31.1625L33.2152 14.2035H33.3082V14.2034ZM3.37821 7.52259L4.82687 6.93094C5.26987 6.74835 5.61898 6.39268 5.79337 5.94638L6.39859 4.40179C6.49623 4.13994 6.76007 3.97871 7.03767 4.01113L9.93605 4.38036C10.5943 4.46524 11.2426 4.16356 11.6014 3.60525L12.94 1.55766C13.0914 1.31817 13.3903 1.21821 13.6553 1.3183L16.7671 2.50782C17.2655 2.701 17.8256 2.64914 18.2801 2.36783L20.0121 1.30646C20.2024 1.18897 20.4428 1.18897 20.6331 1.30646L22.3528 2.35989C22.8196 2.64477 23.3939 2.69148 23.9007 2.48579L25.2556 1.93364C25.5332 1.8221 25.8505 1.93304 25.998 2.19331L26.8352 3.61656C27.146 4.14735 27.7139 4.4745 28.329 4.47695H29.0544C29.2343 4.47715 29.4045 4.55865 29.5173 4.69884C29.6428 4.85378 29.6914 5.05722 29.6494 5.25212C29.5454 5.77377 29.6814 6.31461 30.0198 6.72499C30.3483 7.1267 30.84 7.35931 31.3589 7.35839C31.5353 7.35832 31.7027 7.43672 31.8156 7.57234C31.9386 7.71822 31.9913 7.91087 31.9595 8.09909L31.6993 9.68715H3.28731L3.00336 8.24021C2.94177 7.94223 3.09856 7.64221 3.37821 7.52259ZM5.27847 27.7526H3.38728V26.6234H5.9503C5.65491 26.9524 5.42673 27.336 5.27847 27.7526ZM8.4682 31.1398C7.22106 31.1398 6.21004 30.1288 6.21004 28.8817C6.21004 27.6345 7.22106 26.6235 8.4682 26.6235C9.71534 26.6235 10.7264 27.6345 10.7264 28.8817C10.7264 30.1288 9.71534 31.1398 8.4682 31.1398ZM10.986 31.1398C11.5454 30.5207 11.8552 29.716 11.8554 28.8817H23.1464C23.1466 29.716 23.4564 30.5207 24.0158 31.1398H10.986ZM26.5337 31.1398C25.2865 31.1398 24.2755 30.1288 24.2755 28.8817C24.2755 27.6345 25.2865 26.6235 26.5337 26.6235C27.7808 26.6235 28.7918 27.6345 28.7918 28.8817C28.7918 30.1288 27.7809 31.1398 26.5337 31.1398ZM31.6146 26.6234V27.7526H29.7234C29.5752 27.336 29.347 26.9524 29.0516 26.6234H31.6146ZM30.0147 25.4944H26.5337C25.0996 25.496 23.822 26.4005 23.344 27.7526H11.6579C11.1799 26.4005 9.90224 25.496 8.4682 25.4944H4.98717L2.93562 14.2034H7.33909C7.65089 14.2034 7.90361 13.9506 7.90361 13.6389C7.90361 13.3272 7.65089 13.0744 7.33909 13.0744H1.69357V10.8162H33.3082V13.0744H9.59725C9.28545 13.0744 9.03273 13.3271 9.03273 13.6389C9.03273 13.9507 9.28545 14.2034 9.59725 14.2034H32.0663L30.0147 25.4944Z" fill="#2673B9"/>
<path d="M12.4193 26.6237H22.5811C22.8929 26.6237 23.1456 26.3709 23.1456 26.0592C23.1456 25.7474 22.8928 25.4946 22.5811 25.4946H12.4193C12.1075 25.4946 11.8547 25.7474 11.8547 26.0592C11.8547 26.371 12.1075 26.6237 12.4193 26.6237Z" fill="#2673B9"/>
</g>
<defs>
<clipPath id="clip0_602:10628">
<rect width="32.9577" height="33.8732" fill="white" transform="translate(0.563477 0.0893555)"/>
</clipPath>
</defs>
</svg>
